<svg width="68" height="68" viewBox="0 0 68 68" fill="none" xmlns="http://www.w3.org/2000/svg">
<g clip-path="url(#clip0_325_232)">
<path d="M56.8105 41.0789V11.8721C56.8105 8.14538 53.7784 5.1146 50.053 5.1146H43.7471V3.54078C43.7471 1.79695 42.3287 0.37851 40.5848 0.37851C38.841 0.37851 37.4226 1.79695 37.4226 3.54078V5.1146H19.3933V3.54078C19.3933 1.79695 17.9748 0.37851 16.231 0.37851C14.4872 0.37851 13.0688 1.79695 13.0688 3.54078V5.1146H6.7575C3.03211 5.1146 0 8.14671 0 11.8721V50.8937C0 54.6205 3.03211 57.6512 6.7575 57.6512H41.7177C43.2225 63.3808 48.446 67.6201 54.6417 67.6201C62.0075 67.6201 67.9987 61.6263 67.9987 54.2592C68 47.6332 63.1484 42.1188 56.8105 41.0789ZM39.5449 3.54078C39.5449 2.96835 40.0111 2.50218 40.5835 2.50218C41.1559 2.50218 41.6221 2.96835 41.6221 3.54078V8.81077C41.6221 9.3739 41.1466 9.84937 40.5835 9.84937C40.0204 9.84937 39.5449 9.3739 39.5449 8.81077V3.54078ZM15.1911 3.54078C15.1911 2.96835 15.6573 2.50218 16.2297 2.50218C16.8021 2.50218 17.2683 2.96835 17.2683 3.54078V8.81077C17.2683 9.3739 16.7928 9.84937 16.2297 9.84937C15.6666 9.84937 15.1911 9.3739 15.1911 8.81077V3.54078ZM6.7575 7.23828H13.0674V8.8121C13.0674 10.5559 14.4859 11.9744 16.2297 11.9744C17.9735 11.9744 19.392 10.5559 19.392 8.8121V7.23828H37.4212V8.8121C37.4212 10.5559 38.8397 11.9744 40.5835 11.9744C42.3273 11.9744 43.7458 10.5559 43.7458 8.8121V7.23828H50.0517C52.607 7.23828 54.6855 9.31679 54.6855 11.8721V15.9375H2.12367V11.8721C2.12367 9.31679 4.20219 7.23828 6.7575 7.23828ZM6.7575 55.5289C4.20219 55.5289 2.12367 53.4504 2.12367 50.8951V18.0625H54.6869V40.9023C54.6736 40.9023 54.659 40.9023 54.6444 40.9023C54.643 40.9023 54.643 40.9023 54.6417 40.9023C54.6391 40.9023 54.6351 40.9023 54.6324 40.9023H54.6311C47.268 40.9076 41.2808 46.8974 41.2808 54.2592C41.2808 54.6869 41.302 55.1105 41.3419 55.5276H6.7575V55.5289ZM54.6417 65.4978C48.4447 65.4978 43.4045 60.4562 43.4045 54.2605C43.4045 48.0662 48.446 43.0259 54.6417 43.0259C60.8361 43.0259 65.875 48.0662 65.875 54.2605C65.8763 60.4562 60.8361 65.4978 54.6417 65.4978ZM43.8228 36.7957C43.8228 28.2944 36.9073 21.3788 28.4059 21.3788C19.9073 21.3788 12.993 28.2944 12.993 36.7957C12.993 41.7775 15.3691 46.2148 19.0466 49.0357C19.1011 49.0875 19.1609 49.1327 19.2246 49.1712C21.7905 51.081 24.9688 52.2139 28.4073 52.2139C31.8418 52.2139 35.0187 51.0837 37.5846 49.1778C37.655 49.1353 37.7201 49.0862 37.7798 49.0304C41.4495 46.2068 43.8228 41.7735 43.8228 36.7957ZM15.1154 36.7957C15.1154 29.4658 21.0773 23.5025 28.4046 23.5025C35.7345 23.5025 41.6978 29.4658 41.6978 36.7957C41.6978 40.3073 40.3285 43.5041 38.0973 45.8827C37.9897 41.6633 34.5259 38.2646 30.2786 38.2646H26.5333C22.2859 38.2646 18.8222 41.6646 18.7146 45.8841C16.4847 43.5041 15.1154 40.3073 15.1154 36.7957ZM20.8343 47.7142V46.0833C20.8343 42.9423 23.3909 40.3869 26.5346 40.3869H30.2799C33.4223 40.3869 35.9802 42.9423 35.9802 46.0833V47.7129C33.83 49.2097 31.2189 50.0889 28.4059 50.0889C25.5943 50.0889 22.9845 49.2097 20.8343 47.7142ZM28.4059 37.918C31.6386 37.918 34.2683 35.2883 34.2683 32.0556C34.2683 28.823 31.6386 26.1933 28.4059 26.1933C25.1759 26.1933 22.5476 28.823 22.5476 32.0556C22.5476 35.2883 25.1759 37.918 28.4059 37.918ZM28.4059 28.3169C30.4672 28.3169 32.1446 29.9944 32.1446 32.0556C32.1446 34.1169 30.4672 35.7943 28.4059 35.7943C26.3473 35.7943 24.6712 34.1169 24.6712 32.0556C24.6712 29.9944 26.346 28.3169 28.4059 28.3169ZM61.1376 50.1739C61.552 50.5883 61.552 51.2603 61.1376 51.6747L54.4624 58.3498C54.2552 58.557 53.983 58.6606 53.712 58.6606C53.4411 58.6606 53.1688 58.557 52.9616 58.3498L48.1432 53.5314C47.7288 53.117 47.7288 52.445 48.1432 52.0306C48.5576 51.6162 49.2296 51.6162 49.644 52.0306L53.712 56.0987L59.6368 50.1739C60.0512 49.7595 60.7232 49.7595 61.1376 50.1739Z" fill="url(#paint0_linear_325_232)"/>
</g>
<defs>
<linearGradient id="paint0_linear_325_232" x1="31" y1="5" x2="30.5" y2="58" gradientUnits="userSpaceOnUse">
<stop stop-color="#60C7FF"/>
<stop offset="1" stop-color="#2091E1"/>
</linearGradient>
<clipPath id="clip0_325_232">
<rect width="68" height="68" fill="white"/>
</clipPath>
</defs>
</svg>
