<svg width="49" height="49" viewBox="0 0 49 49" fill="none" xmlns="http://www.w3.org/2000/svg">
<path d="M36.9628 35.6052V23.0277C38.2106 22.4105 39.2365 21.422 39.8997 20.198C40.5628 18.974 40.8306 17.5747 40.6662 16.1924C40.5018 14.8101 39.9132 13.5126 38.9815 12.4783C38.0498 11.4441 36.8205 10.7238 35.4628 10.4165C35.4628 10.3602 35.4628 10.3047 35.4628 10.25C35.4612 8.85807 34.9076 7.52363 33.9234 6.53941C32.9392 5.55519 31.6047 5.00155 30.2128 4.99997C29.644 4.99939 29.0791 5.09342 28.5411 5.27822C27.4983 3.9005 26.0493 2.88495 24.3985 2.37483C22.7477 1.86471 20.9784 1.88577 19.3402 2.43504C17.702 2.98432 16.2776 4.03407 15.2679 5.43622C14.2583 6.83837 13.7143 8.52213 13.7128 10.25V10.2912C12.2644 10.4506 10.9068 11.0753 9.84335 12.0715C8.77995 13.0677 8.06814 14.3818 7.81467 15.8167C7.56119 17.2516 7.77971 18.73 8.43745 20.0303C9.09519 21.3305 10.1567 22.3825 11.4628 23.0285V35.6052L8.51608 42.971C8.48093 43.0598 8.46287 43.1544 8.46283 43.25V45.5C8.46283 45.8978 8.62087 46.2793 8.90217 46.5606C9.18348 46.8419 9.56501 47 9.96283 47H38.4628C38.8607 47 39.2422 46.8419 39.5235 46.5606C39.8048 46.2793 39.9628 45.8978 39.9628 45.5V43.25C39.9628 43.1544 39.9447 43.0598 39.9096 42.971L36.9628 35.6052ZM29.2978 42.5L28.6903 40.0677C28.6497 39.9055 28.556 39.7616 28.4242 39.6587C28.2924 39.5558 28.13 39.5 27.9628 39.5H20.4628C20.2956 39.5 20.1332 39.5558 20.0014 39.6587C19.8696 39.7616 19.776 39.9055 19.7353 40.0677L19.1271 42.5H10.3206L12.7206 36.5H35.7051L38.1051 42.5H29.2978ZM27.7521 42.5H20.6736L21.0486 41H27.3771L27.7521 42.5ZM18.9628 33.5H29.4628C30.0596 33.5 30.6319 33.2629 31.0538 32.841C31.4758 32.419 31.7128 31.8467 31.7128 31.25V20H34.7128C34.9117 20 35.1025 20.079 35.2432 20.2196C35.3838 20.3603 35.4628 20.5511 35.4628 20.75V35H12.9628V20.75C12.9636 20.6284 12.9939 20.5088 13.0511 20.4016C13.1083 20.2943 13.1908 20.2025 13.2913 20.1342C13.4135 20.0448 13.5615 19.9977 13.7128 20H16.7128V31.25C16.7128 31.8467 16.9499 32.419 17.3718 32.841C17.7938 33.2629 18.3661 33.5 18.9628 33.5ZM21.9628 12.5H26.4628V13.25H21.9628V12.5ZM21.9628 14.75H26.4628C26.8607 14.75 27.2422 14.5919 27.5235 14.3106C27.8048 14.0293 27.9628 13.6478 27.9628 13.25V12.5H29.4628C29.6617 12.5 29.8525 12.579 29.9932 12.7196C30.1338 12.8603 30.2128 13.0511 30.2128 13.25V31.25C30.2128 31.4489 30.1338 31.6396 29.9932 31.7803C29.8525 31.9209 29.6617 32 29.4628 32H18.9628C18.7639 32 18.5732 31.9209 18.4325 31.7803C18.2918 31.6396 18.2128 31.4489 18.2128 31.25V13.25C18.2128 13.0511 18.2918 12.8603 18.4325 12.7196C18.5732 12.579 18.7639 12.5 18.9628 12.5H20.4628V13.25C20.4628 13.6478 20.6209 14.0293 20.9022 14.3106C21.1835 14.5919 21.565 14.75 21.9628 14.75ZM9.21283 17C9.2147 16.3079 9.35301 15.623 9.61985 14.9844C9.8867 14.3459 10.2768 13.7662 10.7679 13.2786C11.2591 12.7909 11.8415 12.4049 12.4819 12.1426C13.1224 11.8803 13.8083 11.7469 14.5003 11.75C14.6048 11.7504 14.7081 11.729 14.8038 11.6872C14.8995 11.6453 14.9854 11.584 15.056 11.507C15.1266 11.43 15.1804 11.3392 15.2138 11.2402C15.2473 11.1413 15.2597 11.0365 15.2503 10.9325C15.2301 10.7075 15.2158 10.4825 15.2158 10.25C15.2185 8.79336 15.6923 7.37669 16.5664 6.21153C17.4406 5.04637 18.6682 4.19524 20.0659 3.78525C21.4636 3.37525 22.9565 3.4284 24.3215 3.93674C25.6865 4.44508 26.8505 5.38135 27.6396 6.60572C27.7389 6.76012 27.8914 6.87273 28.0682 6.92221C28.245 6.9717 28.4338 6.95462 28.5988 6.87422C29.1011 6.62771 29.6533 6.49968 30.2128 6.49997C30.7621 6.49575 31.3055 6.61316 31.804 6.84379C32.3025 7.07442 32.7438 7.41255 33.0962 7.8339C33.4486 8.25525 33.7033 8.74938 33.8421 9.28082C33.9809 9.81227 34.0004 10.3679 33.8991 10.9077C33.8814 11.0085 33.8846 11.1119 33.9084 11.2114C33.9322 11.3109 33.9762 11.4045 34.0375 11.4864C34.0988 11.5684 34.1763 11.6369 34.2651 11.6877C34.3539 11.7386 34.4521 11.7708 34.5538 11.7822C35.6136 11.9006 36.6121 12.3395 37.4159 13.0403C38.2197 13.7411 38.7906 14.6704 39.0524 15.7041C39.3142 16.7379 39.2544 17.8269 38.881 18.8258C38.5077 19.8246 37.8385 20.6859 36.9628 21.2945V20.75C36.9628 20.1532 36.7258 19.5809 36.3038 19.159C35.8819 18.737 35.3096 18.5 34.7128 18.5H31.7128V13.25C31.7128 12.6532 31.4758 12.0809 31.0538 11.659C30.6319 11.237 30.0596 11 29.4628 11H18.9628C18.3661 11 17.7938 11.237 17.3718 11.659C16.9499 12.0809 16.7128 12.6532 16.7128 13.25V18.5H13.7128C13.2483 18.4975 12.7949 18.6427 12.4183 18.9147C12.1238 19.1219 11.8834 19.3966 11.7171 19.716C11.5508 20.0353 11.4636 20.3899 11.4628 20.75V21.2945C10.7685 20.8139 10.2011 20.1722 9.80918 19.4242C9.4173 18.6762 9.21267 17.8444 9.21283 17ZM9.96283 45.5V44H38.4628V45.5H9.96283Z" fill="url(#paint0_linear_61_413)"/>
<path d="M23.4628 21.5H24.9628V23H23.4628V21.5Z" fill="url(#paint1_linear_61_413)"/>
<path d="M26.4628 21.5H27.9628V23H26.4628V21.5Z" fill="url(#paint2_linear_61_413)"/>
<path d="M20.4628 21.5H21.9628V23H20.4628V21.5Z" fill="url(#paint3_linear_61_413)"/>
<path d="M5.46283 29C5.01782 29 4.58281 29.132 4.2128 29.3792C3.84279 29.6264 3.5544 29.9778 3.3841 30.389C3.2138 30.8001 3.16925 31.2525 3.25606 31.689C3.34288 32.1254 3.55717 32.5263 3.87184 32.841C4.18651 33.1557 4.58742 33.37 5.02388 33.4568C5.46033 33.5436 5.91273 33.499 6.32387 33.3287C6.735 33.1584 7.0864 32.87 7.33364 32.5C7.58087 32.13 7.71283 31.695 7.71283 31.25C7.71283 30.6533 7.47578 30.081 7.05382 29.659C6.63186 29.2371 6.05957 29 5.46283 29ZM5.46283 32C5.31449 32 5.16949 31.956 5.04615 31.8736C4.92282 31.7912 4.82669 31.6741 4.76992 31.537C4.71316 31.4 4.6983 31.2492 4.72724 31.1037C4.75618 30.9582 4.82761 30.8246 4.9325 30.7197C5.03739 30.6148 5.17103 30.5433 5.31651 30.5144C5.462 30.4855 5.6128 30.5003 5.74984 30.5571C5.88689 30.6139 6.00402 30.71 6.08643 30.8333C6.16884 30.9567 6.21283 31.1017 6.21283 31.25C6.21283 31.4489 6.13381 31.6397 5.99316 31.7803C5.85251 31.921 5.66174 32 5.46283 32Z" fill="url(#paint4_linear_61_413)"/>
<path d="M4.71283 26H6.21283V27.5H4.71283V26Z" fill="url(#paint5_linear_61_413)"/>
<path d="M4.71283 23H6.21283V24.5H4.71283V23Z" fill="url(#paint6_linear_61_413)"/>
<path d="M4.71283 20H6.21283V21.5H4.71283V20Z" fill="url(#paint7_linear_61_413)"/>
<path d="M42.9628 20C42.5178 20 42.0828 20.132 41.7128 20.3792C41.3428 20.6264 41.0544 20.9778 40.8841 21.389C40.7138 21.8001 40.6692 22.2525 40.7561 22.689C40.8429 23.1254 41.0572 23.5263 41.3718 23.841C41.6865 24.1557 42.0874 24.37 42.5239 24.4568C42.9603 24.5436 43.4127 24.499 43.8239 24.3287C44.235 24.1584 44.5864 23.87 44.8336 23.5C45.0809 23.13 45.2128 22.695 45.2128 22.25C45.2128 21.6533 44.9758 21.081 44.5538 20.659C44.1319 20.2371 43.5596 20 42.9628 20ZM42.9628 23C42.8145 23 42.6695 22.956 42.5462 22.8736C42.4228 22.7912 42.3267 22.6741 42.2699 22.537C42.2132 22.4 42.1983 22.2492 42.2272 22.1037C42.2562 21.9582 42.3276 21.8246 42.4325 21.7197C42.5374 21.6148 42.671 21.5433 42.8165 21.5144C42.962 21.4855 43.1128 21.5003 43.2498 21.5571C43.3869 21.6139 43.504 21.71 43.5864 21.8333C43.6688 21.9567 43.7128 22.1017 43.7128 22.25C43.7128 22.4489 43.6338 22.6397 43.4932 22.7803C43.3525 22.921 43.1617 23 42.9628 23Z" fill="url(#paint8_linear_61_413)"/>
<path d="M42.2128 26H43.7128V27.5H42.2128V26Z" fill="url(#paint9_linear_61_413)"/>
<path d="M42.2128 29H43.7128V30.5H42.2128V29Z" fill="url(#paint10_linear_61_413)"/>
<path d="M42.2128 32H43.7128V33.5H42.2128V32Z" fill="url(#paint11_linear_61_413)"/>
<defs>
<linearGradient id="paint0_linear_61_413" x1="24.2126" y1="2.00708" x2="24.2126" y2="47" gradientUnits="userSpaceOnUse">
<stop stop-color="#61C8FF"/>
<stop offset="1" stop-color="#0170FF"/>
</linearGradient>
<linearGradient id="paint1_linear_61_413" x1="24.2128" y1="21.5" x2="24.2128" y2="23" gradientUnits="userSpaceOnUse">
<stop stop-color="#61C8FF"/>
<stop offset="1" stop-color="#0170FF"/>
</linearGradient>
<linearGradient id="paint2_linear_61_413" x1="27.2128" y1="21.5" x2="27.2128" y2="23" gradientUnits="userSpaceOnUse">
<stop stop-color="#61C8FF"/>
<stop offset="1" stop-color="#0170FF"/>
</linearGradient>
<linearGradient id="paint3_linear_61_413" x1="21.2128" y1="21.5" x2="21.2128" y2="23" gradientUnits="userSpaceOnUse">
<stop stop-color="#61C8FF"/>
<stop offset="1" stop-color="#0170FF"/>
</linearGradient>
<linearGradient id="paint4_linear_61_413" x1="5.46283" y1="29" x2="5.46283" y2="33.5" gradientUnits="userSpaceOnUse">
<stop stop-color="#61C8FF"/>
<stop offset="1" stop-color="#0170FF"/>
</linearGradient>
<linearGradient id="paint5_linear_61_413" x1="5.46283" y1="26" x2="5.46283" y2="27.5" gradientUnits="userSpaceOnUse">
<stop stop-color="#61C8FF"/>
<stop offset="1" stop-color="#0170FF"/>
</linearGradient>
<linearGradient id="paint6_linear_61_413" x1="5.46283" y1="23" x2="5.46283" y2="24.5" gradientUnits="userSpaceOnUse">
<stop stop-color="#61C8FF"/>
<stop offset="1" stop-color="#0170FF"/>
</linearGradient>
<linearGradient id="paint7_linear_61_413" x1="5.46283" y1="20" x2="5.46283" y2="21.5" gradientUnits="userSpaceOnUse">
<stop stop-color="#61C8FF"/>
<stop offset="1" stop-color="#0170FF"/>
</linearGradient>
<linearGradient id="paint8_linear_61_413" x1="42.9628" y1="20" x2="42.9628" y2="24.5" gradientUnits="userSpaceOnUse">
<stop stop-color="#61C8FF"/>
<stop offset="1" stop-color="#0170FF"/>
</linearGradient>
<linearGradient id="paint9_linear_61_413" x1="42.9628" y1="26" x2="42.9628" y2="27.5" gradientUnits="userSpaceOnUse">
<stop stop-color="#61C8FF"/>
<stop offset="1" stop-color="#0170FF"/>
</linearGradient>
<linearGradient id="paint10_linear_61_413" x1="42.9628" y1="29" x2="42.9628" y2="30.5" gradientUnits="userSpaceOnUse">
<stop stop-color="#61C8FF"/>
<stop offset="1" stop-color="#0170FF"/>
</linearGradient>
<linearGradient id="paint11_linear_61_413" x1="42.9628" y1="32" x2="42.9628" y2="33.5" gradientUnits="userSpaceOnUse">
<stop stop-color="#61C8FF"/>
<stop offset="1" stop-color="#0170FF"/>
</linearGradient>
</defs>
</svg>
