<svg width="49" height="49" viewBox="0 0 49 49" fill="none" xmlns="http://www.w3.org/2000/svg">
<g clip-path="url(#clip0_61_385)">
<path d="M13.4782 20.5381C13.5174 20.608 13.5564 20.6779 13.5967 20.7479C16.5059 25.3118 20.2583 28.7067 26.1441 32.0996C26.2516 32.1616 26.3724 32.1925 26.4918 32.1925C26.6112 32.1925 26.732 32.1616 26.8395 32.0996C32.7253 28.7069 36.4777 25.312 39.4032 20.7214C42.2863 15.7147 42.0724 11.0066 38.8165 7.80522C35.9668 5.00355 31.7107 4.42314 28.3267 6.07798L24.8899 2.65059C23.4774 1.26358 21.6083 0.5 19.6282 0.5H0.856923C0.473307 0.5 0.161499 0.811424 0.161499 1.19562C0.161499 1.57981 0.473307 1.89123 0.856923 1.89123H19.628C21.2418 1.89123 22.7643 2.5135 23.9119 3.63958L27.0928 6.81162C26.8875 6.95715 26.6865 7.11075 26.492 7.27568C24.3105 5.4321 21.3245 4.7361 18.4821 5.41904L16.4636 3.61923C16.1778 3.36483 15.7388 3.38883 15.4812 3.6753C15.2258 3.96214 15.2508 4.40202 15.5376 4.65738L24.261 12.4351C24.6695 12.784 24.8869 13.2955 24.8587 13.8379C24.8293 14.3856 24.5576 14.8628 24.0935 15.1819C23.4751 15.6041 22.5786 15.5248 21.9429 14.9812L15.7171 10.0222C15.6847 9.99651 15.6461 9.98691 15.6108 9.96771C15.5707 9.94602 15.534 9.91971 15.4906 9.90608C15.4403 9.89034 15.3892 9.88957 15.3372 9.88554C15.2997 9.88246 15.264 9.87382 15.2262 9.8767C15.1728 9.88112 15.1233 9.90051 15.072 9.91722C15.0398 9.92739 15.0062 9.92739 14.9751 9.94275C14.1055 10.3738 13.171 10.5921 12.1941 10.5921C10.2075 10.5921 8.31881 9.6344 7.14185 8.03082C6.91471 7.72112 6.47791 7.65411 6.16918 7.88125C5.85948 8.10838 5.79324 8.54365 6.02038 8.85354C7.37705 10.7027 9.50883 11.8482 11.7848 11.9716C11.277 14.1443 11.6139 16.5867 12.7734 19.1465H12.745C7.96534 19.1465 3.92815 15.1957 3.92815 10.5188C3.92815 10.1344 3.61615 9.82314 3.23273 9.82314C2.84931 9.82314 2.53731 10.1344 2.53731 10.5188C2.53731 12.3441 3.04534 14.0517 3.91798 15.5273H0.856923C0.473307 15.5273 0.161499 15.8385 0.161499 16.2229C0.161499 16.6073 0.473307 16.9185 0.856923 16.9185H4.89891C6.77283 19.1278 9.59388 20.5379 12.7448 20.5379H13.4782V20.5381ZM15.1736 11.3684L21.0572 16.0541C21.6365 16.5495 22.3436 16.8139 23.0496 16.8434C23.511 18.3228 24.8909 19.373 26.4922 19.373C27.7146 19.373 28.7102 20.3682 28.7102 21.5908C28.7102 22.8135 27.7148 23.8086 26.4922 23.8086C25.2695 23.8086 24.274 22.8135 24.274 21.5908C24.274 21.2066 23.962 20.8952 23.5786 20.8952C23.1952 20.8952 22.8832 21.2066 22.8832 21.5908C22.8832 23.3426 24.139 24.8039 25.7968 25.1296V26.8351C25.7968 27.2193 26.1088 27.5307 26.4922 27.5307C26.8756 27.5307 27.1876 27.2193 27.1876 26.8351V25.1296C28.8453 24.8039 30.101 23.3426 30.101 21.5908C30.101 19.6007 28.4819 17.9818 26.492 17.9818C25.5642 17.9818 24.7577 17.4075 24.4305 16.5808C24.5858 16.5103 24.7367 16.4274 24.8802 16.3289C25.6975 15.768 26.1963 14.8866 26.2474 13.9116C26.2537 13.7939 26.2531 13.677 26.2466 13.5614C26.3278 13.5525 26.4094 13.5464 26.492 13.5464C27.7145 13.5464 28.71 14.5413 28.71 15.7642C28.71 16.1484 29.022 16.4598 29.4054 16.4598C29.7888 16.4598 30.1008 16.1484 30.1008 15.7642C30.1008 14.0122 28.8451 12.5509 27.1874 12.2254V10.5197C27.1874 10.1355 26.8754 9.8241 26.492 9.8241C26.1086 9.8241 25.7966 10.1355 25.7966 10.5197V12.1156C25.6307 11.8449 25.4229 11.5986 25.176 11.3876L19.8064 6.60003C22.0881 6.35523 24.376 7.11133 26.0039 8.7128C26.2756 8.9791 26.7082 8.9791 26.9799 8.7128C29.9499 5.79171 34.8229 5.8303 37.8407 8.79766C41.6325 12.5246 39.6914 17.4331 38.2136 20.0003C35.4903 24.2734 31.9713 27.4869 26.492 30.6926C21.0127 27.4869 17.4937 24.274 14.7867 20.0268C13.0839 17.0709 12.548 14.2658 13.2359 11.9152C13.2365 11.9129 13.2369 11.9108 13.2375 11.9084C13.9041 11.8142 14.5511 11.6327 15.1736 11.3684Z" fill="url(#paint0_linear_61_385)"/>
<path d="M47.4661 47.1087H24.7675C23.4797 47.1087 22.2701 46.6076 21.3606 45.6975L11.4995 35.8355C10.6683 35.0035 10.6683 33.6492 11.4985 32.8172C12.3309 31.9859 13.686 31.9859 14.5164 32.8172L19.0361 37.3375C18.889 37.6929 18.8059 38.0813 18.8059 38.4891C18.8059 40.158 20.1631 41.5156 21.8312 41.5156H31.1532C31.5368 41.5156 31.8486 41.2042 31.8486 40.82C31.8486 40.4358 31.5366 40.1244 31.1532 40.1244H21.8312C20.9303 40.1244 20.1969 39.3907 20.1969 38.4891C20.1969 37.5875 20.9303 36.8538 21.8312 36.8538H28.057C28.0894 36.8538 28.1171 36.8396 28.1484 36.8354C28.1954 36.8291 28.2407 36.8237 28.2859 36.8076C28.3331 36.7911 28.3734 36.7661 28.4151 36.74C28.4412 36.7242 28.4706 36.7181 28.495 36.6983C30.2272 35.2958 32.4137 34.523 34.6491 34.523C37.8212 34.523 40.7434 36.7125 42.2312 38.8825C42.3616 39.0716 42.5757 39.1847 42.8051 39.1847H47.4661C47.8497 39.1847 48.1615 38.8733 48.1615 38.4891C48.1615 38.1049 47.8497 37.7935 47.4661 37.7935H43.1649C41.0794 34.9507 37.7747 33.1317 34.6493 33.1317C32.1835 33.1317 29.7739 33.9621 27.8278 35.4626H21.8312C21.0797 35.4626 20.4 35.7481 19.8703 36.2035L15.5 31.8334C14.1264 30.4597 11.891 30.4597 10.5151 31.8334C9.1425 33.2078 9.1425 35.4442 10.5151 36.8191L20.376 46.6812C21.5486 47.8539 23.1082 48.5 24.7675 48.5H47.4661C47.8497 48.5 48.1615 48.1887 48.1615 47.8044C48.1615 47.42 47.8497 47.1087 47.4661 47.1087Z" fill="url(#paint1_linear_61_385)"/>
</g>
<defs>
<linearGradient id="paint0_linear_61_385" x1="20.7916" y1="0.5" x2="20.7916" y2="32.1925" gradientUnits="userSpaceOnUse">
<stop stop-color="#61C8FF"/>
<stop offset="1" stop-color="#0170FF"/>
</linearGradient>
<linearGradient id="paint1_linear_61_385" x1="28.8236" y1="30.8031" x2="28.8236" y2="48.5" gradientUnits="userSpaceOnUse">
<stop stop-color="#61C8FF"/>
<stop offset="1" stop-color="#0170FF"/>
</linearGradient>
<clipPath id="clip0_61_385">
<rect width="48" height="48" fill="white" transform="translate(0.161499 0.5)"/>
</clipPath>
</defs>
</svg>
