<svg width="49" height="49" viewBox="0 0 49 49" fill="none" xmlns="http://www.w3.org/2000/svg">
<g clip-path="url(#clip0_61_391)">
<path fill-rule="evenodd" clip-rule="evenodd" d="M33.2464 1.9121C32.2601 2.83778 31.4286 4.29335 30.8315 6.11116C29.7621 5.84277 28.7198 5.47618 27.7178 5.01606C29.2264 3.47471 31.1449 2.3976 33.2464 1.9121ZM43.8482 5.01606C42.8447 5.47618 41.8009 5.84276 40.73 6.11116C40.1329 4.29297 39.3014 2.83778 38.3151 1.9121C40.4179 2.39753 42.3378 3.47459 43.8482 5.01606ZM38.3151 23.951C39.3014 23.0258 40.1329 21.5698 40.73 19.751C41.8008 20.02 42.8446 20.3869 43.8482 20.8471C42.3373 22.3879 40.4176 23.4648 38.3151 23.951ZM27.7178 20.8471C28.7199 20.3869 29.7623 20.02 30.8317 19.751C31.4288 21.5698 32.2602 23.0258 33.2466 23.951C31.1454 23.4648 29.2271 22.3878 27.718 20.8471H27.7178ZM29.8407 13.4937H24.489C24.604 15.8563 25.4614 18.1224 26.9393 19.9693C28.0854 19.4175 29.2842 18.9824 30.5175 18.6707C30.095 16.9765 29.8679 15.2395 29.8407 13.4937ZM35.7807 18.0218C34.3852 18.0203 32.9928 18.1543 31.6232 18.4221C31.2157 16.8099 30.9945 15.1563 30.9642 13.4937H40.5973C40.5691 15.1565 40.348 16.8104 39.9383 18.4221C38.5687 18.1541 37.1763 18.0201 35.7807 18.0218ZM35.7807 23.9424C36.9661 23.9424 38.1691 22.8229 39.0759 20.8711C39.2814 20.4258 39.4629 19.9699 39.6196 19.5053C37.084 19.0276 34.4814 19.0276 31.9458 19.5053C32.1012 19.9699 32.2813 20.4258 32.4854 20.8711C33.3965 22.8229 34.5948 23.9424 35.7805 23.9424H35.7807ZM44.6222 19.9693C46.1001 18.1224 46.9575 15.8563 47.0725 13.4937H41.7254C41.6948 15.2395 41.4663 16.9763 41.0443 18.6707C42.2778 18.9818 43.4765 19.417 44.6223 19.9696L44.6222 19.9693ZM47.0725 12.3689C46.9576 10.0061 46.1002 7.73983 44.6223 5.89272C43.4766 6.44565 42.2777 6.88104 41.0442 7.19219C41.4661 8.88656 41.6946 10.6233 41.7252 12.3692L47.0725 12.3689ZM35.7807 7.84056C37.1763 7.84188 38.5686 7.70784 39.9383 7.44034C40.348 9.0521 40.5692 10.706 40.5973 12.3688H30.9642C30.9945 10.7062 31.2156 9.05252 31.6232 7.44034C32.9929 7.70763 34.3852 7.84166 35.7807 7.84056ZM35.7807 1.9196C34.5954 1.9196 33.3968 3.03906 32.4857 4.99047C32.2815 5.43589 32.1014 5.89196 31.9461 6.35669C33.2101 6.59639 34.4939 6.71652 35.7805 6.71547C37.0686 6.71674 38.354 6.59662 39.6196 6.35669C39.463 5.89188 39.2814 5.43581 39.0759 4.99047C38.1691 3.03906 36.9665 1.9196 35.7807 1.9196ZM26.9393 5.89272C25.4613 7.73989 24.6039 10.0063 24.489 12.3692H29.8407C29.8679 10.6233 30.095 8.88634 30.5175 7.19219C29.2842 6.88031 28.0854 6.44496 26.9393 5.89272ZM35.7807 25.3624C42.6363 25.3624 48.2136 19.786 48.2136 12.9322C48.2136 6.07844 42.6363 0.499939 35.7807 0.499939C28.9297 0.499939 23.3523 6.07638 23.3523 12.9312C23.3523 19.786 28.9297 25.3624 35.7807 25.3624ZM4.68312 3.92406C2.04706 8.79681 0.95909 12.1799 1.45043 13.9796C1.45551 13.997 1.4585 14.015 1.45934 14.0331C3.90078 28.359 20.3541 44.8141 34.6799 47.2537C34.6978 47.2566 34.7156 47.2606 34.733 47.2656C36.533 47.7543 39.9166 46.6646 44.7907 44.0294C44.9595 43.9377 45.122 43.8351 45.2772 43.722C41.1187 40.7377 37.2585 37.3582 33.7506 33.6306L33.2243 34.0225C32.4142 34.6404 31.4267 34.9811 30.408 34.9943C29.3892 35.0075 28.3933 34.6925 27.5674 34.0959C22.335 30.8052 17.9091 26.3805 14.6171 21.149C14.0204 20.3224 13.7056 19.3258 13.7191 18.3064C13.7326 17.2871 14.0737 16.2991 14.6921 15.4886L15.0813 14.9618C11.3552 11.455 7.97669 7.59639 4.99278 3.43975C4.87969 3.5946 4.77636 3.75635 4.6834 3.92406H4.68312ZM6.8194 2.15791L7.92959 1.80719C8.29852 1.6893 8.68341 1.62891 9.07072 1.62813C9.60251 1.62884 10.1277 1.74625 10.6091 1.97208C11.0906 2.19791 11.5166 2.52665 11.8572 2.9351L16.4482 8.32084C16.9934 8.95705 17.3053 9.76011 17.3326 10.5975C17.3599 11.4349 17.1008 12.2566 16.5982 12.9269L15.7579 14.053C12.0798 10.5815 8.74707 6.76134 5.80662 2.64625C6.11835 2.4347 6.4595 2.27015 6.81912 2.15791H6.8194ZM35.7852 32.1158C36.4557 31.6125 37.278 31.353 38.116 31.3805C38.9541 31.4079 39.7576 31.7205 40.3939 32.2666L45.781 36.855C46.3402 37.3224 46.7463 37.9469 46.9466 38.6477C47.1468 39.3485 47.1321 40.0933 46.9044 40.7856L46.555 41.8931C46.4431 42.2528 46.2792 42.5942 46.0685 42.9064C41.9526 39.9665 38.1324 36.6333 34.6617 32.9539L35.7852 32.1158ZM12.7771 35.9341C19.4557 42.614 27.3595 47.14 34.4671 48.3576C34.8573 48.4566 35.2588 48.5044 35.6613 48.4999C37.8286 48.4999 41.013 47.3513 45.3254 45.0186C45.8747 44.73 46.3613 44.3352 46.7568 43.8571C47.1524 43.379 47.4491 42.8271 47.6298 42.2335L47.9792 41.1256C48.2753 40.2217 48.2932 39.2497 48.0307 38.3355C47.7682 37.4213 47.2373 36.6069 46.5067 35.9978L41.124 31.4099C40.2941 30.6978 39.2462 30.2902 38.1533 30.2544C37.0604 30.2186 35.9879 30.5568 35.1132 31.213L32.552 33.1207C31.9291 33.5958 31.1695 33.8571 30.3862 33.8659C29.6028 33.8746 28.8376 33.6303 28.2042 33.1693C28.1954 33.1627 28.1866 33.1574 28.1777 33.1517C23.0799 29.9464 18.7687 25.6352 15.5636 20.5374C15.5564 20.5294 15.5504 20.5203 15.5458 20.5105C15.0844 19.8769 14.8399 19.1112 14.8487 18.3274C14.8575 17.5437 15.119 16.7837 15.5945 16.1605L17.5008 13.5993C18.1564 12.7248 18.494 11.6529 18.4578 10.5606C18.4216 9.4683 18.0138 8.42105 17.3018 7.59194L12.7152 2.20488C12.1057 1.47523 11.2915 0.945088 10.3777 0.682941C9.46394 0.420795 8.49253 0.43869 7.589 0.734314L6.47881 1.08541C5.88555 1.26574 5.33407 1.56225 4.85648 1.9577C4.37888 2.35315 3.9847 2.83964 3.69687 3.38885C0.887934 8.57435 -0.20416 12.1273 0.353559 14.248C1.57381 21.3522 6.09847 29.2555 12.7771 35.9341Z" fill="url(#paint0_linear_61_391)"/>
</g>
<defs>
<linearGradient id="paint0_linear_61_391" x1="0.212278" y1="24.4999" x2="48.2136" y2="24.4999" gradientUnits="userSpaceOnUse">
<stop stop-color="#019BFF"/>
<stop offset="1" stop-color="#016FFF"/>
</linearGradient>
<clipPath id="clip0_61_391">
<rect width="48" height="48" fill="white" transform="translate(0.212936 0.5)"/>
</clipPath>
</defs>
</svg>
