<svg width="49" height="49" viewBox="0 0 49 49" fill="none" xmlns="http://www.w3.org/2000/svg">
<path d="M45.5605 36.1361V31.8161C45.5587 30.162 45.0726 28.5447 44.1619 27.1639C43.2513 25.783 41.9562 24.6992 40.4364 24.0462L36.5164 14.1391C36.4249 13.9079 36.2454 13.7225 36.0172 13.6237C35.789 13.5249 35.5309 13.5208 35.2997 13.6123C35.0685 13.7037 34.8831 13.8833 34.7843 14.1115C34.6855 14.3397 34.6814 14.5978 34.7729 14.829L38.176 23.4296C37.8214 23.3847 37.4643 23.3622 37.1068 23.3623H11.8485C11.5265 23.3624 11.2048 23.3809 10.8849 23.4175L14.2831 14.829C14.3746 14.5978 14.3705 14.3397 14.2717 14.1115C14.1729 13.8833 13.9875 13.7037 13.7563 13.6123C13.5251 13.5208 13.267 13.5249 13.0388 13.6237C12.8106 13.7225 12.631 13.9079 12.5396 14.1391L8.63971 23.9955C7.08946 24.6334 5.76345 25.7171 4.82972 27.1093C3.89599 28.5016 3.39657 30.1397 3.39474 31.816V36.136C2.95551 36.2812 2.57317 36.5611 2.30196 36.9359C2.03076 37.3107 1.88447 37.7614 1.88385 38.224V39.3906C1.88451 39.9736 2.11637 40.5325 2.52858 40.9447C2.94079 41.3569 3.49967 41.5888 4.08263 41.5895H5.40927V44.7324C5.41 45.3795 5.66739 45.9999 6.12496 46.4574C6.58253 46.915 7.20292 47.1724 7.85003 47.1732H13.8082C14.4553 47.1724 15.0757 46.915 15.5333 46.4574C15.9909 45.9999 16.2482 45.3795 16.249 44.7324V41.5895H32.7063V44.7324C32.707 45.3795 32.9644 45.9999 33.4219 46.4574C33.8795 46.915 34.4999 47.1724 35.147 47.1732H41.1051C41.7522 47.1724 42.3726 46.915 42.8302 46.4575C43.2878 45.9999 43.5452 45.3795 43.5459 44.7324V41.5895H44.8725C45.4554 41.5888 46.0143 41.357 46.4266 40.9447C46.8388 40.5325 47.0707 39.9736 47.0714 39.3906V38.224C47.0707 37.7614 46.9244 37.3107 46.6532 36.9359C46.382 36.5611 45.9997 36.2813 45.5605 36.1361ZM5.26974 31.8161C5.27132 30.4659 5.68756 29.1489 6.46215 28.0431C7.23673 26.9372 8.33229 26.096 9.60061 25.6332C9.63462 25.6238 9.66807 25.6124 9.7008 25.5992C10.3915 25.3596 11.1174 25.2372 11.8485 25.2374H37.1067C37.8587 25.237 38.6052 25.3662 39.3133 25.6192C39.359 25.6406 39.4064 25.6584 39.455 25.6722C40.6984 26.1488 41.7683 26.991 42.5235 28.0878C43.2787 29.1846 43.6838 30.4844 43.6855 31.8161V36.0253H32.5667V33.2735C32.5639 32.6264 32.3046 32.0068 31.8456 31.5507C31.3865 31.0946 30.7653 30.8391 30.1182 30.8404H18.8369C18.1898 30.8391 17.5686 31.0946 17.1096 31.5507C16.6506 32.0069 16.3913 32.6264 16.3885 33.2735V36.0252H5.26975L5.26974 31.8161ZM18.2635 36.0253V33.2735C18.2657 33.1236 18.3273 32.9806 18.4348 32.876C18.5423 32.7713 18.6869 32.7136 18.8369 32.7154H30.1183C30.2683 32.7136 30.4129 32.7713 30.5204 32.8759C30.6279 32.9806 30.6895 33.1235 30.6917 33.2735V36.0252L18.2635 36.0253ZM14.374 44.7324C14.3738 44.8824 14.3142 45.0262 14.2081 45.1323C14.102 45.2384 13.9582 45.298 13.8082 45.2982H7.85003C7.70002 45.298 7.55621 45.2384 7.45015 45.1323C7.34408 45.0262 7.28443 44.8824 7.28427 44.7324V41.5895H14.374L14.374 44.7324ZM41.6709 44.7324C41.6708 44.8824 41.6111 45.0262 41.505 45.1323C41.399 45.2384 41.2551 45.2981 41.1051 45.2982H35.147C34.997 45.298 34.8532 45.2384 34.7471 45.1323C34.6411 45.0262 34.5814 44.8824 34.5813 44.7324V41.5895H41.6709L41.6709 44.7324ZM45.1964 39.3906C45.1962 39.4765 45.1621 39.5588 45.1014 39.6195C45.0407 39.6802 44.9584 39.7143 44.8725 39.7145H4.08263C3.99678 39.7143 3.91448 39.6802 3.85379 39.6195C3.79309 39.5588 3.75895 39.4765 3.75885 39.3906V38.224C3.75895 38.1381 3.79309 38.0558 3.85379 37.9952C3.91449 37.9345 3.99679 37.9003 4.08263 37.9002H44.8725C44.9584 37.9003 45.0407 37.9345 45.1014 37.9952C45.1621 38.0558 45.1962 38.1381 45.1964 38.224V39.3906Z" fill="url(#paint0_linear_61_401)"/>
<path d="M10.7787 27.4503C10.1407 27.4549 9.51838 27.6483 8.99015 28.0062C8.46191 28.364 8.05144 28.8702 7.81048 29.4609C7.56952 30.0517 7.50886 30.7006 7.63616 31.3258C7.76346 31.9509 8.073 32.5244 8.52578 32.974C8.97855 33.4235 9.55427 33.7289 10.1804 33.8516C10.8065 33.9744 11.4549 33.9091 12.0439 33.6638C12.6329 33.4186 13.1361 33.0045 13.4901 32.4737C13.8441 31.9429 14.033 31.3191 14.033 30.6811C14.0289 29.8215 13.684 28.9985 13.0739 28.3928C12.4638 27.7872 11.6384 27.4482 10.7787 27.4503ZM10.7787 32.0369C10.5116 32.0324 10.2517 31.949 10.0318 31.7972C9.81187 31.6454 9.64169 31.4321 9.54261 31.1839C9.44354 30.9358 9.41999 30.6639 9.47492 30.4024C9.52985 30.1409 9.66082 29.9014 9.85137 29.7141C10.0419 29.5268 10.2836 29.4 10.546 29.3495C10.8084 29.2991 11.0798 29.3273 11.3262 29.4306C11.5727 29.5339 11.7831 29.7077 11.9311 29.9302C12.079 30.1527 12.158 30.4139 12.158 30.6811C12.1544 31.0437 12.0072 31.39 11.7487 31.6442C11.4901 31.8984 11.1413 32.0396 10.7787 32.0369Z" fill="url(#paint1_linear_61_401)"/>
<path d="M38.2772 33.9119C38.9152 33.9073 39.5375 33.7139 40.0657 33.3561C40.594 32.9983 41.0045 32.4921 41.2454 31.9013C41.4864 31.3105 41.547 30.6617 41.4197 30.0365C41.2924 29.4113 40.9829 28.8378 40.5301 28.3883C40.0774 27.9388 39.5016 27.6334 38.8755 27.5106C38.2494 27.3878 37.601 27.4531 37.012 27.6984C36.423 27.9436 35.9198 28.3577 35.5658 28.8885C35.2118 29.4193 35.0229 30.0431 35.0229 30.6811C35.027 31.5407 35.3719 32.3637 35.982 32.9694C36.5921 33.5751 37.4175 33.914 38.2772 33.9119ZM38.2772 29.3253C38.5443 29.3298 38.8042 29.4133 39.0241 29.565C39.244 29.7168 39.4142 29.9301 39.5133 30.1783C39.6124 30.4265 39.6359 30.6984 39.581 30.9599C39.526 31.2214 39.3951 31.4608 39.2045 31.6481C39.014 31.8354 38.7723 31.9623 38.5099 32.0127C38.2475 32.0632 37.9761 32.0349 37.7296 31.9316C37.4832 31.8283 37.2728 31.6545 37.1248 31.432C36.9769 31.2095 36.8979 30.9483 36.8979 30.6811C36.9015 30.3185 37.0487 29.9722 37.3072 29.718C37.5658 29.4639 37.9146 29.3226 38.2772 29.3253Z" fill="url(#paint2_linear_61_401)"/>
<path d="M16.3145 13.1744L16.9776 13.3948C17.1086 13.8299 17.277 14.2527 17.4808 14.6588L17.1689 15.253C17.0138 15.5475 16.9564 15.8837 17.005 16.213C17.0536 16.5423 17.2056 16.8476 17.4391 17.0848L18.303 17.9668C18.5346 18.2029 18.8342 18.3608 19.16 18.4184C19.4857 18.476 19.8212 18.4305 20.1198 18.2882L20.6747 18.0238C21.1793 18.3152 21.7141 18.5507 22.2698 18.7261L22.4492 19.2591C22.5553 19.573 22.7573 19.8456 23.0267 20.0385C23.2961 20.2314 23.6193 20.3349 23.9506 20.3343H25.1914C25.5228 20.3349 25.8461 20.2314 26.1155 20.0383C26.3849 19.8453 26.5868 19.5725 26.6928 19.2584L26.8398 18.8223C27.3783 18.6795 27.9007 18.4817 28.3987 18.232L28.7824 18.4303C29.0762 18.5815 29.4098 18.6375 29.7369 18.5904C30.064 18.5432 30.3682 18.3953 30.6073 18.1672L31.4994 17.3145C31.7406 17.0851 31.9027 16.7849 31.9621 16.4574C32.0216 16.1298 31.9753 15.7919 31.8301 15.4923L31.6797 15.1813C32.0311 14.5968 32.3054 13.9694 32.496 13.3147L32.8188 13.209C33.1346 13.1062 33.4098 12.9064 33.6053 12.6379C33.8007 12.3694 33.9063 12.0461 33.9071 11.714L33.9095 10.4862C33.9103 10.1541 33.8061 9.8302 33.6117 9.5609C33.4173 9.2916 33.1428 9.09065 32.8273 8.98677L32.5053 8.87975C32.3388 8.29949 32.1066 7.74015 31.8131 7.21262L31.9723 6.90903C32.1278 6.61451 32.1855 6.27815 32.137 5.94865C32.0886 5.61916 31.9365 5.31364 31.7028 5.07637L30.8402 4.19568C30.6084 3.95949 30.3088 3.80145 29.9831 3.7436C29.6573 3.68576 29.3216 3.73097 29.0227 3.87295L28.6337 4.05812C28.0667 3.74778 27.4645 3.50666 26.8401 3.33994L26.6929 2.90306C26.587 2.58895 26.3851 2.31605 26.1156 2.12295C25.8462 1.92984 25.5229 1.82628 25.1914 1.82691H23.9506C23.6191 1.82633 23.2959 1.92985 23.0265 2.12287C22.757 2.31589 22.555 2.58865 22.4489 2.90265L22.2697 3.43508C21.7966 3.58428 21.3382 3.77704 20.9007 4.0109L20.362 3.73255C20.0681 3.58016 19.734 3.52343 19.4063 3.57031C19.0787 3.6172 18.7739 3.76534 18.5345 3.99402L17.6423 4.84698C17.4012 5.07641 17.2392 5.37655 17.1798 5.70405C17.1204 6.03156 17.1666 6.36946 17.3118 6.66896L17.6032 7.27166C17.349 7.73736 17.1425 8.22757 16.987 8.73481L16.3235 8.95215C16.0076 9.05475 15.7322 9.25457 15.5367 9.52306C15.3412 9.79155 15.2355 10.115 15.2348 10.4471L15.2323 11.675C15.2316 12.0071 15.3358 12.331 15.5302 12.6003C15.7245 12.8696 15.999 13.0705 16.3145 13.1744ZM17.1094 10.6677L18.5524 10.195L18.6724 9.6816C18.8267 9.02073 19.0918 8.39076 19.4564 7.81841L19.7369 7.37758L19.0958 6.05131L19.6815 5.49146L20.9691 6.15683L21.4218 5.87429C21.9779 5.52677 22.586 5.27024 23.223 5.11438L23.7241 4.99179L24.1583 3.70191H24.9835L25.4037 4.94991L25.938 5.05469C26.7006 5.20335 27.4287 5.49351 28.0845 5.91016L28.522 6.18782L29.6439 5.65389L30.2102 6.23204L29.6526 7.29502L29.9524 7.75548C30.3599 8.38011 30.6489 9.07445 30.8049 9.80376L30.9172 10.3278L32.0341 10.6991L32.0325 11.4936L30.914 11.86L30.7994 12.3835C30.6276 13.1713 30.3008 13.917 29.8379 14.5772L29.5229 15.0275L30.0461 16.11L29.4602 16.67L28.3593 16.1012L27.9136 16.3628C27.3021 16.7207 26.6344 16.9723 25.9387 17.1068L25.4039 17.2112L24.9836 18.4593H24.1583L23.7242 17.1695L23.2231 17.0469C22.5215 16.8751 21.8556 16.581 21.256 16.1782L20.8127 15.8812L19.4981 16.5075L18.9316 15.9291L19.6165 14.6242L19.3511 14.1744C19.036 13.6402 18.8054 13.0605 18.6674 12.4558L18.5498 11.9417L17.1078 11.4622L17.1094 10.6677Z" fill="url(#paint3_linear_61_401)"/>
<path d="M24.5709 15.4216C27.0712 15.4216 29.1052 13.4742 29.1052 11.0807C29.1052 8.68712 27.0712 6.73979 24.5709 6.73979C23.932 6.73711 23.2995 6.86681 22.7132 7.12072C22.1269 7.37462 21.5996 7.74722 21.1645 8.21503C20.442 8.9947 20.0393 10.0177 20.0367 11.0807C20.0367 13.4742 22.0707 15.4216 24.5709 15.4216ZM22.5456 9.48318C22.8049 9.20644 23.1187 8.98641 23.4673 8.83695C23.8159 8.68749 24.1917 8.61184 24.5709 8.61476C26.0373 8.61476 27.2302 9.72094 27.2302 11.0806C27.2302 12.4403 26.0373 13.5465 24.5709 13.5465C23.1046 13.5465 21.9117 12.4404 21.9117 11.0807C21.9148 10.4875 22.1411 9.91718 22.5456 9.48318Z" fill="url(#paint4_linear_61_401)"/>
<defs>
<linearGradient id="paint0_linear_61_401" x1="24.4776" y1="13.5465" x2="24.4776" y2="47.1732" gradientUnits="userSpaceOnUse">
<stop stop-color="#61C8FF"/>
<stop offset="1" stop-color="#0170FF"/>
</linearGradient>
<linearGradient id="paint1_linear_61_401" x1="10.8021" y1="27.4503" x2="10.8021" y2="33.912" gradientUnits="userSpaceOnUse">
<stop stop-color="#61C8FF"/>
<stop offset="1" stop-color="#0170FF"/>
</linearGradient>
<linearGradient id="paint2_linear_61_401" x1="38.2538" y1="27.4502" x2="38.2538" y2="33.9119" gradientUnits="userSpaceOnUse">
<stop stop-color="#61C8FF"/>
<stop offset="1" stop-color="#0170FF"/>
</linearGradient>
<linearGradient id="paint3_linear_61_401" x1="24.5709" y1="1.8269" x2="24.5709" y2="20.3343" gradientUnits="userSpaceOnUse">
<stop stop-color="#61C8FF"/>
<stop offset="1" stop-color="#0170FF"/>
</linearGradient>
<linearGradient id="paint4_linear_61_401" x1="24.5709" y1="6.73975" x2="24.5709" y2="15.4216" gradientUnits="userSpaceOnUse">
<stop stop-color="#61C8FF"/>
<stop offset="1" stop-color="#0170FF"/>
</linearGradient>
</defs>
</svg>
