<svg width="49" height="49" viewBox="0 0 49 49" fill="none" xmlns="http://www.w3.org/2000/svg">
<g clip-path="url(#clip0_61_428)">
<path d="M10.0262 8.63197H6.07391C5.6855 8.63197 5.37078 8.94669 5.37078 9.33509V13.2875C5.37078 13.6759 5.6855 13.9906 6.07391 13.9906H10.0262C10.4146 13.9906 10.7293 13.6759 10.7293 13.2875V9.33509C10.7293 8.94678 10.4146 8.63197 10.0262 8.63197ZM9.32309 12.5844H6.77703V10.0382H9.32309V12.5844ZM17.6858 8.63197H13.7334C13.345 8.63197 13.0303 8.94669 13.0303 9.33509V13.2875C13.0303 13.6759 13.345 13.9906 13.7334 13.9906H17.6858C18.0742 13.9906 18.3889 13.6759 18.3889 13.2875V9.33509C18.3889 8.94678 18.0741 8.63197 17.6858 8.63197ZM16.9827 12.5844H14.4365V10.0382H16.9827V12.5844ZM21.3927 13.9906H25.3451C25.7335 13.9906 26.0482 13.6759 26.0482 13.2875V9.33509C26.0482 8.94669 25.7335 8.63197 25.3451 8.63197H21.3927C21.0043 8.63197 20.6896 8.94669 20.6896 9.33509V13.2875C20.6896 13.6759 21.0043 13.9906 21.3927 13.9906ZM22.0959 10.0382H24.6419V12.5844H22.0959V10.0382ZM10.0262 16.5897H6.07391C5.6855 16.5897 5.37078 16.9044 5.37078 17.2928V21.2452C5.37078 21.6336 5.6855 21.9483 6.07391 21.9483H10.0262C10.4146 21.9483 10.7293 21.6336 10.7293 21.2452V17.2928C10.7293 16.9044 10.4146 16.5897 10.0262 16.5897ZM9.32309 20.5421H6.77703V17.9959H9.32309V20.5421ZM17.6858 16.5897H13.7334C13.345 16.5897 13.0303 16.9044 13.0303 17.2928V21.2452C13.0303 21.6336 13.345 21.9483 13.7334 21.9483H17.6858C18.0742 21.9483 18.3889 21.6336 18.3889 21.2452V17.2928C18.3889 16.9044 18.0741 16.5897 17.6858 16.5897ZM16.9827 20.5421H14.4365V17.9959H16.9827V20.5421ZM21.3927 21.9483H25.3451C25.7335 21.9483 26.0482 21.6336 26.0482 21.2452V17.2928C26.0482 16.9044 25.7335 16.5897 25.3451 16.5897H21.3927C21.0043 16.5897 20.6896 16.9044 20.6896 17.2928V21.2452C20.6896 21.6336 21.0043 21.9483 21.3927 21.9483ZM22.0959 17.9959H24.6419V20.5421H22.0959V17.9959ZM10.0262 24.5473H6.07391C5.6855 24.5473 5.37078 24.8621 5.37078 25.2505V29.2029C5.37078 29.5913 5.6855 29.906 6.07391 29.906H10.0262C10.4146 29.906 10.7293 29.5913 10.7293 29.2029V25.2505C10.7293 24.8621 10.4146 24.5473 10.0262 24.5473ZM9.32309 28.4998H6.77703V25.9536H9.32309V28.4998ZM17.6858 24.5473H13.7334C13.345 24.5473 13.0303 24.8621 13.0303 25.2505V29.2029C13.0303 29.5913 13.345 29.906 13.7334 29.906H17.6858C18.0742 29.906 18.3889 29.5913 18.3889 29.2029V25.2505C18.3889 24.8621 18.0741 24.5473 17.6858 24.5473ZM16.9827 28.4998H14.4365V25.9536H16.9827V28.4998ZM26.0482 29.2029V25.2505C26.0482 24.8621 25.7335 24.5473 25.3451 24.5473H21.3927C21.0043 24.5473 20.6896 24.8621 20.6896 25.2505V29.2029C20.6896 29.5913 21.0043 29.906 21.3927 29.906H25.3451C25.7334 29.906 26.0482 29.5913 26.0482 29.2029ZM24.6419 28.4998H22.0959V25.9536H24.6419V28.4998ZM47.2927 33.439H46.0107C45.5194 33.439 45.1139 33.1679 44.9259 32.7141C44.7378 32.2603 44.8331 31.782 45.1805 31.4347L46.0872 30.528C46.6355 29.9794 46.6355 29.0868 46.0871 28.5381L44.1654 26.6164C43.9001 26.3512 43.5467 26.2051 43.1704 26.2051C42.7939 26.2051 42.4406 26.3513 42.1755 26.6164L41.2688 27.523C40.9215 27.8703 40.4432 27.9655 39.9893 27.7776C39.5354 27.5896 39.2646 27.1841 39.2646 26.6928V25.4107C39.2646 24.6348 38.6334 24.0036 37.8574 24.0036H35.1398C34.3639 24.0036 33.7327 24.6347 33.7327 25.4107V26.6928C33.7327 27.1841 33.4617 27.5895 33.0079 27.7775C32.5539 27.9657 32.0756 27.8703 31.7284 27.523L30.8218 26.6164C30.7342 26.5288 30.6363 26.4556 30.5319 26.3951V5.03225C30.5319 4.64384 30.2172 4.32913 29.8288 4.32913H25.8925V1.29688C25.8925 0.908469 25.5778 0.59375 25.1893 0.59375H6.22991C5.8415 0.59375 5.52678 0.908469 5.52678 1.29688V4.32913H1.5905C1.20209 4.32913 0.887375 4.64384 0.887375 5.03225V47.7031C0.887375 48.0915 1.20209 48.4062 1.5905 48.4062H29.8286C30.217 48.4062 30.5317 48.0915 30.5317 47.7031V46.0143C30.6352 45.9544 30.7332 45.8818 30.8217 45.7934L31.7282 44.8869C32.0756 44.5394 32.5541 44.4442 33.0077 44.6323C33.4616 44.8203 33.7325 45.2258 33.7325 45.717V46.9992C33.7325 47.775 34.3636 48.4062 35.1396 48.4062H37.8572C38.6331 48.4062 39.2644 47.7751 39.2644 46.9992V45.717C39.2644 45.2258 39.5353 44.8202 39.9891 44.6322C40.4429 44.4445 40.9212 44.5394 41.2687 44.8869L42.1752 45.7934C42.7238 46.342 43.6164 46.342 44.1653 45.7934L46.0871 43.8717C46.6355 43.3229 46.6355 42.4303 46.087 41.8817L45.1804 40.9752C44.833 40.6278 44.7377 40.1494 44.9257 39.6957C45.1138 39.2418 45.5192 38.9709 46.0105 38.9709H47.2926C48.0685 38.9709 48.6998 38.3397 48.6998 37.5637V34.8461C48.6999 34.0701 48.0687 33.439 47.2927 33.439ZM6.93303 2H24.4859V4.32913H6.93303V2ZM22.6658 47H16.4127V35.0491H22.6658V47ZM15.0064 47H8.75328V35.0491H15.0063L15.0064 47ZM24.072 47V34.346C24.072 33.9576 23.7573 33.6429 23.3689 33.6429H8.05016C7.66175 33.6429 7.34703 33.9576 7.34703 34.346V47H2.29362V5.73538H29.1254V26.3926C29.0195 26.4537 28.9203 26.5277 28.8316 26.6163L26.9099 28.538C26.6447 28.8033 26.4987 29.1567 26.4987 29.533C26.4987 29.9093 26.6447 30.2626 26.9099 30.5279L27.8165 31.4345C28.1639 31.7818 28.2591 32.2602 28.0711 32.7139C27.8831 33.1678 27.4775 33.4388 26.9863 33.4388H25.7042C24.9283 33.4388 24.2971 34.0699 24.2971 34.8459V37.5635C24.2971 38.3394 24.9283 38.9707 25.7042 38.9707H26.9863C27.4776 38.9707 27.8831 39.2416 28.071 39.6955C28.2591 40.1493 28.1638 40.6276 27.8165 40.975L26.91 41.8814C26.6448 42.1467 26.4987 42.5001 26.4987 42.8765C26.4987 43.2529 26.6447 43.6062 26.9099 43.8715L28.8316 45.7932C28.9212 45.8827 29.0205 45.9561 29.1254 46.0164V47H24.072ZM47.2927 37.5645H46.0106C44.9471 37.5645 44.0336 38.1749 43.6265 39.1574C43.2196 40.1399 43.4339 41.2175 44.186 41.9696L45.0926 42.8773L43.1697 44.7989L42.2631 43.8925C41.5111 43.1405 40.4338 42.9259 39.451 43.333C38.4686 43.7399 37.8582 44.6534 37.8582 45.717L37.8573 47L35.1388 46.9992V45.717C35.1388 44.6534 34.5284 43.74 33.5459 43.3331C33.2167 43.1967 32.8768 43.13 32.5421 43.13C31.8779 43.13 31.2339 43.3924 30.7338 43.8924L29.8261 44.7989L27.9044 42.8761L28.811 41.9695C29.563 41.2175 29.7773 40.1398 29.3704 39.1574C28.9634 38.1749 28.0499 37.5645 26.9863 37.5645L25.7034 37.5636L25.7042 34.8451H26.9863C28.0498 34.8451 28.9632 34.2347 29.3704 33.2522C29.7774 32.2697 29.563 31.1921 28.811 30.4401L27.9044 29.5324L29.8272 27.6107L30.7338 28.5173C31.4858 29.2692 32.5632 29.4835 33.5459 29.0767C34.5284 28.6696 35.1388 27.7562 35.1388 26.6926L35.1395 25.4097L37.8582 25.4105V26.6926C37.8582 27.7562 38.4687 28.6697 39.4511 29.0767C40.4337 29.4834 41.5111 29.2693 42.2631 28.5173L43.171 27.6107L45.0927 29.5335L44.1862 30.4401C43.434 31.1921 43.2196 32.2697 43.6267 33.2522C44.0337 34.2347 44.9472 34.8451 46.0107 34.8451L47.2936 34.846L47.2927 37.5645ZM36.4985 29.8237C32.98 29.8237 30.1174 32.6862 30.1174 36.2049C30.1174 39.7235 32.98 42.5861 36.4985 42.5861C40.0171 42.5861 42.8797 39.7235 42.8797 36.2049C42.8797 32.6862 40.0171 29.8237 36.4985 29.8237ZM36.4985 41.1799C33.7553 41.1799 31.5237 38.9481 31.5237 36.205C31.5237 33.4618 33.7554 31.23 36.4985 31.23C39.2416 31.23 41.4734 33.4618 41.4734 36.205C41.4734 38.9481 39.2416 41.1799 36.4985 41.1799ZM38.7059 37.5809C38.7059 38.5281 38.0693 39.3293 37.2015 39.5793V39.8892C37.2015 40.2776 36.8868 40.5923 36.4984 40.5923C36.11 40.5923 35.7953 40.2776 35.7953 39.8892V39.5379C34.9938 39.2489 34.4192 38.4808 34.4192 37.581C34.4192 37.1926 34.7339 36.8779 35.1223 36.8779C35.5107 36.8779 35.8255 37.1926 35.8255 37.581C35.8255 37.9521 36.1273 38.254 36.4984 38.254H36.6267C36.9977 38.254 37.2997 37.952 37.2997 37.5809C37.2997 37.2099 36.9977 36.908 36.6267 36.908H36.3702C35.2237 36.908 34.291 35.9753 34.291 34.8287C34.291 33.8816 34.9275 33.0804 35.7953 32.8304V32.5205C35.7953 32.1321 36.11 31.8174 36.4984 31.8174C36.8868 31.8174 37.2015 32.1321 37.2015 32.5205V32.8719C38.003 33.1608 38.5776 33.9289 38.5776 34.8287C38.5776 35.2171 38.2629 35.5318 37.8745 35.5318C37.4861 35.5318 37.1713 35.2171 37.1713 34.8287C37.1713 34.4577 36.8695 34.1558 36.4984 34.1558H36.3702C35.9991 34.1558 35.6972 34.4577 35.6972 34.8287C35.6972 35.1998 35.9991 35.5017 36.3702 35.5017H36.6267C37.7732 35.5018 38.7059 36.4346 38.7059 37.5809Z" fill="url(#paint0_linear_61_428)"/>
</g>
<defs>
<linearGradient id="paint0_linear_61_428" x1="24.7936" y1="0.59375" x2="24.7936" y2="48.4062" gradientUnits="userSpaceOnUse">
<stop stop-color="#61C8FF"/>
<stop offset="1" stop-color="#0170FF"/>
</linearGradient>
<clipPath id="clip0_61_428">
<rect width="48" height="48" fill="white" transform="translate(0.793625 0.5)"/>
</clipPath>
</defs>
</svg>
