<svg width="48" height="48" viewBox="0 0 48 48" fill="none" xmlns="http://www.w3.org/2000/svg">
<g clip-path="url(#clip0_61_162)">
<path d="M47.2969 39.5535C46.9085 39.5535 46.5938 39.8683 46.5938 40.2567V44.9547C46.5938 45.02 46.5407 45.0732 46.4753 45.0732H43.8037V34.8003C43.8037 34.412 43.4889 34.0972 43.1005 34.0972C42.7121 34.0972 42.3974 34.412 42.3974 34.8003V45.0732H37.2346L38.632 43.536C38.8478 43.2986 38.9495 42.9613 38.9042 42.6339C38.9032 42.6268 38.9021 42.6199 38.9009 42.6129L37.3301 33.332L37.6192 32.8969L37.6945 32.9504C37.9522 33.1335 38.2809 33.2002 38.5989 33.1208C38.9111 33.0427 39.1728 32.8326 39.3166 32.5446V32.5445L40.915 29.341L44.566 30.755C44.7101 30.8176 46.5934 31.6812 46.5934 33.928V36.9752C46.5935 37.3636 46.9082 37.6784 47.2966 37.6784C47.685 37.6784 47.9997 37.3636 47.9997 36.9753V33.9281C47.9997 30.6834 45.2168 29.5021 45.0984 29.4533C45.0938 29.4514 45.0894 29.4496 45.0849 29.448L38.8677 27.0401V25.7595C39.8382 24.9787 40.5198 23.8534 40.7245 22.5707C41.2085 22.5099 41.6575 22.3161 42.0302 21.9956C42.5646 21.536 42.8712 20.8673 42.8712 20.1611C42.8712 19.5974 42.6756 19.058 42.3252 18.6295V16.7322C42.3252 13.0191 39.3044 9.99844 35.5916 9.99844C33.9246 9.99844 32.3983 10.6086 31.2211 11.6156C31.2059 11.0768 31.0131 10.5635 30.677 10.1525V8.25525C30.677 4.5422 27.6562 1.52148 23.9433 1.52148C20.2303 1.52148 17.2096 4.54229 17.2096 8.25525V10.202C16.8716 10.6058 16.6825 11.0928 16.6658 11.6096C15.9147 10.9677 15.0157 10.4844 14.0138 10.2206C13.6377 10.1216 13.2536 10.346 13.1547 10.7215C13.0558 11.0971 13.28 11.4817 13.6556 11.5807C15.9912 12.1957 17.6224 14.3141 17.6224 16.7321V17.7837C17.5921 17.7774 17.4946 17.7606 17.4908 17.7601C17.4812 17.5616 17.431 17.4404 17.3228 17.2848C17.1428 17.0261 16.8196 16.7039 15.7799 15.5864C15.4094 15.1884 14.8101 15.1154 14.3553 15.4128C12.5745 16.576 10.411 17.1689 8.40326 17.051C7.74927 17.0127 7.3408 17.3 7.16671 17.771C7.15114 17.7735 6.97724 17.8085 6.96758 17.8109V16.7321C6.96758 14.4006 8.52552 12.3032 10.7561 11.6313C11.1279 11.5193 11.3386 11.1271 11.2266 10.7552C11.1146 10.3833 10.7218 10.1726 10.3504 10.2847C8.99389 10.6933 7.77449 11.544 6.91714 12.6799C6.02999 13.8549 5.56115 15.2562 5.56115 16.7322V18.679C5.20696 19.1022 5.01543 19.6165 5.01543 20.1611C5.01543 21.3649 5.9023 22.4147 7.16586 22.5712C7.37286 23.824 8.05255 25.0254 9.12523 25.8423V27.0405L2.91496 29.4482C2.91056 29.4498 2.90615 29.4516 2.90174 29.4534C2.78306 29.5021 0 30.6833 0 33.928V44.9547C0 45.7956 0.683999 46.4795 1.52484 46.4795H23.1783C23.481 46.4795 23.7625 46.3898 24 46.2371C24.2374 46.3898 24.519 46.4795 24.8218 46.4795H46.4753C47.3161 46.4795 48.0001 45.7956 48.0001 44.9547V40.2567C48 39.8683 47.6853 39.5535 47.2969 39.5535ZM7.09705 21.1184C6.68483 20.9688 6.42149 20.5875 6.42149 20.1609C6.42149 19.7472 6.72149 19.4073 7.09705 19.2459V21.1184ZM39.598 28.8309L38.2178 31.5971C38.2176 31.5969 36.6847 30.5082 36.6629 30.4927C37.3242 29.6763 37.0136 30.0599 38.3887 28.3626L39.598 28.8309ZM35.6465 29.5132L33.828 27.2686V26.594C34.4191 26.7984 35.0559 26.8927 35.6552 26.8929C35.6553 26.8929 35.6555 26.8929 35.6556 26.8929H35.6557C36.2754 26.8928 36.9027 26.7752 37.4615 26.5649V27.2729L35.6465 29.5132ZM36.4721 32.0822L36.2134 32.4716H35.0799L34.8212 32.0822L35.6467 31.496L36.4721 32.0822ZM23.9982 21.0362L22.1797 18.7915V18.117C22.7685 18.3205 23.4045 18.4157 24.0069 18.4159C24.007 18.4159 24.0072 18.4159 24.0073 18.4159H24.0074C24.6259 18.4159 25.2532 18.2986 25.8132 18.0879V18.7958L23.9982 21.0362ZM24.8236 23.6054L24.565 23.9947H23.4315L23.1728 23.6054L23.9983 23.0192L24.8236 23.6054ZM18.461 14.0268C18.576 14.0581 18.6941 14.0794 18.814 14.0942C19.021 15.347 19.7007 16.5484 20.7734 17.3652V18.5634L19.3389 19.1195C19.2557 18.9448 19.1518 18.7803 19.0284 18.6294V16.7322C19.0284 15.778 18.8274 14.8608 18.461 14.0268ZM27.7346 13.2822C27.7346 15.3403 26.0557 17.0093 24.0074 17.0093C21.6963 17.0093 20.1519 15.2182 20.1519 13.2822V9.98859C22.3722 10.0775 24.6787 9.41944 26.5645 8.24569C27.1985 8.92556 27.5758 9.32053 27.7347 9.50391C27.7346 11.2545 27.7346 11.9304 27.7346 13.2822ZM29.0762 14.0937C29.1955 14.0787 29.313 14.0573 29.4273 14.0261C29.0621 14.8549 28.8577 15.7699 28.8577 16.7322V18.6789C28.7496 18.808 28.6566 18.9455 28.5796 19.0898L27.2195 18.5631V17.2825C28.1899 16.5017 28.8716 15.3764 29.0762 14.0937ZM21.2536 19.8867L22.9797 22.0173L21.8026 22.8533C21.8019 22.8538 21.8014 22.8543 21.8008 22.8547L21.4272 23.1201L20.0469 20.354L21.2536 19.8867ZM25.6165 21.2727L26.7403 19.8856L27.9495 20.3539L26.5694 23.1201L26.195 22.8543C26.1946 22.854 26.1943 22.8536 26.1939 22.8533L25.0146 22.0157L25.6165 21.2727ZM25.9709 24.42L26.0461 24.4734C26.309 24.6602 26.6389 24.7218 26.9505 24.6438C27.2628 24.5658 27.5245 24.3557 27.6683 24.0677V24.0676L28.855 21.6892C29.2627 22.1917 29.8524 22.4974 30.4597 22.5732C30.6742 23.9176 31.4008 25.0649 32.4218 25.8423V27.0404L26.4439 29.358L25.6817 24.8552L25.9709 24.42ZM32.9019 28.3637L34.628 30.4942C33.8733 31.0304 33.1146 31.5693 33.0755 31.5971L31.6952 28.831L32.9019 28.3637ZM39.3828 21.7593C39.383 23.7671 37.7524 25.4864 35.6557 25.4864C33.2658 25.4864 31.8002 23.6146 31.8002 21.7593V18.4656C34.0047 18.5537 36.3142 17.9044 38.2127 16.7227C38.8467 17.4026 39.224 17.7976 39.3829 17.981C39.3828 19.7315 39.3828 20.4075 39.3828 21.7593ZM41.465 20.161C41.465 20.5883 41.2008 20.9689 40.7894 21.1184V19.2056C41.2147 19.3605 41.465 19.7491 41.465 20.161ZM30.264 16.7321C30.264 13.7946 32.654 11.4047 35.5915 11.4047C38.529 11.4047 40.9188 13.7946 40.9188 16.7321V17.7837C40.8868 17.777 40.7989 17.7619 40.7872 17.7601C40.7776 17.5614 40.7271 17.4399 40.6192 17.2848C40.4344 17.0194 40.1147 16.7027 39.0762 15.5864C38.7136 15.1971 38.1157 15.1095 37.6516 15.4128C35.9191 16.5445 33.7302 17.1838 31.6474 17.0485C31.0623 17.0102 30.6385 17.2967 30.4631 17.771C30.4474 17.7736 30.2738 17.8086 30.2639 17.811L30.264 16.7321ZM30.3939 19.246V21.1174C29.9804 20.9684 29.7183 20.5861 29.7183 20.1609C29.7182 19.7472 30.018 19.4074 30.3939 19.246ZM29.8165 11.6841C29.8165 11.9801 29.6883 12.2602 29.4649 12.4522C29.369 12.5347 29.2597 12.5981 29.1409 12.6413V10.7286C29.5614 10.8812 29.8165 11.2677 29.8165 11.6841ZM23.943 2.92773C26.8806 2.92773 29.2705 5.3176 29.2705 8.25516V9.30675C29.2387 9.30019 29.1506 9.28491 29.1389 9.28313C29.1284 9.06778 29.0664 8.93541 28.9397 8.76413C28.7515 8.50931 28.4044 8.15897 27.4279 7.10935C27.0592 6.71344 26.4603 6.63704 26.0033 6.93572C24.1737 8.13103 21.9541 8.71275 19.9424 8.56866C19.4502 8.53144 18.9868 8.82881 18.8148 9.29391C18.7992 9.29644 18.6255 9.3315 18.6157 9.33384V8.25525C18.6157 5.3176 21.0056 2.92773 23.943 2.92773ZM18.7454 10.769V12.6414C18.3332 12.4918 18.0698 12.1105 18.0698 11.684C18.0698 11.2726 18.3675 10.9314 18.7454 10.769ZM17.4925 19.2056C17.8859 19.3488 18.1385 19.692 18.1636 20.0999C18.1951 20.5534 17.9163 20.9636 17.4925 21.1175V19.2056ZM17.4273 22.573C18.0905 22.49 18.6992 22.1405 19.0984 21.6029L20.3282 24.0676C20.3282 24.0676 20.3282 24.0676 20.3283 24.0677C20.4721 24.3558 20.7337 24.5658 21.046 24.6438C21.3547 24.721 21.685 24.6619 21.9504 24.4734L22.0257 24.42L22.3147 24.8551L21.5528 29.3566L15.5712 27.04V25.7599H15.5711C16.567 24.957 17.2275 23.8224 17.4273 22.573ZM12.3497 29.5132L10.5312 27.2686V26.594C11.1199 26.7976 11.7561 26.8927 12.3585 26.8928C12.3586 26.8928 12.3588 26.8928 12.3589 26.8928C12.9875 26.8928 13.6138 26.7721 14.1647 26.5649V27.2729L12.3497 29.5132ZM13.1752 32.0822L12.9166 32.4716H11.783L11.5244 32.0822L12.3499 31.496L13.1752 32.0822ZM15.0918 28.3626L16.3011 28.831L14.9209 31.5971L14.5465 31.3312C14.5461 31.3309 14.5458 31.3306 14.5454 31.3303L13.3661 30.4927L15.0918 28.3626ZM8.50339 21.7593V18.4656C10.7355 18.5548 13.0435 17.888 14.9159 16.7227C15.5439 17.3962 15.927 17.7974 16.0861 17.981C16.0861 19.7315 16.0861 20.4076 16.0861 21.7593C16.0861 23.8042 14.4187 25.4864 12.3589 25.4864C10.0654 25.4864 8.50339 23.7157 8.50339 21.7593ZM9.60514 28.3637L11.3313 30.4942L10.1541 31.3303C10.1535 31.3307 10.153 31.3312 10.1524 31.3317L9.77876 31.5971L8.39848 28.831L9.60514 28.3637ZM5.60277 45.0733V34.8003C5.60277 34.412 5.28805 34.0972 4.89965 34.0972C4.51124 34.0972 4.19652 34.412 4.19652 34.8003V45.0732H1.52484C1.4594 45.0732 1.40634 45.0201 1.40634 44.9548V33.928C1.40634 31.6696 3.30918 30.8088 3.43237 30.7556L7.0812 29.341L8.67973 32.5445C8.67973 32.5445 8.67973 32.5445 8.67983 32.5446C8.82355 32.8327 9.0852 33.0427 9.39758 33.1208C9.70629 33.198 10.0366 33.1389 10.302 32.9504L10.3773 32.8969L10.6663 33.332L9.09551 42.6129C9.09429 42.6198 9.09326 42.6268 9.09223 42.6339C9.04705 42.9612 9.14876 43.2984 9.36467 43.5362L10.7618 45.0732H5.60277V45.0733ZM10.5068 42.7017L12.0002 33.8779H12.6994L14.1929 42.7017L12.3499 44.7293L10.5068 42.7017ZM23.2967 44.9547C23.2967 45.0201 23.2437 45.0732 23.1783 45.0732H20.5068V34.8003C20.5068 34.412 20.1921 34.0972 19.8037 34.0972C19.4153 34.0972 19.1006 34.412 19.1006 34.8003V45.0732H13.9378L15.3351 43.536C15.5509 43.2986 15.6527 42.9613 15.6074 42.6339C15.6063 42.6268 15.6053 42.6199 15.6041 42.6129L14.0333 33.332L14.3223 32.8969L14.3976 32.9504C14.5858 33.084 14.8085 33.1538 15.0346 33.1538C15.447 33.1538 15.8311 32.9227 16.0199 32.5446V32.5445L17.6182 29.3411L21.2693 30.7551C22.3336 31.2181 23.2966 32.412 23.2966 33.928L23.2967 44.9547ZM24 31.3729C23.7087 30.9036 23.3209 30.4694 22.8535 30.0988L23.6486 25.4011H24.3479L25.1433 30.1012C24.6634 30.4823 24.2807 30.9205 24 31.3729ZM28.8995 45.0733V34.8003C28.8995 34.412 28.5848 34.0972 28.1964 34.0972C27.808 34.0972 27.4933 34.412 27.4933 34.8003V45.0732H24.8217C24.7563 45.0732 24.7032 45.0201 24.7032 44.9548V33.928C24.7032 33.0921 24.9653 32.3222 25.5237 31.6755C25.896 31.2484 26.3897 30.9027 26.7293 30.7556L30.3781 29.3409L31.9767 32.5445C31.9767 32.5445 31.9767 32.5445 31.9768 32.5446C32.1205 32.8327 32.3821 33.0427 32.6944 33.1208C33.0031 33.198 33.3334 33.1389 33.5988 32.9504L33.6741 32.8969L33.9631 33.332L32.3923 42.6129C32.3911 42.6198 32.3901 42.6268 32.3891 42.6339C32.3439 42.9612 32.4456 43.2984 32.6615 43.5362L34.0587 45.0732H28.8995V45.0733ZM33.8036 42.7018L35.297 33.878H35.9963L37.4897 42.7018L35.6466 44.7294L33.8036 42.7018Z" fill="url(#paint0_linear_61_162)"/>
</g>
<defs>
<linearGradient id="paint0_linear_61_162" x1="24" y1="1.52148" x2="24" y2="46.4795" gradientUnits="userSpaceOnUse">
<stop stop-color="#2989D8"/>
<stop offset="1" stop-color="#006DFF"/>
</linearGradient>
<clipPath id="clip0_61_162">
<rect width="48" height="48" fill="white"/>
</clipPath>
</defs>
</svg>
