<svg width="49" height="48" viewBox="0 0 49 48" fill="none" xmlns="http://www.w3.org/2000/svg">
<g clip-path="url(#clip0_491_113)">
<path d="M18.8753 0C17.4341 0 16.2518 1.18231 16.2518 2.62351C16.2517 4.75217 16.2518 6.87322 16.2518 9.00284H7.24896C5.1866 9.00284 3.50193 10.6877 3.50193 12.7499V21.7512C3.50193 23.5796 4.05041 25.2824 4.9902 26.7038C4.66382 26.8914 4.33731 27.1714 3.94431 27.5695C3.38423 28.137 3.05496 28.5626 2.90282 29.0476C2.75068 29.5325 2.87141 29.9957 2.99803 30.2883C3.11241 30.5526 3.17759 30.6885 3.19725 30.9137C3.21692 31.139 3.19052 31.4918 2.94237 32.1032C2.6942 32.7146 2.47023 32.9854 2.29931 33.133C2.12838 33.2805 1.9879 33.3257 1.72363 33.4376C1.45936 33.5496 1.04631 33.7493 0.789068 34.2462C0.556133 34.6962 0.493642 35.2227 0.500497 36.007C0.494969 36.7794 0.558145 37.3058 0.789068 37.7516C1.02213 38.2015 1.36437 38.4023 1.72363 38.5587C1.98679 38.6732 2.12838 38.7158 2.29931 38.8634C2.47023 39.0109 2.6942 39.2817 2.94237 39.8931C3.19053 40.5046 3.2169 40.853 3.19725 41.0782C3.17757 41.3034 3.11679 41.4437 2.99803 41.7095C2.85695 42.0253 2.75068 42.4653 2.90282 42.9502C3.05495 43.4352 3.38423 43.8608 3.94431 44.4283C4.50438 44.9957 4.92829 45.3267 5.4106 45.4859C5.89291 45.645 6.32688 45.5416 6.64545 45.4126C6.91581 45.3032 7.05453 45.241 7.28265 45.2251C7.51077 45.2092 7.86332 45.2441 8.47356 45.502C9.08379 45.7598 9.35689 45.9875 9.50333 46.1611C9.64978 46.3348 9.69368 46.4787 9.80655 46.7471C9.91943 47.0155 10.1249 47.4273 10.6151 47.6831C11.0655 47.9181 11.5993 47.9927 12.3978 47.9995C13.1964 48.0063 13.7321 47.944 14.1864 47.7168C14.6406 47.4896 14.8678 47.1302 15.0111 46.7925C15.1248 46.5245 15.1781 46.3821 15.3275 46.211C15.4769 46.0398 15.7471 45.8153 16.3617 45.5679C16.9762 45.3205 17.3306 45.2933 17.5584 45.313C17.7862 45.3329 17.9241 45.4035 18.1942 45.5137C18.4642 45.6239 18.9224 45.7724 19.429 45.6016C19.7703 45.4866 20.0894 45.2999 20.4471 44.9981H43.9927C45.6417 44.9981 46.9927 43.6456 46.9927 41.9967V26.7258C47.9432 25.3001 48.5 23.5895 48.5 21.7512V12.7499C48.5 10.6877 46.808 9.00284 44.7456 9.00284H36.2394C36.4042 8.65979 36.4957 8.27503 36.4957 7.87199C36.4957 7.16357 36.2105 6.51914 35.7487 6.04535V4.50142C35.7487 3.26787 34.7293 2.24705 33.4958 2.24705H32.7209C32.5361 0.982212 31.4384 0 30.1252 0C29.3937 0 28.7292 0.305356 28.2517 0.793937C27.7741 0.30515 27.1098 0 26.3782 0C25.6461 0 24.9792 0.306176 24.5002 0.795402C24.0226 0.305751 23.3562 0 22.6238 0C21.8925 0 21.2278 0.305575 20.7503 0.793937C20.2727 0.30515 19.607 0 18.8753 0ZM18.8753 1.49998C19.5115 1.49998 19.9988 1.98732 19.9988 2.62351V4.87788C19.9988 5.51407 19.5115 6.0014 18.8753 6.0014C18.2391 6.0014 17.7518 5.51407 17.7518 4.87788C17.7518 4.12642 17.7518 3.37497 17.7518 2.62351C17.7518 1.98732 18.2391 1.49998 18.8753 1.49998ZM22.6238 1.49998C23.26 1.49998 23.7473 1.98732 23.7473 2.62351V4.87788C23.7473 5.51407 23.26 6.0014 22.6238 6.0014C21.9876 6.0014 21.5003 5.51407 21.5003 4.87788V2.62351C21.5003 1.98732 21.9876 1.49998 22.6238 1.49998ZM26.3782 1.49998C27.0143 1.49998 27.5017 1.98732 27.5017 2.62351V4.87788C27.5017 5.51407 27.0143 6.0014 26.3782 6.0014C25.742 6.0014 25.2473 5.51407 25.2473 4.87788V2.62351C25.2473 1.98732 25.742 1.49998 26.3782 1.49998ZM30.1252 1.49998C30.7614 1.49998 31.2472 1.98732 31.2472 2.62351V4.87788C31.2132 5.64934 30.6689 5.96873 30.1252 6.0014C29.5305 6.0014 29.0017 5.51407 29.0017 4.87788V2.62351C29.0017 1.98732 29.489 1.49998 30.1252 1.49998ZM32.7487 3.7485H33.4958C33.9245 3.7485 34.2487 4.07306 34.2487 4.50142V5.27631C34.1257 5.2584 33.9999 5.24848 33.8722 5.24848H32.7209C32.7384 5.12711 32.7486 5.00381 32.7486 4.87788L32.7487 3.7485ZM24.5002 6.70599C24.9793 7.19543 25.6459 7.50139 26.3782 7.50139C27.11 7.50139 27.7741 7.19646 28.2517 6.70745C28.6527 7.11797 29.1855 7.40001 29.7795 7.47942C29.7599 7.60784 29.7487 7.73838 29.7487 7.87199C29.7487 8.27505 29.8417 8.65978 30.0065 9.00284H17.7518V7.24651C18.0931 7.41001 18.474 7.50139 18.8753 7.50139C19.6068 7.50139 20.2728 7.19748 20.7503 6.70892C21.2278 7.19704 21.8927 7.50139 22.6238 7.50139C23.3564 7.50139 24.0226 7.19587 24.5002 6.70599ZM32.3722 6.74847H33.8722C34.5084 6.74847 34.9957 7.2358 34.9957 7.87199C34.9957 8.50818 34.5084 9.00284 33.8722 9.00284H32.3722C31.736 9.00284 31.2472 8.50818 31.2472 7.87199C31.2716 7.16621 31.8133 6.75375 32.3722 6.74847ZM7.24896 10.5028H44.7456C45.9976 10.5028 46.9985 11.4985 46.9985 12.7499V21.7512C46.9985 23.4401 46.4448 24.9965 45.5 26.2571C44.1252 28.0793 41.9511 29.2468 39.4972 29.2468H38.7501V28.4997C38.7501 27.2662 37.7292 26.2468 36.4957 26.2468H33.5016C32.2682 26.2468 31.2472 27.2662 31.2472 28.4997V29.2468H29.6989L29.7487 27.1989C29.7603 26.7733 29.4157 26.4233 28.9899 26.4284L23.7092 26.5017C23.1019 26.5099 22.7558 27.1989 23.1116 27.6911L23.9143 28.7927L21.8108 30.3527C21.8548 30.2521 21.9058 30.1386 21.9588 29.9836C22.0589 29.6909 22.1101 29.208 21.9324 28.7707C21.7547 28.3334 21.4367 27.9389 20.9129 27.426C20.3432 26.8682 19.9122 26.5526 19.429 26.3962C18.8952 26.2235 18.4642 26.3738 18.1942 26.4841C17.9241 26.5943 17.7862 26.6636 17.5584 26.6833C17.3306 26.7032 16.9762 26.676 16.3617 26.4285C15.7471 26.181 15.4769 25.958 15.3275 25.7869C15.1781 25.6157 15.1285 25.4718 15.0111 25.2053C14.8936 24.9389 14.6754 24.5135 14.1864 24.281C13.7277 24.0629 13.1964 23.9915 12.3978 23.9983C11.5993 24.0051 11.0662 24.0812 10.6151 24.3147C10.127 24.5674 9.91943 24.9809 9.80655 25.2493C9.69368 25.5177 9.64978 25.663 9.50333 25.8367C9.35689 26.0103 9.08378 26.238 8.47356 26.4958C7.86332 26.7537 7.51077 26.7885 7.28265 26.7727C7.11385 26.7611 6.99491 26.721 6.83441 26.6584C5.69222 25.3425 5.00191 23.6338 5.00191 21.7512V12.7499C5.00191 11.4985 5.99704 10.5028 7.24896 10.5028ZM13.993 13.4969C13.5777 13.4978 13.2421 13.836 13.2445 14.2513C13.2461 14.6638 13.5806 14.9976 13.993 14.9984H31.9958V17.2513C31.9958 18.4848 33.0093 19.4969 34.2428 19.4969C35.4764 19.4969 36.4957 18.4848 36.4957 17.2513V14.9984H37.9972C38.4091 14.9968 38.7426 14.6632 38.7442 14.2513C38.7466 13.8366 38.4119 13.4985 37.9972 13.4969H13.993ZM33.4958 14.9984H34.9957V17.2513C34.9957 17.6796 34.6716 17.9984 34.2428 17.9984C33.8141 17.9984 33.4958 17.6796 33.4958 17.2513V14.9984ZM12.4096 25.4997C13.1017 25.4941 13.4278 25.5796 13.5111 25.6213C13.5944 25.663 13.5542 25.6176 13.6385 25.8088C13.7228 26 13.8643 26.3903 14.1981 26.7727C14.5319 27.155 15.036 27.5096 15.8036 27.8186C16.5711 28.1276 17.1844 28.2227 17.6903 28.1789C18.1961 28.1351 18.5652 27.9535 18.7596 27.8742C18.9539 27.795 18.8974 27.7967 18.9866 27.8244C19.0759 27.8522 19.3678 28.0167 19.8611 28.4997C20.3148 28.9439 20.4984 29.2281 20.5423 29.3361C20.5862 29.4442 20.5627 29.4324 20.5364 29.5017C20.4459 29.7403 20.0587 30.4776 20.2845 31.485L18.4476 32.8473C17.2895 30.6492 14.9959 29.2386 12.4696 29.2468C9.66578 29.2558 7.15478 31.0069 6.17524 33.6369C5.19571 36.2669 5.94518 39.2383 8.05755 41.0841C10.1429 42.9062 13.1332 43.2611 15.5853 41.9908C15.7326 41.9743 15.8718 41.9148 15.9852 41.8194L22.9988 35.922C22.9993 35.9472 23 35.9691 23.0003 35.9952C22.9935 36.715 22.8982 37.0774 22.845 37.1861C22.7916 37.2954 22.8317 37.2568 22.6458 37.3414C22.4599 37.426 22.0741 37.5573 21.6878 37.8834C21.3015 38.2096 20.9377 38.7072 20.6141 39.4669C20.2905 40.2266 20.1861 40.8386 20.2215 41.3448C20.257 41.851 20.4325 42.224 20.5086 42.4185C20.5848 42.6131 20.5813 42.5474 20.5526 42.6338C20.5238 42.7203 20.3545 43.015 19.8612 43.4981C19.3678 43.9812 19.0759 44.1456 18.9867 44.1734C18.8974 44.2012 18.954 44.2029 18.7596 44.1236C18.5653 44.0443 18.1962 43.8627 17.6903 43.8189C17.1844 43.7751 16.5711 43.8703 15.8036 44.1792C15.0361 44.4882 14.532 44.8428 14.1981 45.2251C13.8643 45.6075 13.7229 45.9919 13.6386 46.1831C13.5543 46.3744 13.5945 46.3289 13.5111 46.3706C13.4278 46.4123 13.1017 46.5039 12.4096 46.4981C11.7174 46.4921 11.395 46.3976 11.3124 46.3545C11.2299 46.3115 11.266 46.3579 11.185 46.1656C11.1039 45.9729 10.9761 45.5794 10.6488 45.1914C10.3216 44.8034 9.8216 44.4397 9.05949 44.1177C8.29737 43.7957 7.68375 43.6944 7.17719 43.7295C6.67062 43.7647 6.29916 43.9363 6.10347 44.0123C5.90777 44.0882 5.96516 44.0855 5.87642 44.0562C5.78767 44.0269 5.49717 43.862 5.01217 43.3707C4.52716 42.8793 4.36415 42.5831 4.33688 42.4962C4.30961 42.4092 4.30721 42.4726 4.38669 42.2794C4.46616 42.0861 4.64724 41.717 4.69137 41.2115C4.73549 40.706 4.64156 40.0943 4.33102 39.3292C4.02049 38.5641 3.66409 38.0603 3.27928 37.7281C2.89446 37.3959 2.50041 37.2586 2.30517 37.1759C2.10992 37.0932 2.15901 37.1359 2.12206 37.0646C2.08511 36.9933 1.99458 36.6822 2.00048 36.007V36.004V36.001V35.998V35.995V35.992V35.989C1.99459 35.3138 2.08511 35.0042 2.12206 34.9328C2.15901 34.8615 2.10991 34.8984 2.30517 34.8156C2.50041 34.7333 2.89446 34.6004 3.27928 34.2682C3.66409 33.9364 4.02049 33.4278 4.33102 32.6628C4.64156 31.8977 4.7355 31.2918 4.69137 30.7863C4.64724 30.2808 4.46616 29.9117 4.38669 29.7185C4.30721 29.5252 4.30962 29.5827 4.33688 29.4958C4.36415 29.4089 4.52716 29.1185 5.01217 28.6271C5.49717 28.1358 5.78768 27.9636 5.87642 27.9343C5.96516 27.905 5.90777 27.9037 6.10347 27.9797C6.29916 28.0557 6.67062 28.2316 7.17719 28.2668C7.68375 28.302 8.29737 28.1963 9.05949 27.8742C9.82161 27.5522 10.3216 27.1885 10.6488 26.8005C10.9761 26.4125 11.104 26.0234 11.185 25.8308C11.266 25.6382 11.2299 25.6863 11.3124 25.6433C11.3949 25.6002 11.7174 25.5054 12.4096 25.4997ZM33.5016 27.7468H36.4957C36.9242 27.7468 37.2501 28.0713 37.2501 28.4997V31.5011C37.2501 31.9296 36.9242 32.2482 36.4957 32.2482H33.5016C33.0732 32.2482 32.7487 31.9296 32.7487 31.5011V28.4997C32.7487 28.0713 33.0732 27.7468 33.5016 27.7468ZM28.2326 27.9401L28.1609 30.9196L27.8943 30.6867C27.6168 30.4392 27.1998 30.4324 26.9143 30.6705L15.4872 40.2813L11.2465 36.9093C10.9992 36.714 10.6563 36.6941 10.3881 36.8595L7.83929 38.4195C7.40979 37.5909 7.20607 36.6597 7.25629 35.7228L11.2186 33.8698L14.8895 36.6764C15.1553 36.8793 15.5234 36.8816 15.7918 36.6823L25.4084 29.5515C25.7389 29.3049 25.8083 28.8377 25.5637 28.5057L25.1814 27.9797L28.2326 27.9401ZM24.3933 34.7485L27.3801 32.2363L28.3703 33.1225C28.8479 33.5446 29.6011 33.2163 29.6169 32.579L29.6623 30.7465H31.2472V31.5009C31.2472 32.7346 32.2682 33.748 33.5016 33.748H36.4957C37.7292 33.7482 38.7501 32.7346 38.7501 31.5011V30.7468H39.4972C41.7975 30.7468 43.8994 29.8788 45.4927 28.4543V41.9966C45.4927 42.8406 44.8366 43.4981 43.9927 43.4981H21.802C21.8736 43.3705 21.9322 43.2426 21.9763 43.1099C22.1368 42.6276 22.0107 42.1418 21.9046 41.8707C21.7985 41.5995 21.7314 41.4648 21.7156 41.2393C21.6998 41.0138 21.7338 40.6673 21.9925 40.0601C22.2511 39.453 22.4799 39.1804 22.6575 39.0304C22.8351 38.8803 22.9855 38.8232 23.2654 38.7037C23.5608 38.5776 23.966 38.33 24.1956 37.8453C24.4213 37.3842 24.4935 36.8299 24.5002 35.9959C24.4961 35.4877 24.4662 35.0882 24.3933 34.7485ZM12.4696 30.7468C14.5159 30.74 16.3626 31.9222 17.2259 33.7541L15.3539 35.1427L11.7724 32.4035C11.5499 32.2331 11.2511 32.2009 10.9975 32.32L7.70892 33.8536C8.54578 31.978 10.3985 30.7535 12.4696 30.7468ZM10.7265 38.4093L14.0121 41.024C12.3058 41.5429 10.4237 41.1608 9.04338 39.9547C8.92917 39.8549 8.82056 39.7504 8.71672 39.6427L10.7265 38.4093Z" fill="url(#paint0_linear_491_113)"/>
</g>
<defs>
<linearGradient id="paint0_linear_491_113" x1="24.5" y1="0" x2="24.5" y2="48" gradientUnits="userSpaceOnUse">
<stop stop-color="#01ABFF"/>
<stop offset="1" stop-color="#0175FF"/>
</linearGradient>
<clipPath id="clip0_491_113">
<rect width="48" height="48" fill="white" transform="translate(0.5)"/>
</clipPath>
</defs>
</svg>
