<svg width="49" height="49" viewBox="0 0 49 49" fill="none" xmlns="http://www.w3.org/2000/svg">
<g clip-path="url(#clip0_61_433)">
<path d="M4.22748 9.5C3.81329 9.5 3.47748 9.83545 3.47748 10.25V43.25C3.47748 43.6646 3.81329 44 4.22748 44H17.7275C18.1417 44 18.4775 43.6646 18.4775 43.25C18.4775 42.8354 18.1417 42.5 17.7275 42.5H4.97748V11H7.22748C7.22748 12.2407 8.23676 13.25 9.47748 13.25H24.4775C25.7182 13.25 26.7275 12.2407 26.7275 11H28.9775V25.25C28.9775 25.6646 29.3133 26 29.7275 26C30.1417 26 30.4775 25.6646 30.4775 25.25V10.25C30.4775 9.83545 30.1417 9.5 29.7275 9.5H26.7275V8H29.7275C30.9682 8 31.9775 9.00928 31.9775 10.25V25.25C31.9775 25.6646 32.3133 26 32.7275 26C33.1417 26 33.4775 25.6646 33.4775 25.25V10.25C33.4775 8.18237 31.7951 6.5 29.7275 6.5H26.7275C26.7275 5.25928 25.7182 4.25 24.4775 4.25H19.9775V3.5C19.9775 1.84546 18.6317 0.5 16.9775 0.5C15.3233 0.5 13.9775 1.84546 13.9775 3.5V4.25H9.47748C8.23676 4.25 7.22748 5.25928 7.22748 6.5H4.22748C2.15985 6.5 0.477478 8.18237 0.477478 10.25V43.25C0.477478 45.3176 2.15985 47 4.22748 47H17.7275C18.1417 47 18.4775 46.6646 18.4775 46.25C18.4775 45.8354 18.1417 45.5 17.7275 45.5H4.22748C2.98676 45.5 1.97748 44.4907 1.97748 43.25V10.25C1.97748 9.00928 2.98676 8 4.22748 8H7.22748V9.5H4.22748ZM15.4775 3.5C15.4775 2.6731 16.1502 2 16.9775 2C17.8047 2 18.4775 2.6731 18.4775 3.5V4.25H15.4775V3.5ZM8.72748 6.5C8.72748 6.08618 9.06403 5.75 9.47748 5.75H24.4775C24.8909 5.75 25.2275 6.08618 25.2275 6.5V11C25.2275 11.4138 24.8909 11.75 24.4775 11.75H9.47748C9.06403 11.75 8.72748 11.4138 8.72748 11V6.5Z" fill="url(#paint0_linear_61_433)"/>
<path d="M48.439 38.5127L46.189 31.7627C46.0868 31.4565 45.8005 31.25 45.4775 31.25H38.7275V28.25C38.7275 27.8354 38.3917 27.5 37.9775 27.5H21.4775C21.0633 27.5 20.7275 27.8354 20.7275 28.25V42.5C20.3133 42.5 19.9775 42.8354 19.9775 43.25V46.25C19.9775 46.6646 20.3133 47 20.7275 47H23.7467C24.4319 47.9052 25.5073 48.5 26.7275 48.5C27.9476 48.5 29.0231 47.9052 29.7083 47H38.7467C39.4319 47.9052 40.5073 48.5 41.7275 48.5C42.9476 48.5 44.0231 47.9052 44.7083 47H47.7275C48.1417 47 48.4775 46.6646 48.4775 46.25V38.75C48.4775 38.6694 48.4647 38.5896 48.439 38.5127ZM46.6869 38H42.4775V35.75H45.9369L46.6869 38ZM44.937 32.75L45.437 34.25H41.7275C41.3133 34.25 40.9775 34.5854 40.9775 35V38.75C40.9775 39.1646 41.3133 39.5 41.7275 39.5H46.9775V42.5H44.7083C44.0231 41.5948 42.9476 41 41.7275 41C40.5073 41 39.4319 41.5948 38.7467 42.5H38.7275V32.75H44.937ZM31.2275 29V32H28.2275V29H31.2275ZM22.2275 29H26.7275V32.75C26.7275 33.1646 27.0633 33.5 27.4775 33.5H31.9775C32.3917 33.5 32.7275 33.1646 32.7275 32.75V29H37.2275V42.5H29.7083C29.0231 41.5948 27.9476 41 26.7275 41C25.5073 41 24.4319 41.5948 23.7467 42.5H22.2275V29ZM21.4775 45.5V44H23.0533C23.0038 44.2424 22.9775 44.4932 22.9775 44.75C22.9775 45.0068 23.0038 45.2576 23.0533 45.5H21.4775ZM26.7275 47C25.4868 47 24.4775 45.9907 24.4775 44.75C24.4775 43.5093 25.4868 42.5 26.7275 42.5C27.9682 42.5 28.9775 43.5093 28.9775 44.75C28.9775 45.9907 27.9682 47 26.7275 47ZM30.4017 45.5C30.4511 45.2576 30.4775 45.0068 30.4775 44.75C30.4775 44.4932 30.4511 44.2424 30.4017 44H38.0533C38.0038 44.2424 37.9775 44.4932 37.9775 44.75C37.9775 45.0068 38.0038 45.2576 38.0533 45.5H30.4017ZM41.7275 47C40.4868 47 39.4775 45.9907 39.4775 44.75C39.4775 43.5093 40.4868 42.5 41.7275 42.5C42.9682 42.5 43.9775 43.5093 43.9775 44.75C43.9775 45.9907 42.9682 47 41.7275 47ZM46.9775 45.5H45.4017C45.4511 45.2576 45.4775 45.0068 45.4775 44.75C45.4775 44.4932 45.4511 44.2424 45.4017 44H46.9775V45.5Z" fill="url(#paint1_linear_61_433)"/>
<path d="M17.7275 23.75V17.75C17.7275 16.5093 16.7182 15.5 15.4775 15.5H9.47748C8.23676 15.5 7.22748 16.5093 7.22748 17.75V23.75C7.22748 24.9907 8.23676 26 9.47748 26H15.4775C16.7182 26 17.7275 24.9907 17.7275 23.75ZM8.72748 23.75V17.75C8.72748 17.3362 9.06403 17 9.47748 17H11.7275V18.5C11.7275 18.9146 12.0633 19.25 12.4775 19.25C12.8917 19.25 13.2275 18.9146 13.2275 18.5V17H15.4775C15.8909 17 16.2275 17.3362 16.2275 17.75V23.75C16.2275 24.1638 15.8909 24.5 15.4775 24.5H9.47748C9.06403 24.5 8.72748 24.1638 8.72748 23.75Z" fill="url(#paint2_linear_61_433)"/>
<path d="M11.7275 21.5H10.9775C10.5633 21.5 10.2275 21.8354 10.2275 22.25C10.2275 22.6646 10.5633 23 10.9775 23H11.7275C12.1417 23 12.4775 22.6646 12.4775 22.25C12.4775 21.8354 12.1417 21.5 11.7275 21.5Z" fill="url(#paint3_linear_61_433)"/>
<path d="M25.9775 15.5H20.7275C20.3133 15.5 19.9775 15.8354 19.9775 16.25C19.9775 16.6646 20.3133 17 20.7275 17H25.9775C26.3917 17 26.7275 16.6646 26.7275 16.25C26.7275 15.8354 26.3917 15.5 25.9775 15.5Z" fill="url(#paint4_linear_61_433)"/>
<path d="M25.9775 18.5H20.7275C20.3133 18.5 19.9775 18.8354 19.9775 19.25C19.9775 19.6646 20.3133 20 20.7275 20H25.9775C26.3917 20 26.7275 19.6646 26.7275 19.25C26.7275 18.8354 26.3917 18.5 25.9775 18.5Z" fill="url(#paint5_linear_61_433)"/>
<path d="M25.9775 21.5H20.7275C20.3133 21.5 19.9775 21.8354 19.9775 22.25C19.9775 22.6646 20.3133 23 20.7275 23H25.9775C26.3917 23 26.7275 22.6646 26.7275 22.25C26.7275 21.8354 26.3917 21.5 25.9775 21.5Z" fill="url(#paint6_linear_61_433)"/>
<path d="M12.2578 28.4697C11.9648 28.1768 11.4902 28.1768 11.1972 28.4697L9.47748 30.1895L8.50775 29.2197C8.21478 28.9268 7.74017 28.9268 7.4472 29.2197C7.15424 29.5127 7.15424 29.9873 7.4472 30.2803L8.9472 31.7803C9.09369 31.9268 9.28558 32 9.47748 32C9.66937 32 9.86127 31.9268 10.0078 31.7803L12.2578 29.5303C12.5507 29.2373 12.5507 28.7627 12.2578 28.4697Z" fill="url(#paint7_linear_61_433)"/>
<path d="M17.7275 29.75H14.7275C14.3133 29.75 13.9775 30.0854 13.9775 30.5C13.9775 30.9146 14.3133 31.25 14.7275 31.25H17.7275C18.1417 31.25 18.4775 30.9146 18.4775 30.5C18.4775 30.0854 18.1417 29.75 17.7275 29.75Z" fill="url(#paint8_linear_61_433)"/>
<path d="M11.1972 34.4697L9.47748 36.1895L8.50775 35.2197C8.21478 34.9268 7.74017 34.9268 7.4472 35.2197C7.15424 35.5127 7.15424 35.9873 7.4472 36.2803L8.9472 37.7803C9.09369 37.9268 9.28558 38 9.47748 38C9.66937 38 9.86127 37.9268 10.0078 37.7803L12.2578 35.5303C12.5507 35.2373 12.5507 34.7627 12.2578 34.4697C11.9648 34.1768 11.4902 34.1768 11.1972 34.4697Z" fill="url(#paint9_linear_61_433)"/>
<path d="M17.7275 35.75H14.7275C14.3133 35.75 13.9775 36.0854 13.9775 36.5C13.9775 36.9146 14.3133 37.25 14.7275 37.25H17.7275C18.1417 37.25 18.4775 36.9146 18.4775 36.5C18.4775 36.0854 18.1417 35.75 17.7275 35.75Z" fill="url(#paint10_linear_61_433)"/>
</g>
<defs>
<linearGradient id="paint0_linear_61_433" x1="16.9775" y1="0.5" x2="16.9775" y2="47" gradientUnits="userSpaceOnUse">
<stop stop-color="#61C8FF"/>
<stop offset="1" stop-color="#0170FF"/>
</linearGradient>
<linearGradient id="paint1_linear_61_433" x1="34.2275" y1="27.5" x2="34.2275" y2="48.5" gradientUnits="userSpaceOnUse">
<stop stop-color="#61C8FF"/>
<stop offset="1" stop-color="#0170FF"/>
</linearGradient>
<linearGradient id="paint2_linear_61_433" x1="12.4775" y1="15.5" x2="12.4775" y2="26" gradientUnits="userSpaceOnUse">
<stop stop-color="#61C8FF"/>
<stop offset="1" stop-color="#0170FF"/>
</linearGradient>
<linearGradient id="paint3_linear_61_433" x1="11.3525" y1="21.5" x2="11.3525" y2="23" gradientUnits="userSpaceOnUse">
<stop stop-color="#61C8FF"/>
<stop offset="1" stop-color="#0170FF"/>
</linearGradient>
<linearGradient id="paint4_linear_61_433" x1="23.3525" y1="15.5" x2="23.3525" y2="17" gradientUnits="userSpaceOnUse">
<stop stop-color="#61C8FF"/>
<stop offset="1" stop-color="#0170FF"/>
</linearGradient>
<linearGradient id="paint5_linear_61_433" x1="23.3525" y1="18.5" x2="23.3525" y2="20" gradientUnits="userSpaceOnUse">
<stop stop-color="#61C8FF"/>
<stop offset="1" stop-color="#0170FF"/>
</linearGradient>
<linearGradient id="paint6_linear_61_433" x1="23.3525" y1="21.5" x2="23.3525" y2="23" gradientUnits="userSpaceOnUse">
<stop stop-color="#61C8FF"/>
<stop offset="1" stop-color="#0170FF"/>
</linearGradient>
<linearGradient id="paint7_linear_61_433" x1="9.85248" y1="28.25" x2="9.85248" y2="32" gradientUnits="userSpaceOnUse">
<stop stop-color="#61C8FF"/>
<stop offset="1" stop-color="#0170FF"/>
</linearGradient>
<linearGradient id="paint8_linear_61_433" x1="16.2275" y1="29.75" x2="16.2275" y2="31.25" gradientUnits="userSpaceOnUse">
<stop stop-color="#61C8FF"/>
<stop offset="1" stop-color="#0170FF"/>
</linearGradient>
<linearGradient id="paint9_linear_61_433" x1="9.85248" y1="34.25" x2="9.85248" y2="38" gradientUnits="userSpaceOnUse">
<stop stop-color="#61C8FF"/>
<stop offset="1" stop-color="#0170FF"/>
</linearGradient>
<linearGradient id="paint10_linear_61_433" x1="16.2275" y1="35.75" x2="16.2275" y2="37.25" gradientUnits="userSpaceOnUse">
<stop stop-color="#61C8FF"/>
<stop offset="1" stop-color="#0170FF"/>
</linearGradient>
<clipPath id="clip0_61_433">
<rect width="48" height="48" fill="white" transform="translate(0.477478 0.5)"/>
</clipPath>
</defs>
</svg>
