<svg width="48" height="48" viewBox="0 0 48 48" fill="none" xmlns="http://www.w3.org/2000/svg">
<path d="M44.3359 20.9992H42.0007C41.8676 20.5176 41.5814 20.0925 41.1854 19.7881C40.7893 19.4836 40.3049 19.3164 39.8053 19.3117H37.3125V13.2157C37.3153 13.1016 37.2877 12.9889 37.2326 12.889C37.1775 12.7892 37.0968 12.7058 36.9988 12.6474L19.4135 2.4903C19.3144 2.43269 19.2018 2.40234 19.0871 2.40234C18.9725 2.40234 18.8599 2.43269 18.7608 2.4903L1.17 12.6474C1.07047 12.7051 0.987904 12.788 0.930627 12.8877C0.87335 12.9875 0.843385 13.1006 0.843753 13.2157V33.5299C0.843756 33.6451 0.87408 33.7582 0.931678 33.858C0.989276 33.9578 1.07212 34.0406 1.17188 34.0982L18.7644 44.2553C18.8642 44.3129 18.9774 44.3432 19.0926 44.3432C19.2107 44.3433 19.327 44.313 19.4301 44.2553L28.6875 38.9156V42.7756C28.6865 43.1431 28.7585 43.5072 28.8992 43.8467C29.0399 44.1862 29.2465 44.4944 29.5071 44.7535C29.7678 45.0126 30.0772 45.2175 30.4175 45.3562C30.7578 45.4949 31.1223 45.5648 31.4898 45.5617H44.3359C44.7043 45.5651 45.0698 45.4956 45.4113 45.3573C45.7528 45.2189 46.0635 45.0143 46.3257 44.7554C46.5878 44.4964 46.7961 44.1882 46.9387 43.8484C47.0812 43.5087 47.1552 43.1441 47.1563 42.7756V23.8287C47.1558 23.08 46.8588 22.362 46.3303 21.8317C45.8017 21.3014 45.0846 21.002 44.3359 20.9992ZM39.8287 20.6242C40.0813 20.6242 40.3236 20.7245 40.5022 20.9032C40.6809 21.0818 40.7813 21.3241 40.7813 21.5768V21.6403C40.7813 21.893 40.6809 22.1353 40.5022 22.3139C40.3236 22.4926 40.0813 22.5929 39.8287 22.5929H36.0151C35.7625 22.5929 35.5202 22.4926 35.3415 22.3139C35.1629 22.1353 35.0625 21.893 35.0625 21.6403V21.5768C35.0625 21.3241 35.1629 21.0818 35.3415 20.9032C35.5202 20.7245 35.7625 20.6242 36.0151 20.6242H39.8287ZM19.0926 3.81639L26.4026 8.03683L10.1237 17.4355L2.81372 13.215L19.0926 3.81639ZM18.4688 42.5502L2.15625 33.151V14.3509L18.4688 23.7502V42.5502ZM19.0926 22.6135L11.4362 18.1931L27.7151 8.79461L35.3719 13.215L19.0926 22.6135ZM28.6875 23.8287V37.4001L19.7813 42.5502V23.7502L36 14.3509V19.3117H36.0203C35.5208 19.3164 35.0364 19.4836 34.6403 19.788C34.2442 20.0925 33.958 20.5176 33.825 20.9992H31.4898C30.743 21.0028 30.0282 21.3029 29.5026 21.8336C28.9771 22.3642 28.6839 23.0819 28.6875 23.8287ZM45.8438 42.7756C45.8429 42.9718 45.803 43.1658 45.7265 43.3464C45.6499 43.527 45.5383 43.6906 45.398 43.8277C45.2577 43.9648 45.0916 44.0727 44.9092 44.1451C44.7269 44.2174 44.532 44.2528 44.3359 44.2492H31.4898C31.2946 44.2525 31.1007 44.2167 30.9196 44.144C30.7384 44.0713 30.5736 43.9632 30.4348 43.8259C30.296 43.6886 30.186 43.525 30.1114 43.3446C30.0367 43.1643 29.9989 42.9708 30 42.7756V23.8287C29.998 23.6313 30.035 23.4353 30.1088 23.2521C30.1827 23.069 30.2919 22.9022 30.4303 22.7612C30.5687 22.6203 30.7335 22.5081 30.9153 22.431C31.0971 22.3538 31.2923 22.3133 31.4898 22.3117H33.8506C33.9913 22.7762 34.2789 23.1826 34.67 23.4699C35.0612 23.7573 35.535 23.9101 36.0203 23.9054H39.8053C40.2907 23.9101 40.7644 23.7573 41.1556 23.4699C41.5468 23.1826 41.8343 22.7762 41.975 22.3117H44.3359C44.7366 22.3142 45.1201 22.4751 45.4026 22.7594C45.6851 23.0436 45.8437 23.428 45.8438 23.8287V42.7756Z" fill="url(#paint0_linear_61_176)"/>
<path d="M32.2452 30.4688H32.9321C33.1062 30.4688 33.2731 30.3996 33.3962 30.2765C33.5192 30.1535 33.5884 29.9865 33.5884 29.8125C33.5884 29.6385 33.5192 29.4715 33.3962 29.3485C33.2731 29.2254 33.1062 29.1562 32.9321 29.1562H32.9063V27.375H34.7163C34.7575 27.5069 34.8408 27.6217 34.9535 27.7018C35.0662 27.7818 35.202 27.8227 35.3402 27.8182C35.5145 27.8186 35.6818 27.75 35.8055 27.6272C35.9292 27.5045 35.9991 27.3377 36 27.1634V26.7218C35.9985 26.5467 35.928 26.3793 35.8038 26.2558C35.6796 26.1324 35.5117 26.0629 35.3366 26.0625H32.2452C32.1591 26.0629 32.074 26.0804 31.9946 26.1137C31.9153 26.1471 31.8433 26.1958 31.7828 26.2571C31.7223 26.3183 31.6744 26.3909 31.642 26.4706C31.6095 26.5504 31.5932 26.6358 31.5938 26.7218V29.8132C31.5932 29.8991 31.6097 29.9843 31.6422 30.0638C31.6747 30.1433 31.7226 30.2156 31.7832 30.2765C31.8437 30.3374 31.9157 30.3858 31.995 30.4188C32.0743 30.4517 32.1593 30.4687 32.2452 30.4688Z" fill="#2989D8"/>
<path d="M32.25 36.4688H35.3438C35.5178 36.4688 35.6847 36.3996 35.8078 36.2765C35.9309 36.1535 36 35.9865 36 35.8125V32.7188C36 32.5447 35.9309 32.3778 35.8078 32.2547C35.6847 32.1316 35.5178 32.0625 35.3438 32.0625H32.25C32.076 32.0625 31.909 32.1316 31.786 32.2547C31.6629 32.3778 31.5938 32.5447 31.5938 32.7188V35.8125C31.5938 35.9865 31.6629 36.1535 31.786 36.2765C31.909 36.3996 32.076 36.4688 32.25 36.4688ZM32.9062 33.375H34.6875V35.1562H32.9062V33.375Z" fill="#2989D8"/>
<path d="M32.9322 41.1563H32.9062V39.375H34.6808C34.6842 39.5476 34.7551 39.712 34.8783 39.8329C35.0015 39.9538 35.1672 40.0216 35.3398 40.0218C35.5124 40.0219 35.6782 39.9545 35.8016 39.8338C35.925 39.7131 35.9963 39.5489 36 39.3763V38.744C35.9993 38.5665 35.9298 38.3963 35.806 38.2692C35.6823 38.142 35.514 38.0679 35.3366 38.0625H32.2452C32.0691 38.0684 31.9023 38.1431 31.7806 38.2704C31.6588 38.3978 31.5917 38.5678 31.5937 38.744V41.8354C31.5937 41.9201 31.6106 42.004 31.6435 42.0821C31.6765 42.1601 31.7247 42.2308 31.7855 42.2899C31.8463 42.3489 31.9182 42.3952 31.9972 42.4259C32.0762 42.4567 32.1605 42.4712 32.2452 42.4688H32.9322C33.1063 42.4688 33.2732 42.3996 33.3963 42.2765C33.5193 42.1535 33.5885 41.9865 33.5885 41.8125C33.5885 41.6385 33.5193 41.4715 33.3963 41.3485C33.2732 41.2254 33.1063 41.1563 32.9322 41.1563Z" fill="#2989D8"/>
<path d="M36.8475 26.8683L34.9257 28.7902L34.341 28.2054C34.2801 28.1445 34.2078 28.0962 34.1281 28.0632C34.0485 28.0302 33.9632 28.0132 33.877 28.0132C33.7908 28.0132 33.7055 28.0302 33.6258 28.0632C33.5462 28.0962 33.4739 28.1445 33.4129 28.2054C33.352 28.2664 33.3036 28.3387 33.2707 28.4184C33.2377 28.498 33.2207 28.5833 33.2207 28.6695C33.2207 28.7557 33.2377 28.841 33.2707 28.9207C33.3036 29.0003 33.352 29.0726 33.4129 29.1336L34.4617 30.1823C34.5226 30.2432 34.595 30.2915 34.6746 30.3245C34.7542 30.3575 34.8396 30.3745 34.9258 30.3745C35.012 30.3745 35.0973 30.3575 35.1769 30.3245C35.2565 30.2915 35.3289 30.2432 35.3898 30.1823L37.776 27.7961C37.899 27.6731 37.9682 27.5061 37.9682 27.3321C37.9682 27.158 37.899 26.9911 37.776 26.868C37.6529 26.7449 37.4859 26.6758 37.3119 26.6758C37.1378 26.6758 36.9709 26.7449 36.8478 26.868L36.8475 26.8683Z" fill="#2989D8"/>
<path d="M36.8475 38.9855L34.9257 40.9073L34.341 40.3226C34.2801 40.2617 34.2078 40.2133 34.1281 40.1804C34.0485 40.1474 33.9632 40.1304 33.877 40.1304C33.7908 40.1304 33.7055 40.1474 33.6258 40.1804C33.5462 40.2133 33.4739 40.2617 33.4129 40.3226C33.352 40.3836 33.3036 40.4559 33.2707 40.5355C33.2377 40.6152 33.2207 40.7005 33.2207 40.7867C33.2207 40.8729 33.2377 40.9582 33.2707 41.0378C33.3036 41.1175 33.352 41.1898 33.4129 41.2508L34.4617 42.2994C34.5226 42.3604 34.595 42.4087 34.6746 42.4417C34.7542 42.4747 34.8396 42.4917 34.9258 42.4917C35.012 42.4917 35.0973 42.4747 35.1769 42.4417C35.2565 42.4087 35.3289 42.3604 35.3898 42.2994L37.776 39.9133C37.899 39.7902 37.9682 39.6233 37.9682 39.4493C37.9682 39.2752 37.899 39.1083 37.776 38.9852C37.6529 38.8621 37.4859 38.793 37.3119 38.793C37.1378 38.793 36.9709 38.8621 36.8478 38.9852L36.8475 38.9855Z" fill="#2989D8"/>
<path d="M43.5808 27.6562H39.459C39.2849 27.6562 39.118 27.7254 38.9949 27.8485C38.8719 27.9715 38.8027 28.1385 38.8027 28.3125C38.8027 28.4865 38.8719 28.6535 38.9949 28.7765C39.118 28.8996 39.2849 28.9688 39.459 28.9688H43.5808C43.7548 28.9688 43.9218 28.8996 44.0448 28.7765C44.1679 28.6535 44.237 28.4865 44.237 28.3125C44.237 28.1385 44.1679 27.9715 44.0448 27.8485C43.9218 27.7254 43.7548 27.6562 43.5808 27.6562Z" fill="#2989D8"/>
<path d="M43.5808 33.6562H39.459C39.2849 33.6563 39.118 33.7254 38.9949 33.8485C38.8719 33.9715 38.8027 34.1385 38.8027 34.3125C38.8027 34.4865 38.8719 34.6535 38.9949 34.7765C39.118 34.8996 39.2849 34.9688 39.459 34.9688H43.5808C43.7548 34.9688 43.9218 34.8996 44.0448 34.7765C44.1679 34.6535 44.237 34.4865 44.237 34.3125C44.237 34.1385 44.1679 33.9715 44.0448 33.8485C43.9218 33.7254 43.7548 33.6562 43.5808 33.6562Z" fill="#2989D8"/>
<path d="M43.5808 39.6562H39.459C39.2849 39.6562 39.118 39.7254 38.9949 39.8485C38.8719 39.9715 38.8027 40.1385 38.8027 40.3125C38.8027 40.4865 38.8719 40.6535 38.9949 40.7765C39.118 40.8996 39.2849 40.9688 39.459 40.9688H43.5808C43.7548 40.9688 43.9218 40.8996 44.0448 40.7765C44.1679 40.6535 44.237 40.4865 44.237 40.3125C44.237 40.1385 44.1679 39.9715 44.0448 39.8485C43.9218 39.7254 43.7548 39.6562 43.5808 39.6562Z" fill="#2989D8"/>
<defs>
<linearGradient id="paint0_linear_61_176" x1="24" y1="2.40234" x2="24" y2="45.5618" gradientUnits="userSpaceOnUse">
<stop stop-color="#00A9FF"/>
<stop offset="1" stop-color="#006BFF"/>
</linearGradient>
</defs>
</svg>
