<svg width="49" height="48" viewBox="0 0 49 48" fill="none" xmlns="http://www.w3.org/2000/svg">
<g clip-path="url(#clip0_61_156)">
<path d="M11.7623 38.7699L38.0845 19.9244C38.8735 20.7788 39.9295 21.3397 41.0792 21.515C42.2289 21.6903 43.4041 21.4695 44.4118 20.889C45.4196 20.3084 46.2001 19.4026 46.6252 18.3201C47.0504 17.2376 47.0949 16.0427 46.7516 14.9315C46.4082 13.8203 45.6974 12.8589 44.7357 12.2049C43.774 11.5509 42.6185 11.2433 41.4589 11.3324C40.2993 11.4216 39.2045 11.9022 38.354 12.6955C37.5036 13.4888 36.9481 14.5476 36.7786 15.6982H23.1169C22.727 15.176 22.2946 14.6868 21.8241 14.2357C20.2324 12.7042 18.2382 11.6565 16.0739 11.2147C17.3043 10.6739 18.3112 9.72624 18.9256 8.53089C19.54 7.33554 19.7245 5.96522 19.4481 4.64993C19.1718 3.33464 18.4514 2.15444 17.4079 1.3074C16.3644 0.460363 15.0613 -0.00195312 13.7173 -0.00195312C12.3733 -0.00195312 11.0702 0.460363 10.0267 1.3074C8.98325 2.15444 8.26289 3.33464 7.98655 4.64993C7.71021 5.96522 7.89472 7.33554 8.50911 8.53089C9.1235 9.72624 10.1304 10.6739 11.3607 11.2147C8.80723 11.7402 6.50183 13.1021 4.8093 15.085C3.11678 17.0679 2.13378 19.5585 2.01584 22.1629C2.00855 22.3279 2.03475 22.4926 2.09285 22.6472C2.15096 22.8018 2.23977 22.9431 2.35394 23.0624C2.4681 23.1818 2.60525 23.2768 2.75712 23.3417C2.90899 23.4066 3.07243 23.4401 3.23759 23.4401H24.1966C24.3618 23.4401 24.5253 23.4067 24.6772 23.3418C24.8292 23.2769 24.9664 23.1819 25.0806 23.0625C25.1948 22.9432 25.2837 22.8019 25.3418 22.6473C25.3999 22.4926 25.4261 22.3278 25.4188 22.1628C25.3437 20.4279 24.8819 18.7317 24.0672 17.1982H36.7787C36.8547 17.7147 37.0096 18.2164 37.2381 18.6858L10.9157 37.5313C10.1267 36.6769 9.07069 36.116 7.92097 35.9408C6.77124 35.7656 5.5961 35.9863 4.58836 36.5669C3.58063 37.1474 2.80016 38.0533 2.37503 39.1358C1.9499 40.2183 1.90536 41.4132 2.24871 42.5244C2.59207 43.6355 3.30293 44.597 4.26464 45.2509C5.22636 45.9049 6.38181 46.2126 7.54139 46.1234C8.70097 46.0343 9.7958 45.5536 10.6462 44.7603C11.4967 43.967 12.0522 42.9082 12.2217 41.7576H24.9332C24.1184 43.291 23.6566 44.9871 23.5813 46.722C23.5741 46.887 23.6003 47.0519 23.6584 47.2065C23.7165 47.3611 23.8054 47.5024 23.9196 47.6218C24.0338 47.7412 24.1709 47.8362 24.3229 47.9011C24.4748 47.966 24.6383 47.9995 24.8035 47.9995H45.7626C45.9278 47.9995 46.0913 47.9661 46.2432 47.9012C46.3952 47.8363 46.5324 47.7413 46.6466 47.6219C46.7608 47.5025 46.8497 47.3613 46.9078 47.2066C46.9659 47.052 46.9921 46.8871 46.9848 46.7221C46.8667 44.1178 45.8836 41.6272 44.191 39.6444C42.4984 37.6616 40.1929 36.2998 37.6394 35.7745C38.8698 35.2337 39.8768 34.286 40.4912 33.0907C41.1056 31.8953 41.2901 30.5249 41.0138 29.2096C40.7374 27.8943 40.0171 26.7141 38.9736 25.867C37.93 25.0199 36.6269 24.5576 35.2829 24.5576C33.9389 24.5576 32.6357 25.0199 31.5922 25.867C30.5487 26.7141 29.8283 27.8943 29.552 29.2096C29.2757 30.5249 29.4602 31.8953 30.0746 33.0907C30.689 34.286 31.6959 35.2337 32.9263 35.7745C30.762 36.2162 28.7678 37.2639 27.1761 38.7955C26.7056 39.2466 26.2732 39.7357 25.8833 40.258H12.2215C12.1457 39.7414 11.9908 39.2395 11.7623 38.7699ZM9.36143 5.85553C9.36143 4.99398 9.61691 4.15179 10.0956 3.43544C10.5742 2.7191 11.2545 2.16078 12.0505 1.83109C12.8465 1.5014 13.7223 1.41515 14.5673 1.58324C15.4123 1.75133 16.1885 2.16622 16.7977 2.77544C17.4068 3.38465 17.8217 4.16084 17.9898 5.00583C18.1578 5.85082 18.0715 6.72668 17.7418 7.52263C17.4121 8.31858 16.8537 8.99888 16.1374 9.4775C15.421 9.95612 14.5788 10.2116 13.7172 10.2115C12.5624 10.2102 11.4552 9.75085 10.6386 8.93422C9.82202 8.11759 9.3627 7.01039 9.36143 5.85553ZM3.53122 21.9401C3.72117 19.3685 4.87678 16.964 6.76608 15.2091C8.65539 13.4542 11.1386 12.4788 13.7172 12.4788C16.2957 12.4788 18.7789 13.4542 20.6682 15.2091C22.5575 16.964 23.7131 19.3685 23.9031 21.9401H3.53122ZM41.8544 12.8171C42.5726 12.8171 43.2747 13.03 43.8718 13.429C44.469 13.828 44.9344 14.3951 45.2092 15.0586C45.4841 15.7221 45.556 16.4522 45.4159 17.1566C45.2758 17.861 44.93 18.508 44.4222 19.0158C43.9143 19.5236 43.2673 19.8695 42.563 20.0096C41.8586 20.1497 41.1285 20.0778 40.465 19.803C39.8015 19.5281 39.2344 19.0627 38.8354 18.4656C38.4364 17.8685 38.2234 17.1664 38.2234 16.4482C38.2245 15.4856 38.6074 14.5626 39.2881 13.8819C39.9688 13.2012 40.8918 12.8182 41.8544 12.8171ZM30.9269 30.4149C30.927 29.5534 31.1826 28.7113 31.6613 27.995C32.14 27.2787 32.8203 26.7205 33.6163 26.3909C34.4123 26.0612 35.2881 25.975 36.133 26.1432C36.978 26.3113 37.7541 26.7262 38.3633 27.3354C38.9724 27.9446 39.3872 28.7208 39.5553 29.5658C39.7233 30.4107 39.637 31.2866 39.3073 32.0825C38.9776 32.8784 38.4193 33.5587 37.7029 34.0373C36.9866 34.5159 36.1445 34.7714 35.2829 34.7714C34.128 34.7701 33.0207 34.3107 32.204 33.494C31.3874 32.6772 30.9281 31.5699 30.9269 30.4149ZM35.2829 37.0364C37.8635 37.0308 40.35 38.0045 42.2406 39.7609C44.1312 41.5173 45.2849 43.9256 45.469 46.4995H25.0971C25.2811 43.9256 26.4348 41.5173 28.3254 39.7609C30.2159 38.0045 32.7024 37.0308 35.2829 37.0364ZM7.14575 44.6387C6.42757 44.6387 5.72552 44.4258 5.12838 44.0268C4.53123 43.6278 4.0658 43.0607 3.79096 42.3972C3.51611 41.7337 3.44419 41.0036 3.58429 40.2992C3.72439 39.5948 4.07021 38.9478 4.57803 38.44C5.08585 37.9322 5.73285 37.5863 6.43722 37.4462C7.14159 37.3061 7.8717 37.378 8.5352 37.6528C9.19871 37.9277 9.76582 38.3931 10.1648 38.9902C10.5638 39.5873 10.7768 40.2894 10.7768 41.0076C10.7757 41.9702 10.3928 42.8932 9.71207 43.5739C9.03136 44.2546 8.10843 44.6376 7.14575 44.6387Z" fill="url(#paint0_linear_61_156)"/>
</g>
<defs>
<linearGradient id="paint0_linear_61_156" x1="24.5003" y1="-0.00195313" x2="24.5003" y2="47.9995" gradientUnits="userSpaceOnUse">
<stop stop-color="#00ADFF"/>
<stop offset="1" stop-color="#006CFF"/>
</linearGradient>
<clipPath id="clip0_61_156">
<rect width="48" height="48" fill="white" transform="translate(0.5)"/>
</clipPath>
</defs>
</svg>
