<svg width="68" height="68" viewBox="0 0 68 68" fill="none" xmlns="http://www.w3.org/2000/svg">
<path d="M16.5456 20.3403C17.2891 20.3389 18.0164 20.1228 18.6401 19.718L22.2068 23.2847C22.3511 23.425 22.5443 23.5039 22.7455 23.5047C22.895 23.5027 23.0405 23.4569 23.1642 23.3731C23.2879 23.2893 23.3844 23.1711 23.4417 23.0331C23.499 22.895 23.5146 22.7433 23.4867 22.5965C23.4587 22.4497 23.3883 22.3143 23.2843 22.207L19.7177 18.6403C20.184 17.9359 20.4019 17.0959 20.3368 16.2536C20.2717 15.4112 19.9274 14.6147 19.3583 13.9903C18.7893 13.3658 18.0281 12.9491 17.1954 12.8062C16.3627 12.6634 15.5062 12.8025 14.7615 13.2015C14.0169 13.6006 13.4267 14.2368 13.0845 15.0092C12.7424 15.7817 12.6678 16.6462 12.8726 17.4659C13.0775 18.2855 13.55 19.0133 14.2153 19.534C14.8807 20.0547 15.7007 20.3385 16.5456 20.3403Z" fill="url(#paint0_linear_325_214)"/>
<path d="M34.7585 49.2761V46.142C34.7578 45.9412 34.6775 45.7489 34.5353 45.6072C34.393 45.4655 34.2004 45.3859 33.9997 45.3859C33.7989 45.3859 33.6063 45.4655 33.4641 45.6072C33.3218 45.7489 33.2415 45.9412 33.2408 46.142V49.2761C32.5257 49.4608 31.9026 49.8999 31.4881 50.5112C31.0737 51.1225 30.8964 51.8639 30.9895 52.5966C31.0826 53.3292 31.4397 54.0027 31.9938 54.4909C32.548 54.9791 33.2611 55.2485 33.9997 55.2485C34.7382 55.2485 35.4514 54.9791 36.0055 54.4909C36.5597 54.0027 36.9168 53.3292 37.0099 52.5966C37.103 51.8639 36.9257 51.1225 36.5112 50.5112C36.0968 49.8999 35.4736 49.4608 34.7585 49.2761Z" fill="url(#paint1_linear_325_214)"/>
<path d="M51.4537 47.6597C50.7102 47.6611 49.983 47.8771 49.3593 48.2819L47.3293 46.252H47.4925C47.7396 46.2521 47.9844 46.2034 48.2127 46.1088C48.4411 46.0143 48.6486 45.8756 48.8233 45.7009C48.9981 45.5261 49.1367 45.3186 49.2313 45.0903C49.3259 44.8619 49.3745 44.6172 49.3745 44.37V43.6795C48.6463 44.1499 47.7978 44.4002 46.9309 44.4003L42.9923 44.4004C42.9999 44.8944 43.2015 45.3656 43.5537 45.7121C43.9059 46.0586 44.3803 46.2526 44.8743 46.2521H45.1742L48.2817 49.3596C47.8769 49.9833 47.6608 50.7106 47.6594 51.4541C47.6594 52.2046 47.8819 52.9382 48.2989 53.5622C48.7158 54.1861 49.3084 54.6725 50.0017 54.9597C50.6951 55.2469 51.458 55.322 52.194 55.1756C52.93 55.0292 53.6061 54.6678 54.1368 54.1371C54.6674 53.6065 55.0288 52.9304 55.1752 52.1944C55.3216 51.4583 55.2465 50.6954 54.9593 50.0021C54.6721 49.3087 54.1858 48.7161 53.5618 48.2992C52.9378 47.8823 52.2042 47.6597 51.4537 47.6597Z" fill="url(#paint2_linear_325_214)"/>
<path d="M45.2538 23.5048C45.4551 23.5039 45.6482 23.4251 45.7926 23.2847L49.3593 19.718C49.9829 20.1228 50.7102 20.3389 51.4537 20.3403C52.2986 20.3385 53.1187 20.0547 53.784 19.5341C54.4494 19.0134 54.9219 18.2855 55.1268 17.4659C55.3316 16.6462 55.257 15.7816 54.9149 15.0092C54.5727 14.2367 53.9825 13.6005 53.2378 13.2015C52.4931 12.8024 51.6366 12.6633 50.8039 12.8062C49.9712 12.9491 49.21 13.3658 48.6409 13.9903C48.0719 14.6148 47.7276 15.4113 47.6625 16.2537C47.5974 17.096 47.8154 17.936 48.2817 18.6405L44.7149 22.2071C44.6109 22.3144 44.5406 22.4498 44.5127 22.5966C44.4847 22.7434 44.5003 22.8951 44.5576 23.0331C44.615 23.1711 44.7114 23.2893 44.8351 23.3731C44.9588 23.4569 45.1044 23.5027 45.2538 23.5048Z" fill="url(#paint3_linear_325_214)"/>
<path d="M28.6418 41.3652L27.9214 42.8825H40.1009L39.4336 41.3652H28.6418Z" fill="url(#paint4_linear_325_214)"/>
<path d="M47.8567 42.7384C48.4603 42.5386 48.9858 42.1542 49.3589 41.6394C49.7321 41.1246 49.934 40.5056 49.936 39.8698C49.8995 39.3714 50.0215 34.6314 49.8526 34.2846C49.4606 32.751 47.2231 31.5728 46.3543 30.5659L47.6518 30.5661C48.1052 30.5608 48.5383 30.377 48.857 30.0545C49.1757 29.732 49.3545 29.2968 49.3545 28.8434C49.3545 28.39 49.1757 27.9548 48.857 27.6324C48.5382 27.3099 48.1052 27.1261 47.6518 27.1208H45.7167C45.3397 27.1206 44.968 27.209 44.6315 27.3788C43.5588 25.1989 43.355 21.7741 40.3743 21.7479L34.7585 21.748V18.7238C35.4739 18.5391 36.0974 18.0999 36.512 17.4884C36.9267 16.8769 37.1041 16.1352 37.011 15.4022C36.9179 14.6693 36.5607 13.9955 36.0063 13.5071C35.452 13.0187 34.7385 12.7492 33.9997 12.7492C33.2609 12.7492 32.5474 13.0187 31.993 13.5071C31.4387 13.9955 31.0815 14.6693 30.9884 15.4022C30.8953 16.1352 31.0727 16.8769 31.4873 17.4884C31.902 18.0999 32.5254 18.5391 33.2408 18.7238V21.748H27.6251C24.6593 21.77 24.4371 25.1976 23.3678 27.3788C22.6747 26.9639 21.1169 27.1646 20.3475 27.1207C19.8907 27.1207 19.4525 27.3022 19.1294 27.6253C18.8064 27.9483 18.6249 28.3865 18.6249 28.8434C18.6249 29.3003 18.8064 29.7385 19.1294 30.0615C19.4525 30.3846 19.8907 30.5661 20.3475 30.5661H21.6452C20.6496 31.7354 17.9684 32.9975 18.0633 34.9902V39.8698C18.0658 40.6668 18.3829 41.4306 18.9458 41.9948C19.5086 42.5591 20.2716 42.8782 21.0685 42.8826H26.2364L27.4734 40.2797C27.5351 40.1507 27.632 40.0418 27.7527 39.9653C27.8735 39.8888 28.0134 39.8478 28.1564 39.8471H39.9265C40.0725 39.8472 40.2154 39.8895 40.3379 39.969C40.4604 40.0484 40.5574 40.1616 40.617 40.2948L41.7553 42.8826C42.3809 42.8329 47.3528 43.0167 47.8567 42.7384ZM22.9126 35.863H20.7347C20.5358 35.8594 20.3462 35.7779 20.2068 35.6359C20.0674 35.494 19.9893 35.303 19.9893 35.1041C19.9893 34.9051 20.0674 34.7142 20.2068 34.5722C20.3462 34.4303 20.5358 34.3488 20.7347 34.3452H22.9126C23.1122 34.3478 23.3027 34.4289 23.4429 34.5709C23.5831 34.713 23.6617 34.9045 23.6617 35.1041C23.6617 35.3037 23.5831 35.4953 23.4429 35.6373C23.3027 35.7793 23.1121 35.8604 22.9126 35.863ZM42.0589 35.863H25.948C25.7473 35.8622 25.555 35.7819 25.4133 35.6397C25.2716 35.4974 25.192 35.3049 25.192 35.1041C25.192 34.9033 25.2716 34.7107 25.4133 34.5685C25.555 34.4262 25.7473 34.346 25.948 34.3452H42.0589C42.2585 34.3478 42.449 34.4289 42.5892 34.5709C42.7294 34.713 42.808 34.9045 42.808 35.1041C42.808 35.3037 42.7294 35.4952 42.5892 35.6373C42.449 35.7793 42.2585 35.8604 42.0589 35.863ZM23.8536 30.179C23.8612 30.1714 26.0012 24.8214 26.2517 24.1763C26.3656 23.9062 26.5567 23.6758 26.801 23.5138C27.0454 23.3518 27.332 23.2655 27.6252 23.2657H40.3742C40.6646 23.2646 40.9489 23.3489 41.1918 23.5082C41.4347 23.6674 41.6254 23.8945 41.7402 24.1612C41.9831 24.791 44.1383 30.1714 44.1458 30.179H23.8536ZM44.3355 35.1041C44.3352 35.0043 44.3546 34.9055 44.3926 34.8133C44.4306 34.721 44.4865 34.6372 44.557 34.5667C44.6275 34.4962 44.7113 34.4403 44.8036 34.4023C44.8958 34.3643 44.9946 34.3449 45.0944 34.3452H47.2648C47.4656 34.346 47.6579 34.4262 47.7996 34.5685C47.9413 34.7107 48.0208 34.9033 48.0208 35.1041C48.0208 35.3049 47.9413 35.4974 47.7996 35.6397C47.6579 35.7819 47.4656 35.8622 47.2648 35.863H45.0944C44.9946 35.8633 44.8958 35.8439 44.8036 35.8059C44.7114 35.7679 44.6276 35.712 44.557 35.6415C44.4865 35.5709 44.4306 35.4872 44.3926 35.3949C44.3546 35.3027 44.3352 35.2038 44.3355 35.1041Z" fill="url(#paint5_linear_325_214)"/>
<path d="M19.695 44.1879C19.3199 44.0602 18.9608 43.8896 18.625 43.6794V44.37C18.6249 44.6172 18.6735 44.8619 18.7681 45.0903C18.8627 45.3186 19.0013 45.5261 19.176 45.7009C19.3508 45.8757 19.5583 46.0143 19.7866 46.1089C20.015 46.2035 20.2597 46.2521 20.5069 46.2521H20.6701L18.6401 48.282C17.8549 47.7637 16.9053 47.5554 15.9753 47.6974C15.0452 47.8394 14.201 48.3215 13.6062 49.0505C13.0114 49.7794 12.7083 50.7032 12.7558 51.6428C12.8033 52.5824 13.1979 53.471 13.8631 54.1362C14.5283 54.8015 15.4169 55.1961 16.3565 55.2437C17.2961 55.2912 18.2199 54.9882 18.9489 54.3935C19.6778 53.7987 20.1601 52.9545 20.3021 52.0245C20.4441 51.0944 20.2358 50.1448 19.7176 49.3596L22.8253 46.2521C23.0927 46.2881 23.3646 46.2674 23.6235 46.1916C23.8824 46.1157 24.1225 45.9863 24.3282 45.8117C24.5339 45.6372 24.7007 45.4213 24.8176 45.1782C24.9345 44.935 24.9991 44.67 25.0071 44.4004C23.9568 44.3442 20.6569 44.5682 19.695 44.1879Z" fill="url(#paint6_linear_325_214)"/>
<path d="M34 2.125C27.6957 2.125 21.533 3.99444 16.2912 7.49691C11.0494 10.9994 6.9639 15.9776 4.55135 21.802C2.13881 27.6264 1.50758 34.0354 2.73748 40.2185C3.96739 46.4016 7.00319 52.0812 11.461 56.539C15.9188 60.9968 21.5984 64.0326 27.7815 65.2625C33.9647 66.4924 40.3737 65.8612 46.1981 63.4487C52.0224 61.0361 57.0006 56.9506 60.5031 51.7088C64.0056 46.467 65.875 40.3043 65.875 34C65.8655 25.5492 62.5042 17.4472 56.5285 11.4715C50.5529 5.49585 42.4509 2.13454 34 2.125ZM34 64.0595C28.0548 64.0595 22.2431 62.2965 17.2999 58.9935C12.3566 55.6906 8.50382 50.9959 6.22869 45.5033C3.95356 40.0106 3.35828 33.9667 4.51813 28.1357C5.67799 22.3047 8.54087 16.9486 12.7448 12.7447C16.9487 8.54086 22.3047 5.67797 28.1357 4.51812C33.9667 3.35827 40.0106 3.95355 45.5033 6.22868C50.9959 8.50381 55.6906 12.3566 58.9935 17.2999C62.2965 22.2431 64.0595 28.0548 64.0595 34C64.0505 41.9695 60.8806 49.61 55.2453 55.2453C49.61 60.8806 41.9695 64.0505 34 64.0595Z" fill="url(#paint7_linear_325_214)"/>
<defs>
<linearGradient id="paint0_linear_325_214" x1="18.1298" y1="12.7516" x2="18.1298" y2="23.5047" gradientUnits="userSpaceOnUse">
<stop stop-color="#61C8FF"/>
<stop offset="1" stop-color="#016FFF"/>
</linearGradient>
<linearGradient id="paint1_linear_325_214" x1="33.9997" y1="45.3859" x2="33.9997" y2="55.2485" gradientUnits="userSpaceOnUse">
<stop stop-color="#61C8FF"/>
<stop offset="1" stop-color="#016FFF"/>
</linearGradient>
<linearGradient id="paint2_linear_325_214" x1="49.1202" y1="43.6795" x2="49.1202" y2="55.2485" gradientUnits="userSpaceOnUse">
<stop stop-color="#61C8FF"/>
<stop offset="1" stop-color="#016FFF"/>
</linearGradient>
<linearGradient id="paint3_linear_325_214" x1="49.8696" y1="12.7515" x2="49.8696" y2="23.5048" gradientUnits="userSpaceOnUse">
<stop stop-color="#61C8FF"/>
<stop offset="1" stop-color="#016FFF"/>
</linearGradient>
<linearGradient id="paint4_linear_325_214" x1="34.0112" y1="41.3652" x2="34.0112" y2="42.8825" gradientUnits="userSpaceOnUse">
<stop stop-color="#61C8FF"/>
<stop offset="1" stop-color="#016FFF"/>
</linearGradient>
<linearGradient id="paint5_linear_325_214" x1="34.0029" y1="12.7492" x2="34.0029" y2="42.8968" gradientUnits="userSpaceOnUse">
<stop stop-color="#61C8FF"/>
<stop offset="1" stop-color="#016FFF"/>
</linearGradient>
<linearGradient id="paint6_linear_325_214" x1="18.879" y1="43.6794" x2="18.879" y2="55.2485" gradientUnits="userSpaceOnUse">
<stop stop-color="#61C8FF"/>
<stop offset="1" stop-color="#016FFF"/>
</linearGradient>
<linearGradient id="paint7_linear_325_214" x1="34" y1="2.125" x2="34" y2="65.875" gradientUnits="userSpaceOnUse">
<stop stop-color="#61C8FF"/>
<stop offset="1" stop-color="#016FFF"/>
</linearGradient>
</defs>
</svg>
