<svg width="49" height="49" viewBox="0 0 49 49" fill="none" xmlns="http://www.w3.org/2000/svg">
<g clip-path="url(#clip0_549_28)">
<path d="M19.1168 25.2456C19.3633 25.2456 19.592 25.1164 19.7191 24.9051L20.9876 22.7981L22.6686 25.4692C22.8 25.6782 23.0297 25.8022 23.2784 25.7977C23.5253 25.7925 23.7513 25.6583 23.8739 25.444L26.58 20.7156L30.2145 27.339C30.3358 27.5601 30.5663 27.6993 30.8185 27.7038C30.8226 27.7038 30.8268 27.7039 30.8309 27.7039C31.0783 27.7039 31.308 27.5737 31.435 27.3606L33.6993 23.5594H39.1595C39.5478 23.5594 39.8626 23.2446 39.8626 22.8563C39.8626 22.468 39.5478 22.1532 39.1595 22.1532H33.2997C33.052 22.1532 32.8225 22.2836 32.6957 22.4965L30.856 25.5848L27.2094 18.9392C27.0869 18.7162 26.8537 18.5767 26.5992 18.5743C26.5971 18.5743 26.595 18.5743 26.5929 18.5743C26.3409 18.5743 26.108 18.7092 25.9826 18.9282L23.235 23.7291L21.5695 21.0824C21.4406 20.8778 21.2159 20.7538 20.9743 20.7538C20.9721 20.7538 20.9697 20.7538 20.9674 20.7538C20.7233 20.7562 20.4979 20.8851 20.372 21.0942L18.7194 23.8393H14.7233C14.335 23.8393 14.0201 24.1542 14.0201 24.5425C14.0201 24.9308 14.335 25.2456 14.7233 25.2456H19.1168Z" fill="url(#paint0_linear_549_28)"/>
<path d="M40.4005 5.73083C40.0122 5.73083 39.6974 6.04565 39.6974 6.43396V8.50809H37.6235C37.2352 8.50809 36.9203 8.8229 36.9203 9.21121C36.9203 9.59952 37.2352 9.91434 37.6235 9.91434H39.6974V11.9886C39.6974 12.3769 40.0122 12.6917 40.4005 12.6917C40.7889 12.6917 41.1037 12.3769 41.1037 11.9886V9.91434H43.1776C43.5659 9.91434 43.8807 9.59952 43.8807 9.21121C43.8807 8.8229 43.5659 8.50809 43.1776 8.50809H41.1037V6.43396C41.1037 6.04565 40.7889 5.73083 40.4005 5.73083Z" fill="url(#paint1_linear_549_28)"/>
<path d="M42.8815 29.8213C46.3071 26.1591 47.2888 20.6214 45.4059 15.8739C47.4264 14.351 48.7353 11.9313 48.7353 9.21119C48.7353 4.6151 44.9964 0.875977 40.4005 0.875977C38.5127 0.875977 36.664 1.52388 35.195 2.70035C34.8919 2.94307 34.8429 3.38557 35.0857 3.68866C35.3284 3.99166 35.7709 4.0407 36.074 3.79798C37.3122 2.80629 38.8083 2.28223 40.4004 2.28223C44.2208 2.28223 47.3289 5.3906 47.3289 9.21119C47.3289 13.0334 44.2209 16.1429 40.4004 16.1429C36.8433 16.1429 33.9049 13.4487 33.5147 9.99391C33.5139 9.98594 33.5126 9.97788 33.5116 9.96982C33.4843 9.72054 33.4692 9.4676 33.4692 9.21119C33.4692 8.12595 33.7131 7.08813 34.1938 6.12644C34.3674 5.7791 34.2266 5.35676 33.8794 5.18304C33.5318 5.00951 33.1097 5.15023 32.936 5.49748C32.3567 6.65613 32.063 7.90563 32.063 9.2111C32.063 9.32923 32.0661 9.4466 32.0709 9.5636C30.2955 10.1982 28.6383 11.2419 27.2495 12.6078L26.4723 13.3718C26.4685 13.3681 26.4657 13.3653 26.462 13.3615L25.6979 12.6087C23.2257 10.1712 19.9895 8.80901 16.8179 8.87463C14.1789 8.92901 11.8435 9.96307 10.0651 11.8643C9.79979 12.1484 9.81479 12.5937 10.0989 12.859C10.3829 13.1234 10.8273 13.1093 11.0926 12.8253C12.6057 11.2071 14.5951 10.3268 16.847 10.2809C19.6407 10.2237 22.5067 11.4378 24.7107 13.6099L25.4757 14.3637C25.8451 14.7274 26.1601 14.9084 26.4742 14.9084C26.7854 14.9084 27.0957 14.7303 27.4585 14.374L28.2357 13.6099C29.4036 12.4621 30.781 11.5683 32.2557 10.995C33.0748 14.7382 36.4152 17.549 40.4004 17.549C41.7647 17.549 43.0535 17.2194 44.1913 16.6355C45.7494 20.8263 44.8548 25.6474 41.8595 28.8545L31.7656 39.1869L30.9303 39.35C30.7278 39.3894 30.5487 39.425 30.3856 39.4578C29.3262 39.6725 29.0731 39.7232 27.8328 39.5319L21.8187 38.4322C20.9994 38.1491 21.0819 37.4966 21.1278 37.3007C21.2 36.996 21.4831 36.5038 22.0915 36.5957C22.0972 36.5966 22.1028 36.5975 22.1084 36.5985C22.3794 36.6332 22.67 36.6707 22.9737 36.7091C24.1128 36.8563 25.4028 37.0222 26.5484 37.1394C28.8922 37.3766 30.2178 36.1466 30.4934 34.821C30.7737 33.47 30.004 31.6738 27.6509 30.9229C27.6228 30.9144 27.5937 30.9069 27.5637 30.9013L23.6909 30.1907C21.589 29.8054 19.954 30.1025 17.479 30.5525C16.8247 30.6716 16.0822 30.8057 15.2553 30.9416L13.4197 31.2435L12.8544 30.665L11.0872 28.8557C7.78435 25.3147 7.05217 19.7685 9.30967 15.365C9.48685 15.02 9.34998 14.5963 9.00498 14.4191C8.65904 14.2419 8.23529 14.3779 8.0581 14.7238C5.53435 19.6475 6.35935 25.8557 10.0653 29.8213C10.069 29.825 10.0728 29.8288 10.0756 29.8325L11.7256 31.5219L8.65267 32.027V31.9468C8.65267 31.4039 8.1737 30.9622 7.58495 30.9622H1.80029C1.21304 30.9622 0.735291 31.4039 0.735291 31.9468V44.3185C0.735291 44.8614 1.21304 45.3031 1.80029 45.3031H7.58504C8.17379 45.3031 8.65276 44.8614 8.65276 44.3185V44.2333L14.9759 45.9538L20.8128 47.54C22.145 47.9535 23.2184 48.1241 24.1981 48.1241C25.7487 48.1241 27.0659 47.6985 28.8059 47.136C28.9606 47.0863 29.119 47.0347 29.2822 46.9822L40.7844 43.2941C42.1175 42.8666 43.0662 41.9066 43.3212 40.7263C43.519 39.8113 43.2434 38.9075 42.5834 38.3085C42.049 37.8238 40.7928 37.1282 38.3712 37.8941L34.1956 38.7107L42.8712 29.8325C42.875 29.8288 42.8778 29.825 42.8815 29.8213ZM2.14154 43.8968V32.3684H7.24642V32.8515C7.24642 32.853 7.24623 32.8544 7.24623 32.8559V43.3128C7.24623 43.3136 7.24642 43.3144 7.24642 43.3152V43.8968H2.14154ZM38.7603 39.246C40.0578 38.8297 41.1069 38.8672 41.6394 39.35C41.9262 39.6107 42.0387 40.0044 41.9469 40.4282C41.7987 41.1116 41.2034 41.6825 40.355 41.9544L28.8519 45.6435C28.6878 45.696 28.5284 45.7475 28.3728 45.7982C25.6212 46.6869 24.2403 47.1341 21.2178 46.1938C21.2103 46.191 21.2019 46.1891 21.1934 46.1863L8.65267 42.7758V33.4522L15.4831 32.33C16.3212 32.1922 17.0703 32.0554 17.7312 31.9354C20.1359 31.4985 21.5881 31.235 23.4369 31.5744L27.2647 32.2766C28.7572 32.7669 29.2719 33.7879 29.1162 34.535C28.9372 35.3985 27.9847 35.8719 26.6909 35.7407C25.564 35.6254 24.2834 35.4604 23.1537 35.315C22.8519 35.2757 22.5622 35.2382 22.2931 35.2044C20.9487 35.0057 20.0009 35.946 19.759 36.98C19.7075 37.2004 19.6869 37.4347 19.7019 37.671C19.7534 38.526 20.2644 39.4129 21.4306 39.785C21.4597 39.7944 21.8478 39.8666 21.8478 39.8666L27.59 40.9166C27.5956 40.9175 27.6022 40.9185 27.6087 40.9194C28.7937 41.1041 29.3065 41.0882 30.0331 40.9597C30.2234 40.926 30.9997 40.7685 31.1994 40.73L32.465 40.4825C32.465 40.4825 38.734 39.2544 38.7603 39.246Z" fill="url(#paint2_linear_549_28)"/>
</g>
<defs>
<linearGradient id="paint0_linear_549_28" x1="26.9414" y1="18.5743" x2="26.9414" y2="27.7039" gradientUnits="userSpaceOnUse">
<stop offset="0.1" stop-color="#019BFF"/>
<stop offset="0.88" stop-color="#017AFF"/>
</linearGradient>
<linearGradient id="paint1_linear_549_28" x1="40.4005" y1="5.73083" x2="40.4005" y2="12.6917" gradientUnits="userSpaceOnUse">
<stop offset="0.1" stop-color="#019BFF"/>
<stop offset="0.88" stop-color="#017AFF"/>
</linearGradient>
<linearGradient id="paint2_linear_549_28" x1="24.7353" y1="0.875977" x2="24.7353" y2="48.1241" gradientUnits="userSpaceOnUse">
<stop offset="0.1" stop-color="#019BFF"/>
<stop offset="0.88" stop-color="#017AFF"/>
</linearGradient>
<clipPath id="clip0_549_28">
<rect width="48" height="48" fill="white" transform="translate(0.735291 0.5)"/>
</clipPath>
</defs>
</svg>
