<svg width="48" height="48" viewBox="0 0 48 48" fill="none" xmlns="http://www.w3.org/2000/svg">
<path fill-rule="evenodd" clip-rule="evenodd" d="M46.7694 15.3301L44.8959 14.609C44.6233 13.6087 44.2257 12.6495 43.7101 11.7482L44.5254 9.91231C44.6513 9.62881 44.5897 9.29694 44.3703 9.07756L41.7885 6.49587C41.5691 6.2765 41.2375 6.21481 40.9538 6.34072L39.1174 7.15634C38.2162 6.64081 37.2571 6.24331 36.2575 5.97069L35.5362 4.09672C35.4248 3.80713 35.1466 3.61616 34.8363 3.61616H31.1852C30.8749 3.61616 30.5967 3.80722 30.4852 4.09672L29.7638 5.97078C28.7643 6.24331 27.8053 6.64091 26.904 7.15644L25.0675 6.34081C24.7838 6.21481 24.4522 6.2765 24.2328 6.49597L21.651 9.07775C21.4316 9.29713 21.37 9.62891 21.4959 9.9125L22.3116 11.7487C21.7959 12.6499 21.3984 13.6088 21.1258 14.6088L19.252 15.3301C18.9625 15.4416 18.7715 15.7197 18.7715 16.0301V19.6812C18.7715 19.9915 18.9625 20.2696 19.252 20.3811L21.1254 21.1022C21.3982 22.1024 21.7958 23.0618 22.3114 23.9629L21.4959 25.7987C21.37 26.0823 21.4316 26.4141 21.651 26.6335L24.2328 29.2152C24.4522 29.4346 24.7839 29.4963 25.0675 29.3704L26.9041 28.5547C27.8054 29.0703 28.7644 29.4678 29.7639 29.7403L30.4852 31.6143C30.5966 31.9039 30.8749 32.0949 31.1852 32.0949H34.8363C35.1466 32.0949 35.4248 31.9038 35.5362 31.6143L36.2573 29.7408C37.2576 29.4682 38.2167 29.0706 39.1181 28.555L40.9539 29.3703C41.2373 29.4963 41.5691 29.4346 41.7887 29.2152L44.3704 26.6335C44.5897 26.4141 44.6513 26.0823 44.5254 25.7987L43.7098 23.9622C44.2253 23.0609 44.6228 22.102 44.8954 21.1024L46.7694 20.3811C47.0589 20.2697 47.25 19.9915 47.25 19.6812V16.0301C47.25 15.7197 47.0589 15.4415 46.7694 15.3301ZM45.75 19.1662L43.9951 19.8417C43.7643 19.9304 43.5922 20.1273 43.535 20.368C43.2699 21.4815 42.8303 22.5418 42.2284 23.5195C42.0987 23.7301 42.0813 23.991 42.1816 24.2171L42.9454 25.937L41.0919 27.7905L39.3727 27.0269C39.1468 26.9265 38.8857 26.944 38.675 27.0737C37.6974 27.6757 36.6369 28.1154 35.5227 28.3805C35.2822 28.4378 35.0852 28.6099 34.9964 28.8407L34.3211 30.595H31.7L31.0245 28.8402C30.9357 28.6093 30.7388 28.4372 30.4982 28.3799C29.3848 28.115 28.3244 27.6754 27.3468 27.0734C27.136 26.9437 26.875 26.9263 26.6492 27.0266L24.9292 27.7904L23.0756 25.9369L23.8393 24.2177C23.9396 23.9916 23.9222 23.7306 23.7924 23.5199C23.1906 22.5427 22.751 21.4821 22.4857 20.3676C22.4285 20.127 22.2563 19.9302 22.0255 19.8414L20.2713 19.1661V16.5448L22.0259 15.8694C22.2567 15.7805 22.4288 15.5836 22.486 15.3431C22.7512 14.2291 23.1908 13.1688 23.7927 12.1915C23.9225 11.9808 23.9399 11.7198 23.8396 11.4937L23.0758 9.77403L24.9293 7.9205L26.6493 8.68428C26.8752 8.7845 27.1361 8.76716 27.3469 8.63741C28.3246 8.03553 29.3848 7.59594 30.4984 7.33091C30.7388 7.27363 30.9358 7.1015 31.0246 6.87069L31.7002 5.11588H34.3213L34.9968 6.87069C35.0856 7.1015 35.2825 7.27363 35.523 7.33091C36.6366 7.59594 37.6969 8.03553 38.6745 8.63741C38.8853 8.76716 39.1462 8.7845 39.3721 8.68428L41.092 7.92041L42.9456 9.77394L42.182 11.4932C42.0817 11.7192 42.0991 11.9803 42.2288 12.1909C42.8308 13.1683 43.2704 14.2288 43.5355 15.3432C43.5927 15.5837 43.7648 15.7807 43.9957 15.8695L45.75 16.5449V19.1662ZM33.0106 10.1344C28.7531 10.1344 25.2894 13.5981 25.2894 17.8556C25.2894 22.113 28.7531 25.5767 33.0106 25.5767C37.268 25.5767 40.7317 22.113 40.7317 17.8556C40.7317 13.5981 37.268 10.1344 33.0106 10.1344ZM33.0106 24.0767C29.5802 24.0767 26.7894 21.2859 26.7894 17.8556C26.7894 14.4252 29.5803 11.6344 33.0106 11.6344C36.4409 11.6344 39.2317 14.4252 39.2317 17.8556C39.2317 21.2859 36.4409 24.0767 33.0106 24.0767ZM2.98763 16.1584L2.51972 17.212C2.39381 17.4955 2.45541 17.8273 2.67478 18.0467L4.32975 19.7017C4.54922 19.9211 4.88081 19.9827 5.1645 19.8568L6.21853 19.3887C6.741 19.676 7.2915 19.9043 7.863 20.0704L8.277 21.1459C8.38838 21.4354 8.66663 21.6265 8.97694 21.6265H11.3175C11.6278 21.6265 11.906 21.4354 12.0174 21.1459L12.4313 20.0709C13.0031 19.9046 13.554 19.6763 14.0764 19.3888L15.1298 19.8568C15.4132 19.9827 15.7451 19.9212 15.9646 19.7017L17.6196 18.0466C17.8389 17.8273 17.9005 17.4955 17.7746 17.2119L17.3065 16.1578C17.5938 15.6355 17.8222 15.0849 17.9883 14.5133L19.0639 14.0993C19.3534 13.9879 19.5444 13.7097 19.5444 13.3993V11.0589C19.5444 10.7486 19.3534 10.4704 19.0639 10.3589L17.9887 9.94503C17.8225 9.37334 17.5941 8.82256 17.3067 8.3L17.7746 7.24644C17.9005 6.96294 17.8389 6.63106 17.6196 6.41169L15.9647 4.75691C15.7452 4.53753 15.4136 4.47594 15.1299 4.60175L14.0759 5.06984C13.5535 4.78259 13.0029 4.55422 12.4314 4.38809L12.0175 3.31259C11.9062 3.02309 11.6279 2.83203 11.3176 2.83203H8.97703C8.66672 2.83203 8.38856 3.02309 8.27709 3.31259L7.86309 4.38809C7.29169 4.55431 6.741 4.78259 6.21863 5.06994L5.16459 4.60175C4.88091 4.47594 4.54931 4.53753 4.32984 4.75691L2.67478 6.41197C2.45541 6.63134 2.39381 6.96313 2.51972 7.24672L2.98781 8.30047C2.70047 8.82284 2.47219 9.37344 2.30588 9.94513L1.23056 10.3591C0.941063 10.4706 0.75 10.7488 0.75 11.0591V13.3995C0.75 13.7098 0.941063 13.988 1.23056 14.0995L2.30569 14.5133C2.472 15.0852 2.70037 15.636 2.98763 16.1584ZM2.25 11.574L3.20222 11.2075C3.43303 11.1186 3.60516 10.9218 3.66234 10.6813C3.82566 9.995 4.09659 9.34175 4.46738 8.73978C4.59713 8.52913 4.61466 8.26803 4.51425 8.042L4.09959 7.10853L5.02631 6.18181L5.95997 6.59647C6.18591 6.69669 6.44681 6.67934 6.65756 6.54969C7.26 6.17872 7.91316 5.90797 8.59903 5.74475C8.8395 5.68747 9.03647 5.51534 9.12525 5.28453L9.49191 4.33212H10.8024L11.169 5.28453C11.2578 5.51534 11.4548 5.68747 11.6952 5.74475C12.3812 5.90797 13.0343 6.17881 13.6367 6.54959C13.8474 6.67934 14.1084 6.69669 14.3343 6.59647L15.2679 6.18181L16.1947 7.10853L15.7802 8.04172C15.6799 8.26775 15.6973 8.52875 15.8271 8.73941C16.198 9.34184 16.4689 9.99519 16.632 10.6813C16.6892 10.9218 16.8614 11.1188 17.0922 11.2077L18.0443 11.5741V12.8848L17.0919 13.2513C16.8612 13.3401 16.689 13.537 16.6318 13.7775C16.4685 14.4635 16.1977 15.1167 15.8269 15.7189C15.6971 15.9296 15.6797 16.1906 15.78 16.4166L16.1947 17.3502L15.2679 18.277L14.3348 17.8625C14.1088 17.7621 13.8478 17.7795 13.6371 17.9094C13.035 18.2802 12.3817 18.5511 11.6952 18.7144C11.4547 18.7717 11.2577 18.9438 11.1689 19.1746L10.8024 20.1267H9.49191L9.12525 19.1742C9.03647 18.9435 8.8395 18.7713 8.59903 18.714C7.91306 18.5508 7.25991 18.2801 6.65766 17.9092C6.44709 17.7794 6.18591 17.7621 5.96006 17.8623L5.02631 18.277L4.09959 17.3502L4.51406 16.417C4.61438 16.1909 4.59694 15.9299 4.46719 15.7193C4.09641 15.1171 3.82556 14.4638 3.66216 13.7773C3.60497 13.5368 3.43284 13.3398 3.20203 13.251L2.25 12.8847V11.574ZM10.1472 17.0611C12.8115 17.0611 14.9791 14.8936 14.9791 12.2293C14.9791 9.56506 12.8115 7.39738 10.1472 7.39738C7.48294 7.39738 5.31534 9.56497 5.31534 12.2293C5.31534 14.8936 7.48294 17.0611 10.1472 17.0611ZM10.1472 8.89747C11.9844 8.89747 13.4791 10.3921 13.4791 12.2294C13.4791 14.0666 11.9844 15.5612 10.1472 15.5612C8.31 15.5612 6.81534 14.0666 6.81534 12.2294C6.81534 10.3921 8.31009 8.89747 10.1472 8.89747ZM38.1441 34.3909L29.4274 36.7622C29.0437 36.8666 28.6685 36.919 28.2941 36.919C28.2934 36.919 28.2925 36.919 28.2918 36.919C28.468 36.7374 28.6265 36.5269 28.7641 36.2886C29.5504 34.927 29.0897 33.1621 27.7154 32.2708C27.687 32.2525 27.6575 32.236 27.6269 32.2216C25.5687 31.2522 23.6392 29.9072 22.0888 28.8267C21.5494 28.4506 21.0399 28.0955 20.6013 27.8111C18.8198 26.6554 16.852 26.9647 15.162 27.4198L8.73816 29.1495L8.47416 28.1294C8.34741 27.6395 8.03644 27.2277 7.59844 26.9697C7.16044 26.7119 6.64969 26.6398 6.15956 26.7665L3.72319 27.397C2.70947 27.6594 2.09803 28.6977 2.36025 29.7115L5.63531 42.3673C5.76206 42.8573 6.07303 43.2691 6.51103 43.527C6.80794 43.7019 7.13831 43.7914 7.47309 43.7914C7.63209 43.7914 7.79203 43.7712 7.94981 43.7304L10.3862 43.1C10.8761 42.9732 11.2879 42.6623 11.5458 42.2243C11.8037 41.7863 11.8759 41.2753 11.7491 40.7855L11.4257 39.5356L12.8244 39.1608L21.7676 44.3242C22.7396 44.8855 23.7755 45.1691 24.8271 45.1691C25.4072 45.1691 25.9923 45.0827 26.574 44.9092L42.5148 40.1501C43.9963 39.7078 44.929 37.8447 44.4717 36.2412C44.2499 35.4635 43.1379 33.0324 38.1441 34.3909ZM10.2533 41.4631C10.2217 41.5168 10.1481 41.6121 10.0104 41.6478L7.57397 42.2783C7.43634 42.3135 7.32591 42.2662 7.27209 42.2346C7.21847 42.203 7.12313 42.1294 7.0875 41.9918L3.81253 29.3355C3.75834 29.126 3.88959 28.9032 4.09912 28.849L6.5355 28.2185C6.57009 28.2095 6.603 28.2058 6.63375 28.2058C6.72516 28.2058 6.79725 28.2386 6.83747 28.2622C6.89109 28.2938 6.98644 28.3674 7.02206 28.5049L10.297 41.1612C10.3326 41.2989 10.2848 41.4094 10.2533 41.4631ZM42.0857 38.7126L26.1448 43.4717C24.8963 43.8443 23.676 43.6939 22.5177 43.0251L13.3054 37.7064C13.1331 37.6069 12.9281 37.58 12.7363 37.6315L11.0499 38.0833L9.114 30.6016L15.5521 28.8682C16.9918 28.4805 18.5013 28.2366 19.785 29.0695C20.2027 29.3403 20.6793 29.6726 21.2312 30.0572C22.8156 31.1616 24.7843 32.5338 26.9375 33.5549C27.6237 34.0248 27.8513 34.8698 27.4652 35.5387C26.9573 36.4183 26.1328 36.3248 25.5199 36.0835C24.473 35.5587 23.4998 34.9756 22.4701 34.3584C21.9808 34.0651 21.4749 33.7618 20.9521 33.46C20.5934 33.2528 20.1347 33.3757 19.9275 33.7345C19.7204 34.0933 19.8434 34.5519 20.2021 34.759C20.7143 35.0547 21.2149 35.3547 21.6989 35.6449C22.7627 36.2825 23.7674 36.8848 24.8758 37.4387C24.8798 37.4407 24.8839 37.442 24.8879 37.4439C24.8931 37.4464 24.8979 37.4493 24.9032 37.4518L25.8001 37.8555C27.1549 38.4612 28.4705 38.577 29.8211 38.2097L38.5379 35.8384C41.0128 35.1653 42.692 35.4695 43.0293 36.6526C43.2607 37.4643 42.7846 38.504 42.0857 38.7126ZM6.56616 30.4499C6.51591 30.8788 6.1275 31.1859 5.6985 31.1356C5.26959 31.0854 4.96266 30.6969 5.01291 30.268C5.06316 29.8391 5.45156 29.532 5.88047 29.5823C6.30947 29.6325 6.61641 30.021 6.56616 30.4499Z" fill="url(#paint0_linear_61_170)"/>
<defs>
<linearGradient id="paint0_linear_61_170" x1="24" y1="2.83203" x2="24" y2="45.1691" gradientUnits="userSpaceOnUse">
<stop stop-color="#00AEFF"/>
<stop offset="1" stop-color="#0071FF"/>
</linearGradient>
</defs>
</svg>
