<svg width="49" height="49" viewBox="0 0 49 49" fill="none" xmlns="http://www.w3.org/2000/svg">
<path fill-rule="evenodd" clip-rule="evenodd" d="M19.2986 23.8459C19.5648 24.1122 19.5648 24.5438 19.2986 24.81C19.0323 25.0763 18.6007 25.0763 18.3345 24.81L14.7157 21.1913C14.4495 20.925 14.4495 20.4934 14.7157 20.2272L18.3345 16.6084C18.6007 16.3422 19.0323 16.3422 19.2986 16.6084C19.5648 16.8747 19.5648 17.3063 19.2986 17.5725L16.1619 20.7092L19.2986 23.8459ZM27.0344 24.9345C26.7681 25.2008 26.3365 25.2008 26.0702 24.9345C25.804 24.6683 25.804 24.2367 26.0702 23.9704L29.2069 20.8336L26.0702 17.697C25.804 17.4307 25.804 16.9991 26.0702 16.7328C26.3365 16.4666 26.7681 16.4666 27.0344 16.7328L30.6531 20.3516C30.9194 20.6178 30.9194 21.0495 30.6531 21.3157L27.0344 24.9345V24.9345ZM21.8373 26.5635C21.7403 26.9268 21.367 27.1426 21.0037 27.0456C20.6404 26.9486 20.4246 26.5753 20.5216 26.212L23.5314 14.9793C23.6284 14.616 24.0017 14.4002 24.365 14.4973C24.7283 14.5943 24.9441 14.9676 24.8471 15.3309L21.8373 26.5635ZM10.0274 7.88461C9.65086 7.88461 9.34561 7.57936 9.34561 7.20277C9.34561 6.8228 9.64617 6.52102 10.0463 6.52102C10.4228 6.52102 10.728 6.82627 10.728 7.20277C10.728 7.58273 10.4275 7.88461 10.0274 7.88461ZM12.5788 7.88461C12.2023 7.88461 11.8969 7.57936 11.8969 7.20277C11.8969 6.8228 12.1975 6.52102 12.5976 6.52102C12.9741 6.52102 13.2795 6.82627 13.2795 7.20277C13.2795 7.58273 12.9789 7.88461 12.5788 7.88461ZM15.1302 7.88461C14.7537 7.88461 14.4484 7.57936 14.4484 7.20277C14.4484 6.8228 14.749 6.52102 15.1491 6.52102C15.5256 6.52102 15.8309 6.82627 15.8309 7.20277C15.8309 7.58273 15.5303 7.88461 15.1302 7.88461ZM38.6183 9.27192L38.6185 9.27455C39.6179 9.26433 40.5271 9.65864 41.1899 10.305C41.8462 10.9453 42.2881 11.8857 42.2881 12.8682L42.2855 12.8684C42.2957 13.8677 41.9014 14.777 41.255 15.4396C40.6149 16.0959 39.6743 16.5379 38.6919 16.5379V16.5353C37.6923 16.5455 36.783 16.1512 36.1204 15.5048C35.4641 14.8645 35.0221 13.9242 35.0221 12.9416H35.0248C35.0145 11.9421 35.4089 11.0328 36.0552 10.3702C36.6953 9.71395 37.6359 9.27192 38.6183 9.27192ZM38.6185 10.6355C37.3898 10.6355 36.3605 11.6859 36.3832 12.9415H36.3857C36.3857 14.1703 37.4362 15.1995 38.6918 15.1769V15.1743C39.9205 15.1743 40.9499 14.1238 40.9271 12.8684H40.9245C40.9245 11.6395 39.874 10.6103 38.6186 10.6331V10.6356L38.6185 10.6355ZM30.0188 11.4293H7.20023V28.8503H38.1685V21.5295L37.206 21.5415C36.8765 21.5453 36.599 21.3138 36.5335 21.0031L36.5322 21.0034L36.2436 19.6654L35.625 19.4119L34.5293 20.1581C34.2495 20.349 33.878 20.3028 33.6524 20.0646L31.524 17.9886C31.2881 17.7592 31.2543 17.4003 31.4257 17.1339L31.4254 17.1337L32.1694 15.9805L31.9102 15.363L30.6099 15.1162C30.2734 15.0532 30.0416 14.7525 30.0555 14.4201L30.0185 11.4555C30.0184 11.4467 30.0185 11.4379 30.0187 11.4291L30.0188 11.4293ZM33.1847 10.9216L33.0831 11.2278C33.0258 11.4783 32.8285 11.6855 32.5605 11.7422L31.3838 11.996L31.4073 13.8832L32.523 14.095C32.7794 14.1304 33.0041 14.3111 33.0827 14.5752C33.1782 14.8947 33.3685 15.3805 33.531 15.6613C33.6652 15.8773 33.6723 16.1601 33.5258 16.3884L32.871 17.4031L34.2223 18.7211L35.1784 18.07C35.3826 17.9253 35.6592 17.8992 35.8945 18.0257C36.1934 18.1868 36.6599 18.393 36.9781 18.4771C37.2285 18.5345 37.4357 18.7319 37.4925 18.9997L37.7463 20.1764L39.6335 20.1528L39.8453 19.0371C39.8806 18.7808 40.0614 18.5561 40.3255 18.4774C40.6448 18.3821 41.1309 18.1917 41.4115 18.0292C41.6275 17.895 41.9103 17.8878 42.1386 18.0344L43.1535 18.6891L44.4714 17.338L43.8203 16.3817C43.6756 16.1775 43.6495 15.901 43.776 15.6657C43.948 15.3465 44.1359 14.9153 44.2305 14.5694C44.2915 14.3246 44.4868 14.1235 44.75 14.0676L45.9266 13.8139L45.9031 11.9267L44.7873 11.715C44.531 11.6795 44.3063 11.4989 44.2276 11.2348C44.1323 10.9155 43.9418 10.4292 43.7794 10.1488C43.6452 9.93277 43.638 9.64992 43.7846 9.42164L44.4393 8.4068L43.0882 7.08886L42.132 7.73995C41.9278 7.88461 41.6512 7.91077 41.4159 7.7842C41.0965 7.61208 40.6659 7.42448 40.3197 7.3298C40.0749 7.26877 39.8737 7.07358 39.8179 6.81023L39.5641 5.63367L37.677 5.65711L37.4653 6.77264C37.4298 7.02895 37.2492 7.25367 36.9851 7.33233C36.6657 7.42767 36.1793 7.61817 35.8987 7.78064C35.6827 7.91489 35.3999 7.92192 35.1716 7.77548L34.157 7.12092L32.8391 8.47205L33.4903 9.42839C33.6349 9.63258 33.6611 9.90914 33.5345 10.1445L33.1847 10.9217V10.9216ZM7.20023 10.0657H32.0628C32.0906 10.0013 32.119 9.93773 32.1481 9.87492L31.4019 8.77908C31.2109 8.49933 31.2571 8.1278 31.4954 7.90214L31.5124 7.88461H20.2185C19.842 7.88461 19.5368 7.57936 19.5368 7.20277C19.5368 6.82617 19.842 6.52102 20.2185 6.52102H32.8425L33.5715 5.77383C33.8009 5.53795 34.1597 5.5042 34.4261 5.67558L34.4263 5.6753L35.5792 6.41911L36.1969 6.1598L36.4437 4.85967C36.5067 4.5232 36.8074 4.29136 37.1398 4.30523L38.1685 4.29248V3.38527H7.20023V10.0658V10.0657ZM33.745 43.6437H11.788V45.6149H33.745V43.6437ZM27.5418 42.2801C26.3429 41.2999 25.5333 39.8785 25.3531 38.2825H20.1799C19.9996 39.8789 19.1903 41.2996 17.9912 42.2801H27.5419H27.5418ZM26.7281 38.2825H40.6343C41.9769 38.2825 43.073 37.1865 43.073 35.8439V20.2181C43.3037 20.2806 43.5605 20.2195 43.739 20.036L45.815 17.9077C46.0532 17.682 46.0994 17.3105 45.9085 17.0308L45.1623 15.9349L45.4162 15.3163L46.7537 15.0279L46.7535 15.0266C47.0641 14.961 47.2956 14.6835 47.2918 14.354L47.2548 11.3895C47.2687 11.0571 47.0369 10.7565 46.7004 10.6934L45.4 10.4465L45.1408 9.82908L45.8848 8.67586L45.8845 8.67567C46.0559 8.40923 46.0221 8.05045 45.7862 7.82105L43.6579 5.74495C43.4323 5.50673 43.0607 5.46052 42.781 5.65148L41.6852 6.39764L41.0666 6.14377L40.7781 4.80623L40.7768 4.80652C40.7113 4.49583 40.4338 4.26436 40.1042 4.2682L39.532 4.27533V2.70333C39.532 2.32683 39.2267 2.02148 38.8502 2.02148H6.51839C6.14189 2.02148 5.83655 2.32673 5.83655 2.70333V8.59017H4.73423C3.39164 8.59017 2.29561 9.6862 2.29561 11.0288V35.8438C2.29561 37.1864 3.39164 38.2824 4.73423 38.2824H18.8048C18.4715 40.5482 16.505 42.2799 14.1787 42.2799C11.8524 42.2799 11.3128 42.28 11.3128 42.28C11.0701 42.28 10.8482 42.3802 10.686 42.5418L10.6847 42.5405C10.524 42.7012 10.4243 42.9236 10.4243 43.1686V46.0898C10.4243 46.3349 10.5241 46.5572 10.6847 46.7179L10.686 46.7166C10.8482 46.8782 11.0701 46.9785 11.3128 46.9785H34.2198C34.71 46.9785 35.1084 46.5799 35.1084 46.0899V43.1687C35.1084 42.6787 34.71 42.2802 34.2198 42.2802H31.354C29.0277 42.2801 27.0612 40.5484 26.7279 38.2826L26.7281 38.2825ZM41.7094 33.6526V35.8439C41.7094 36.4336 41.2243 36.9189 40.6343 36.9189H4.73433C4.14445 36.9189 3.6593 36.4337 3.6593 35.8439V33.6526H41.7094ZM3.6593 32.289H41.7094V19.4008L41.1135 19.6498L40.8667 20.9501C40.8037 21.2865 40.503 21.5184 40.1707 21.5045L39.5321 21.5125V29.5321C39.5321 29.9086 39.2268 30.2139 38.8503 30.2139H6.51839C6.14189 30.2139 5.83655 29.9086 5.83655 29.5321V9.95386H4.73423C4.14445 9.95386 3.6592 10.4391 3.6592 11.0289L3.6593 32.289Z" fill="url(#paint0_linear_61_396)"/>
<defs>
<linearGradient id="paint0_linear_61_396" x1="24.7937" y1="2.02148" x2="24.7937" y2="46.9785" gradientUnits="userSpaceOnUse">
<stop stop-color="#61C8FF"/>
<stop offset="1" stop-color="#0170FF"/>
</linearGradient>
</defs>
</svg>
