<svg width="68" height="69" viewBox="0 0 68 69" fill="none" xmlns="http://www.w3.org/2000/svg">
<path d="M45.6875 11.125C48.7861 11.1287 51.7567 12.3612 53.9478 14.5522C56.1388 16.7433 57.3713 19.7139 57.375 22.8125C57.375 23.0943 57.4869 23.3645 57.6862 23.5638C57.8855 23.7631 58.1557 23.875 58.4375 23.875C58.7193 23.875 58.9895 23.7631 59.1888 23.5638C59.3881 23.3645 59.5 23.0943 59.5 22.8125C59.4958 19.1505 58.0392 15.6397 55.4498 13.0502C52.8603 10.4608 49.3495 9.00422 45.6875 9C45.4057 9 45.1355 9.11194 44.9362 9.3112C44.7369 9.51046 44.625 9.78071 44.625 10.0625C44.625 10.3443 44.7369 10.6145 44.9362 10.8138C45.1355 11.0131 45.4057 11.125 45.6875 11.125Z" fill="url(#paint0_linear_325_192)"/>
<path d="M45.6875 19.625C46.5329 19.625 47.3436 19.9608 47.9414 20.5586C48.5392 21.1564 48.875 21.9671 48.875 22.8125C48.875 23.0943 48.9869 23.3645 49.1862 23.5638C49.3855 23.7631 49.6557 23.875 49.9375 23.875C50.2193 23.875 50.4895 23.7631 50.6888 23.5638C50.8881 23.3645 51 23.0943 51 22.8125C50.9983 21.4041 50.4381 20.0538 49.4421 19.0579C48.4462 18.0619 47.0959 17.5017 45.6875 17.5C45.4057 17.5 45.1355 17.6119 44.9362 17.8112C44.7369 18.0105 44.625 18.2807 44.625 18.5625C44.625 18.8443 44.7369 19.1145 44.9362 19.3138C45.1355 19.5131 45.4057 19.625 45.6875 19.625Z" fill="url(#paint1_linear_325_192)"/>
<path d="M45.6875 15.375C47.6594 15.3772 49.5498 16.1616 50.9441 17.5559C52.3384 18.9502 53.1228 20.8406 53.125 22.8125C53.125 23.0943 53.2369 23.3645 53.4362 23.5638C53.6355 23.7631 53.9057 23.875 54.1875 23.875C54.4693 23.875 54.7395 23.7631 54.9388 23.5638C55.1381 23.3645 55.25 23.0943 55.25 22.8125C55.2472 20.2772 54.2388 17.8466 52.4461 16.0539C50.6534 14.2612 48.2228 13.2528 45.6875 13.25C45.4057 13.25 45.1355 13.3619 44.9362 13.5612C44.7369 13.7605 44.625 14.0307 44.625 14.3125C44.625 14.5943 44.7369 14.8645 44.9362 15.0638C45.1355 15.2631 45.4057 15.375 45.6875 15.375Z" fill="url(#paint2_linear_325_192)"/>
<path d="M15.9375 55.75C15.3071 55.75 14.6908 55.9369 14.1666 56.2872C13.6424 56.6374 13.2339 57.1353 12.9926 57.7177C12.7514 58.3001 12.6883 58.941 12.8112 59.5593C12.9342 60.1777 13.2378 60.7456 13.6836 61.1914C14.1294 61.6372 14.6973 61.9408 15.3157 62.0638C15.934 62.1867 16.5749 62.1236 17.1573 61.8824C17.7397 61.6411 18.2376 61.2326 18.5878 60.7084C18.9381 60.1842 19.125 59.5679 19.125 58.9375C19.125 58.0921 18.7892 57.2814 18.1914 56.6836C17.5936 56.0858 16.7829 55.75 15.9375 55.75ZM15.9375 60C15.7274 60 15.5219 59.9377 15.3472 59.8209C15.1725 59.7042 15.0363 59.5382 14.9559 59.3441C14.8755 59.15 14.8544 58.9363 14.8954 58.7302C14.9364 58.5241 15.0376 58.3348 15.1862 58.1862C15.3348 58.0376 15.5241 57.9364 15.7302 57.8954C15.9363 57.8544 16.15 57.8755 16.3441 57.9559C16.5382 58.0363 16.7042 58.1725 16.8209 58.3472C16.9377 58.5219 17 58.7274 17 58.9375C17 59.2193 16.8881 59.4895 16.6888 59.6888C16.4895 59.8881 16.2193 60 15.9375 60Z" fill="url(#paint3_linear_325_192)"/>
<path d="M63.75 51.6806V48.3125C63.7473 46.4393 63.0379 44.636 61.7635 43.2631C60.4891 41.8902 58.7435 41.0487 56.8756 40.9069L52.1687 34.4894C51.7012 33.8625 51.2125 33.2675 50.6919 32.6937V32.6831C48.4956 30.2531 45.8158 28.3089 42.8242 26.9751C39.8327 25.6412 36.5954 24.9472 33.32 24.9375H28.1988C31.0888 21.0806 34 16.4056 34 13.25C34 10.4321 32.8806 7.72956 30.888 5.73699C28.8954 3.74442 26.1929 2.625 23.375 2.625C20.5571 2.625 17.8546 3.74442 15.862 5.73699C13.8694 7.72956 12.75 10.4321 12.75 13.25C12.75 16.4056 15.6612 21.0806 18.5512 24.9375H14.4606C12.8226 24.9396 11.2307 25.4806 9.93074 26.4772C8.63074 27.4738 7.69486 28.8706 7.2675 30.4519L4.28188 41.6613C4.27125 41.7038 4.2925 41.7356 4.28188 41.7781C4.26618 41.8301 4.25551 41.8835 4.25 41.9375V51.6806C3.62948 51.9023 3.09244 52.31 2.71215 52.8481C2.33186 53.3862 2.12682 54.0286 2.125 54.6875V56.8125C2.12752 57.6571 2.46416 58.4664 3.06138 59.0636C3.65861 59.6608 4.4679 59.9975 5.3125 60H8.585C8.83904 61.7689 9.72231 63.387 11.0728 64.5573C12.4233 65.7277 14.1504 66.372 15.9375 66.372C17.7246 66.372 19.4517 65.7277 20.8022 64.5573C22.1527 63.387 23.036 61.7689 23.29 60H44.71C44.964 61.7689 45.8473 63.387 47.1978 64.5573C48.5483 65.7277 50.2754 66.372 52.0625 66.372C53.8496 66.372 55.5767 65.7277 56.9272 64.5573C58.2777 63.387 59.161 61.7689 59.415 60H62.6875C63.5321 59.9975 64.3414 59.6608 64.9386 59.0636C65.5358 58.4664 65.8725 57.6571 65.875 56.8125V54.6875C65.8732 54.0286 65.6681 53.3862 65.2878 52.8481C64.9076 52.31 64.3705 51.9023 63.75 51.6806ZM51 36.4975L54.2194 40.875H51V36.4975ZM35.0625 27.1475C40.338 27.5867 45.2615 29.9726 48.875 33.8412V40.875H35.0625V27.1475ZM31.875 27.0625H32.9375V40.875H31.875V27.0625ZM16.6175 18.1588C15.6687 16.6774 15.0726 14.998 14.875 13.25C14.875 10.9957 15.7705 8.83365 17.3646 7.23959C18.9587 5.64553 21.1207 4.75 23.375 4.75C25.6293 4.75 27.7913 5.64553 29.3854 7.23959C30.9795 8.83365 31.875 10.9957 31.875 13.25C31.875 15.5875 29.4419 19.9862 25.2131 25.3412C24.4906 26.255 23.8425 27.02 23.375 27.5725C22.9075 27.02 22.2594 26.255 21.5369 25.3412C19.7091 23.0814 18.0641 20.6797 16.6175 18.1588ZM15.9375 27.0625H20.1981C21.5475 28.7413 22.5356 29.8463 22.5888 29.8994C22.6906 30.0052 22.8127 30.0893 22.9478 30.1468C23.0829 30.2043 23.2282 30.2339 23.375 30.2339C23.5218 30.2339 23.6671 30.2043 23.8022 30.1468C23.9373 30.0893 24.0594 30.0052 24.1612 29.8994C24.2144 29.8463 25.2025 28.7413 26.5519 27.0625H29.75V40.875H15.9375V27.0625ZM9.32875 31.0044C9.60351 29.9832 10.1772 29.0674 10.9761 28.3745C11.775 27.6816 12.7627 27.2432 13.8125 27.1156V40.875H6.69375L9.32875 31.0044ZM6.375 47.25H7.4375C7.71929 47.25 7.98954 47.3619 8.1888 47.5612C8.38806 47.7605 8.5 48.0307 8.5 48.3125C8.5 48.5943 8.38806 48.8645 8.1888 49.0638C7.98954 49.2631 7.71929 49.375 7.4375 49.375H6.375V47.25ZM15.9375 64.25C14.8868 64.25 13.8597 63.9384 12.986 63.3547C12.1124 62.7709 11.4315 61.9412 11.0294 60.9705C10.6273 59.9998 10.5221 58.9316 10.7271 57.9011C10.9321 56.8706 11.438 55.924 12.181 55.181C12.924 54.438 13.8706 53.9321 14.9011 53.7271C15.9316 53.5221 16.9998 53.6273 17.9705 54.0294C18.9412 54.4315 19.7709 55.1124 20.3547 55.986C20.9384 56.8597 21.25 57.8868 21.25 58.9375C21.25 60.3465 20.6903 61.6977 19.694 62.694C18.6977 63.6903 17.3465 64.25 15.9375 64.25ZM52.0625 64.25C51.0118 64.25 49.9847 63.9384 49.111 63.3547C48.2374 62.7709 47.5565 61.9412 47.1544 60.9705C46.7523 59.9998 46.6471 58.9316 46.8521 57.9011C47.0571 56.8706 47.563 55.924 48.306 55.181C49.049 54.438 49.9956 53.9321 51.0261 53.7271C52.0566 53.5221 53.1248 53.6273 54.0955 54.0294C55.0662 54.4315 55.8959 55.1124 56.4797 55.986C57.0634 56.8597 57.375 57.8868 57.375 58.9375C57.375 60.3465 56.8153 61.6977 55.819 62.694C54.8227 63.6903 53.4715 64.25 52.0625 64.25ZM63.75 56.8125C63.75 57.0943 63.6381 57.3645 63.4388 57.5638C63.2395 57.7631 62.9693 57.875 62.6875 57.875H59.415C59.161 56.1061 58.2777 54.488 56.9272 53.3177C55.5767 52.1473 53.8496 51.503 52.0625 51.503C50.2754 51.503 48.5483 52.1473 47.1978 53.3177C45.8473 54.488 44.964 56.1061 44.71 57.875H23.29C23.036 56.1061 22.1527 54.488 20.8022 53.3177C19.4517 52.1473 17.7246 51.503 15.9375 51.503C14.1504 51.503 12.4233 52.1473 11.0728 53.3177C9.72231 54.488 8.83904 56.1061 8.585 57.875H5.3125C5.03071 57.875 4.76046 57.7631 4.5612 57.5638C4.36194 57.3645 4.25 57.0943 4.25 56.8125V54.6875C4.25 54.4057 4.36194 54.1355 4.5612 53.9362C4.76046 53.7369 5.03071 53.625 5.3125 53.625C5.59429 53.625 5.86454 53.5131 6.0638 53.3138C6.26306 53.1145 6.375 52.8443 6.375 52.5625V51.5H7.4375C8.28288 51.5 9.09363 51.1642 9.6914 50.5664C10.2892 49.9686 10.625 49.1579 10.625 48.3125C10.625 47.4671 10.2892 46.6564 9.6914 46.0586C9.09363 45.4608 8.28288 45.125 7.4375 45.125H6.375V43H56.3125C57.5363 43.0031 58.7217 43.4273 59.6698 44.2012C60.6178 44.9751 61.2707 46.0516 61.5188 47.25H60.5625C59.7171 47.25 58.9064 47.5858 58.3086 48.1836C57.7108 48.7814 57.375 49.5921 57.375 50.4375C57.375 51.2829 57.7108 52.0936 58.3086 52.6914C58.9064 53.2892 59.7171 53.625 60.5625 53.625H62.6875C62.9693 53.625 63.2395 53.7369 63.4388 53.9362C63.6381 54.1355 63.75 54.4057 63.75 54.6875V56.8125ZM61.625 49.375V51.5H60.5625C60.2807 51.5 60.0105 51.3881 59.8112 51.1888C59.6119 50.9895 59.5 50.7193 59.5 50.4375C59.5 50.1557 59.6119 49.8855 59.8112 49.6862C60.0105 49.4869 60.2807 49.375 60.5625 49.375H61.625Z" fill="url(#paint4_linear_325_192)"/>
<path d="M52.0625 55.75C51.4321 55.75 50.8158 55.9369 50.2916 56.2872C49.7674 56.6374 49.3589 57.1353 49.1176 57.7177C48.8764 58.3001 48.8133 58.941 48.9362 59.5593C49.0592 60.1777 49.3628 60.7456 49.8086 61.1914C50.2544 61.6372 50.8223 61.9408 51.4407 62.0638C52.059 62.1867 52.6999 62.1236 53.2823 61.8824C53.8647 61.6411 54.3626 61.2326 54.7128 60.7084C55.0631 60.1842 55.25 59.5679 55.25 58.9375C55.25 58.0921 54.9142 57.2814 54.3164 56.6836C53.7186 56.0858 52.9079 55.75 52.0625 55.75ZM52.0625 60C51.8524 60 51.6469 59.9377 51.4722 59.8209C51.2975 59.7042 51.1613 59.5382 51.0809 59.3441C51.0005 59.15 50.9794 58.9363 51.0204 58.7302C51.0614 58.5241 51.1626 58.3348 51.3112 58.1862C51.4598 58.0376 51.6491 57.9364 51.8552 57.8954C52.0613 57.8544 52.275 57.8755 52.4691 57.9559C52.6632 58.0363 52.8292 58.1725 52.9459 58.3472C53.0627 58.5219 53.125 58.7274 53.125 58.9375C53.125 59.2193 53.0131 59.4895 52.8138 59.6888C52.6145 59.8881 52.3443 60 52.0625 60Z" fill="url(#paint5_linear_325_192)"/>
<path d="M32.9375 45.125C32.6557 45.125 32.3855 45.2369 32.1862 45.4362C31.9869 45.6355 31.875 45.9057 31.875 46.1875V54.6875C31.875 54.9693 31.9869 55.2395 32.1862 55.4388C32.3855 55.6381 32.6557 55.75 32.9375 55.75C33.2193 55.75 33.4895 55.6381 33.6888 55.4388C33.8881 55.2395 34 54.9693 34 54.6875V46.1875C34 45.9057 33.8881 45.6355 33.6888 45.4362C33.4895 45.2369 33.2193 45.125 32.9375 45.125Z" fill="url(#paint6_linear_325_192)"/>
<path d="M28.6875 13.25C28.6875 12.1993 28.3759 11.1722 27.7922 10.2985C27.2084 9.4249 26.3787 8.74398 25.408 8.34189C24.4373 7.9398 23.3691 7.83459 22.3386 8.03958C21.3081 8.24456 20.3615 8.75053 19.6185 9.49349C18.8755 10.2365 18.3696 11.1831 18.1646 12.2136C17.9596 13.2441 18.0648 14.3123 18.4669 15.283C18.869 16.2537 19.5499 17.0834 20.4235 17.6672C21.2972 18.2509 22.3243 18.5625 23.375 18.5625C24.7834 18.5608 26.1337 18.0006 27.1296 17.0046C28.1256 16.0087 28.6858 14.6584 28.6875 13.25ZM20.1875 13.25C20.1875 12.6196 20.3744 12.0033 20.7247 11.4791C21.0749 10.9549 21.5728 10.5464 22.1552 10.3051C22.7376 10.0639 23.3785 10.0008 23.9969 10.1237C24.6152 10.2467 25.1831 10.5503 25.6289 10.9961C26.0747 11.4419 26.3783 12.0098 26.5013 12.6281C26.6242 13.2465 26.5611 13.8874 26.3199 14.4698C26.0786 15.0522 25.6701 15.5501 25.1459 15.9003C24.6217 16.2506 24.0054 16.4375 23.375 16.4375C22.5296 16.4375 21.7189 16.1017 21.1211 15.5039C20.5233 14.9061 20.1875 14.0954 20.1875 13.25Z" fill="url(#paint7_linear_325_192)"/>
<path d="M40.375 45.125H37.1875C36.9057 45.125 36.6355 45.2369 36.4362 45.4362C36.2369 45.6355 36.125 45.9057 36.125 46.1875C36.125 46.4693 36.2369 46.7395 36.4362 46.9388C36.6355 47.1381 36.9057 47.25 37.1875 47.25H40.375C40.6568 47.25 40.927 47.1381 41.1263 46.9388C41.3256 46.7395 41.4375 46.4693 41.4375 46.1875C41.4375 45.9057 41.3256 45.6355 41.1263 45.4362C40.927 45.2369 40.6568 45.125 40.375 45.125Z" fill="url(#paint8_linear_325_192)"/>
<path d="M20.1875 45.125H17C16.7182 45.125 16.448 45.2369 16.2487 45.4362C16.0494 45.6355 15.9375 45.9057 15.9375 46.1875C15.9375 46.4693 16.0494 46.7395 16.2487 46.9388C16.448 47.1381 16.7182 47.25 17 47.25H20.1875C20.4693 47.25 20.7395 47.1381 20.9388 46.9388C21.1381 46.7395 21.25 46.4693 21.25 46.1875C21.25 45.9057 21.1381 45.6355 20.9388 45.4362C20.7395 45.2369 20.4693 45.125 20.1875 45.125Z" fill="url(#paint9_linear_325_192)"/>
<defs>
<linearGradient id="paint0_linear_325_192" x1="52.0625" y1="67.8774" x2="52.0625" y2="5.64994" gradientUnits="userSpaceOnUse">
<stop stop-color="#006DF0"/>
<stop offset="1" stop-color="#61C8FF"/>
</linearGradient>
<linearGradient id="paint1_linear_325_192" x1="47.8125" y1="67.8774" x2="47.8125" y2="5.64994" gradientUnits="userSpaceOnUse">
<stop stop-color="#006DF0"/>
<stop offset="1" stop-color="#61C8FF"/>
</linearGradient>
<linearGradient id="paint2_linear_325_192" x1="49.9375" y1="67.8774" x2="49.9375" y2="5.64994" gradientUnits="userSpaceOnUse">
<stop stop-color="#006DF0"/>
<stop offset="1" stop-color="#61C8FF"/>
</linearGradient>
<linearGradient id="paint3_linear_325_192" x1="15.9375" y1="67.8774" x2="15.9375" y2="5.64994" gradientUnits="userSpaceOnUse">
<stop stop-color="#006DF0"/>
<stop offset="1" stop-color="#01ABFF"/>
</linearGradient>
<linearGradient id="paint4_linear_325_192" x1="34" y1="67.8774" x2="34" y2="5.64994" gradientUnits="userSpaceOnUse">
<stop stop-color="#006DF0"/>
<stop offset="1" stop-color="#61C8FF"/>
</linearGradient>
<linearGradient id="paint5_linear_325_192" x1="52.0625" y1="67.8774" x2="52.0625" y2="5.64994" gradientUnits="userSpaceOnUse">
<stop stop-color="#006DF0"/>
<stop offset="1" stop-color="#01ABFF"/>
</linearGradient>
<linearGradient id="paint6_linear_325_192" x1="32.9375" y1="67.8774" x2="32.9375" y2="5.64994" gradientUnits="userSpaceOnUse">
<stop stop-color="#006DF0"/>
<stop offset="1" stop-color="#00E7F0"/>
</linearGradient>
<linearGradient id="paint7_linear_325_192" x1="23.375" y1="67.8774" x2="23.375" y2="5.64994" gradientUnits="userSpaceOnUse">
<stop stop-color="#006DF0"/>
<stop offset="1" stop-color="#01A7FE"/>
</linearGradient>
<linearGradient id="paint8_linear_325_192" x1="38.7813" y1="67.8774" x2="38.7813" y2="5.64994" gradientUnits="userSpaceOnUse">
<stop stop-color="#61C8FF"/>
<stop offset="1" stop-color="#006DF0"/>
</linearGradient>
<linearGradient id="paint9_linear_325_192" x1="18.5938" y1="67.8774" x2="18.5938" y2="5.64994" gradientUnits="userSpaceOnUse">
<stop stop-color="#61C8FF"/>
<stop offset="1" stop-color="#006DF0"/>
</linearGradient>
</defs>
</svg>
