<svg width="68" height="68" viewBox="0 0 68 68" fill="none" xmlns="http://www.w3.org/2000/svg">
<g clip-path="url(#clip0_325_161)">
<path d="M1.24458 60.8919L7.10815 66.7565L9.45111 65.3513L10.1114 68H18.4063L19.0661 65.3502L21.4091 66.7554L27.2726 60.8908L25.8685 58.55L28.5161 57.8886V55.9355H53.7419V47.1613H51.5484V53.7419H28.5161V50.9058L34.4541 44.9677H41.6774V42.7742H36.6477L47.0231 32.3988L51.5484 18.823V16.4516H49.177L35.6013 20.9769L25.2258 31.3523V26.3226H23.0323V33.5459L17.0943 39.4839H14.2581V16.4516H20.8387V14.2581H12.0645V39.4839H10.1114L9.45004 42.1337L7.10708 40.7274L1.24244 46.592L2.64875 48.9328L0 49.5953V57.8886L2.64875 58.551L1.24458 60.8919ZM25.115 44.436L41.129 28.423L44.5136 31.8065L27.0825 49.2376L25.8663 48.9339L27.2726 46.5931L25.115 44.436ZM39.5781 26.871L23.564 42.8851L21.408 40.7285L19.065 42.1337L18.7624 40.9175L36.1936 23.4864L39.5781 26.871ZM45.5841 29.7762L38.2238 22.4148L43.3006 20.7225L47.2764 24.6994L45.5841 29.7762ZM49.2659 18.7341L48.053 22.373L45.6281 19.947L49.2659 18.7341ZM2.19355 56.1759V51.3079L4.3314 50.774L4.91781 50.5512L5.4271 49.2991L4.00526 46.9321L7.44821 43.4902L9.81634 44.9121L11.1541 44.3599L11.8241 41.6774H16.6921L17.362 44.3599L18.6998 44.9121L21.0679 43.4902L24.5109 46.9321L23.089 49.2991L23.6331 50.6369L26.3226 51.3079V56.1759L23.6412 56.8448L23.089 58.1826L24.5109 60.5518L21.0679 63.9937L18.6998 62.5718L17.362 63.124L16.6921 65.8065H11.8241L11.1541 63.124L9.81634 62.5718L7.44821 63.9937L4.00526 60.5518L5.4271 58.1826L4.87497 56.8448L2.19355 56.1759ZM14.2581 61.4194C18.4904 61.4194 21.9355 57.9753 21.9355 53.7419C21.9355 49.5085 18.4904 46.0645 14.2581 46.0645C10.0257 46.0645 6.58065 49.5085 6.58065 53.7419C6.58065 57.9753 10.0257 61.4194 14.2581 61.4194ZM14.2581 48.2581C17.2817 48.2581 19.7419 50.7183 19.7419 53.7419C19.7419 56.7656 17.2817 59.2258 14.2581 59.2258C11.2344 59.2258 8.77419 56.7656 8.77419 53.7419C8.77419 50.7183 11.2344 48.2581 14.2581 48.2581ZM62.5161 8.61835V13.1613H64.7097V8.61835C66.5974 8.12834 68 6.42481 68 4.3871C68 1.96755 66.0325 0 63.6129 0C61.5752 0 59.8717 1.40364 59.3817 3.29032H54.8387V5.48387H59.3817C59.7806 7.01818 60.9818 8.21938 62.5161 8.61835ZM63.6129 2.19355C64.8216 2.19355 65.8065 3.17733 65.8065 4.3871C65.8065 5.59687 64.8216 6.58065 63.6129 6.58065C62.4031 6.58065 61.4194 5.59687 61.4194 4.3871C61.4194 3.17733 62.4031 2.19355 63.6129 2.19355ZM63.6129 48.2581C66.0325 48.2581 68 46.2905 68 43.871C68 41.8333 66.5974 40.1297 64.7097 39.6397V35.0968H62.5161V39.6397C60.9818 40.0387 59.7806 41.2399 59.3817 42.7742H54.8387V44.9677H59.3817C59.8717 46.8544 61.5752 48.2581 63.6129 48.2581ZM63.6129 41.6774C64.8216 41.6774 65.8065 42.6612 65.8065 43.871C65.8065 45.0807 64.8216 46.0645 63.6129 46.0645C62.4031 46.0645 61.4194 45.0807 61.4194 43.871C61.4194 42.6612 62.4031 41.6774 63.6129 41.6774ZM23.0323 8.61835V13.1613H25.2258V8.61835C26.7601 8.21938 27.9613 7.01818 28.3603 5.48387H32.9032V3.29032H28.3603C27.8703 1.40364 26.1667 0 24.129 0C21.7095 0 19.7419 1.96755 19.7419 4.3871C19.7419 6.42481 21.1445 8.12834 23.0323 8.61835ZM24.129 2.19355C25.3377 2.19355 26.3226 3.17733 26.3226 4.3871C26.3226 5.59687 25.3377 6.58065 24.129 6.58065C22.9193 6.58065 21.9355 5.59687 21.9355 4.3871C21.9355 3.17733 22.9193 2.19355 24.129 2.19355ZM41.6774 5.48387H37.2903V3.29032H41.6774V5.48387ZM50.4516 5.48387H46.0645V3.29032H50.4516V5.48387ZM46.0645 42.7742H50.4516V44.9677H46.0645V42.7742ZM64.7097 21.9355H62.5161V17.5484H64.7097V21.9355ZM62.5161 26.3226H64.7097V30.7097H62.5161V26.3226ZM23.0323 17.5484H25.2258V21.9355H23.0323V17.5484Z" fill="url(#paint0_linear_325_161)"/>
</g>
<defs>
<linearGradient id="paint0_linear_325_161" x1="34" y1="68" x2="34" y2="0" gradientUnits="userSpaceOnUse">
<stop stop-color="#278BDA"/>
<stop offset="1" stop-color="#03A9FD"/>
</linearGradient>
<clipPath id="clip0_325_161">
<rect width="68" height="68" fill="white"/>
</clipPath>
</defs>
</svg>
