<svg width="68" height="69" viewBox="0 0 68 69" fill="none" xmlns="http://www.w3.org/2000/svg">
<path d="M60.5625 18.1272H38.7709C38.7261 17.0764 38.333 16.0705 37.6535 15.2677L41.8183 7.98673C41.8875 7.86559 41.9322 7.73201 41.9498 7.59361C41.9674 7.4552 41.9576 7.31469 41.9208 7.18009C41.8841 7.04549 41.8213 6.91944 41.7359 6.80913C41.6504 6.69882 41.5441 6.60642 41.423 6.5372C41.3018 6.46798 41.1683 6.4233 41.0299 6.4057C40.8914 6.38811 40.7509 6.39795 40.6163 6.43466C40.4817 6.47136 40.3557 6.53423 40.2454 6.61965C40.1351 6.70508 40.0427 6.81139 39.9734 6.93252L35.9533 13.9608C35.3446 13.6871 34.6851 13.5444 34.0177 13.542C33.3503 13.5397 32.6899 13.6777 32.0793 13.9471L28.0359 6.92941C27.8929 6.68995 27.6614 6.51632 27.3915 6.44597C27.1216 6.37562 26.8349 6.4142 26.5932 6.55338C26.3515 6.69256 26.1742 6.92119 26.0995 7.18993C26.0249 7.45868 26.0589 7.746 26.1942 7.9899L30.3713 15.2397C29.6788 16.0476 29.2769 17.0641 29.2298 18.1272H15.4804C15.2012 18.1311 14.9348 18.2448 14.7388 18.4436C14.5428 18.6425 14.4329 18.9105 14.4329 19.1897C14.4329 19.4689 14.5428 19.7369 14.7389 19.9357C14.9349 20.1346 15.2013 20.2482 15.4805 20.2522H60.5625C60.8442 20.2524 61.1143 20.3645 61.3135 20.5637C61.5127 20.7629 61.6247 21.033 61.625 21.3147V45.9016H57.747C57.4678 45.9055 57.2014 46.0192 57.0053 46.2181C56.8093 46.4169 56.6994 46.6849 56.6994 46.9641C56.6994 47.2433 56.8093 47.5113 57.0054 47.7102C57.2014 47.909 57.4679 48.0226 57.747 48.0266H61.625V52.0213C61.6247 52.303 61.5127 52.5731 61.3135 52.7723C61.1143 52.9715 60.8442 53.0836 60.5625 53.0838C53.2677 53.102 7.4375 53.0838 7.4375 53.0838C7.15579 53.0836 6.88571 52.9715 6.68651 52.7723C6.48731 52.5731 6.37528 52.303 6.375 52.0213V48.0266H53.497C53.7762 48.0226 54.0426 47.9089 54.2386 47.7101C54.4346 47.5113 54.5445 47.2433 54.5445 46.9641C54.5445 46.6848 54.4346 46.4168 54.2386 46.218C54.0425 46.0192 53.7761 45.9055 53.4969 45.9016H6.375V21.3147C6.37528 21.033 6.48731 20.7629 6.68651 20.5637C6.88571 20.3645 7.15579 20.2524 7.4375 20.2522H11.2304C11.5122 20.2522 11.7825 20.1402 11.9817 19.941C12.181 19.7417 12.2929 19.4715 12.2929 19.1897C12.2929 18.9079 12.181 18.6376 11.9817 18.4384C11.7825 18.2391 11.5122 18.1272 11.2304 18.1272H7.4375C6.59241 18.1281 5.78219 18.4642 5.18462 19.0618C4.58704 19.6594 4.25092 20.4696 4.25 21.3147V52.0213C4.25092 52.8664 4.58704 53.6766 5.18462 54.2742C5.78219 54.8718 6.59241 55.2079 7.4375 55.2088H27.4336V60.4788H22.286C22.0043 60.4788 21.734 60.5908 21.5347 60.79C21.3355 60.9893 21.2235 61.2595 21.2235 61.5413C21.2235 61.8231 21.3355 62.0934 21.5347 62.2926C21.734 62.4919 22.0043 62.6038 22.286 62.6038H45.714C45.9957 62.6038 46.266 62.4919 46.4653 62.2926C46.6645 62.0934 46.7765 61.8231 46.7765 61.5413C46.7765 61.2595 46.6645 60.9893 46.4653 60.79C46.266 60.5908 45.9957 60.4788 45.714 60.4788H40.5664V55.2088H60.5625C61.4076 55.2079 62.2178 54.8718 62.8154 54.2742C63.413 53.6766 63.7491 52.8664 63.75 52.0213V21.3147C63.7491 20.4696 63.413 19.6594 62.8154 19.0618C62.2178 18.4642 61.4076 18.1281 60.5625 18.1272ZM31.3548 18.1272C31.4023 17.458 31.7017 16.8317 32.1926 16.3744C32.6835 15.9171 33.3295 15.6629 34.0004 15.6629C34.6712 15.6629 35.3172 15.9172 35.8081 16.3744C36.299 16.8317 36.5983 17.458 36.6459 18.1272L31.3548 18.1272ZM38.4414 60.4788H29.5586V55.2088H38.4414V60.4788ZM10.9038 50.5519C10.8998 50.831 10.7862 51.0975 10.5873 51.2935C10.3885 51.4895 10.1205 51.5994 9.84129 51.5994C9.56207 51.5994 9.29407 51.4895 9.09524 51.2935C8.89642 51.0975 8.78274 50.831 8.77879 50.5519C8.78274 50.2727 8.89641 50.0062 9.09524 49.8102C9.29406 49.6142 9.56206 49.5043 9.84128 49.5043C10.1205 49.5043 10.3885 49.6142 10.5873 49.8102C10.7862 50.0062 10.8998 50.2727 10.9038 50.5519ZM16.2373 50.5519C16.2334 50.831 16.1197 51.0975 15.9208 51.2935C15.722 51.4895 15.454 51.5994 15.1748 51.5994C14.8956 51.5994 14.6276 51.4895 14.4288 51.2935C14.2299 51.0975 14.1163 50.831 14.1123 50.5519C14.1163 50.2727 14.2299 50.0062 14.4288 49.8102C14.6276 49.6142 14.8956 49.5043 15.1748 49.5043C15.454 49.5043 15.722 49.6142 15.9208 49.8102C16.1197 50.0062 16.2334 50.2727 16.2373 50.5519ZM21.5709 50.5519C21.5669 50.831 21.4532 51.0975 21.2544 51.2935C21.0556 51.4895 20.7876 51.5994 20.5084 51.5994C20.2292 51.5994 19.9612 51.4895 19.7623 51.2935C19.5635 51.0975 19.4498 50.831 19.4459 50.5519C19.4498 50.2727 19.5635 50.0062 19.7623 49.8102C19.9611 49.6142 20.2291 49.5043 20.5084 49.5043C20.7876 49.5043 21.0556 49.6142 21.2544 49.8102C21.4532 50.0062 21.5669 50.2727 21.5709 50.5519ZM39.1449 31.729L33.0905 28.2344C32.8546 28.098 32.587 28.026 32.3145 28.0258C32.042 28.0256 31.7742 28.0971 31.5381 28.2332C31.302 28.3693 31.1059 28.5651 30.9695 28.801C30.8331 29.0369 30.7612 29.3046 30.7611 29.5771V36.5695C30.7611 36.8419 30.8329 37.1096 30.9691 37.3456C31.1053 37.5815 31.3013 37.7775 31.5372 37.9137C31.7732 38.05 32.0408 38.1218 32.3133 38.1219C32.5858 38.122 32.8534 38.0503 33.0895 37.9142L39.1438 34.4186C39.38 34.2824 39.5762 34.0865 39.7126 33.8505C39.849 33.6145 39.9209 33.3467 39.921 33.0741C39.9211 32.8015 39.8494 32.5337 39.7132 32.2976C39.577 32.0615 39.381 31.8653 39.1449 31.729ZM32.8861 35.5775V30.57L37.2228 33.0727L32.8861 35.5775ZM44.667 33.0738C44.6639 30.2456 43.539 27.5342 41.5393 25.5343C39.5395 23.5345 36.8281 22.4095 34 22.4062C19.8493 22.9923 19.8524 43.1561 34.0001 43.7403C36.828 43.7371 39.5393 42.6122 41.539 40.6126C43.5387 38.6129 44.6636 35.9017 44.667 33.0738ZM25.458 33.0738C25.4604 30.809 26.3611 28.6376 27.9625 27.0361C29.5639 25.4346 31.7352 24.5338 34 24.5312C45.3317 25.0002 45.3294 41.1478 33.9999 41.6153C31.7353 41.6128 29.5642 40.7121 27.9628 39.1108C26.3614 37.5095 25.4606 35.3384 25.458 33.0738Z" fill="url(#paint0_linear_325_171)"/>
<defs>
<linearGradient id="paint0_linear_325_171" x1="34" y1="10" x2="34" y2="62.5" gradientUnits="userSpaceOnUse">
<stop stop-color="#02AAFE"/>
<stop offset="1" stop-color="#278BDA"/>
</linearGradient>
</defs>
</svg>
