<svg width="48" height="48" viewBox="0 0 48 48" fill="none" xmlns="http://www.w3.org/2000/svg">
<g clip-path="url(#clip0_491_121)">
<path d="M37.8563 24.9563C35.3719 24.9563 33.3563 26.9813 33.3563 29.4656C33.4781 35.0063 41.3813 35.5875 42.3094 30.1406C42.7594 27.45 40.5844 24.9375 37.8563 24.9563ZM41.2875 29.8406C40.7156 34.1156 34.5094 33.7969 34.4063 29.4656C34.6313 24.6469 41.5969 25.0406 41.2875 29.8406ZM46.95 31.8469C47.4844 31.8 47.9063 31.35 47.9063 30.8156V28.0969C47.9063 27.5625 47.5031 27.1219 46.9688 27.0563L45.2063 26.8781C45.1125 26.6063 45 26.3344 44.8688 26.0813L45.9844 24.7219C46.3313 24.3094 46.3031 23.7 45.9188 23.3156L43.9969 21.4031C43.5563 20.9531 42.8719 21.0281 42.45 21.4594V6.23439C42.45 3.17814 39.9563 0.684387 36.9 0.684387C36.8906 0.684387 33.7594 0.684387 33.75 0.684387H3.31876C-0.984365 0.834387 -1.00311 7.04064 3.31876 7.20001H5.49376V41.7563C5.49376 44.8125 7.98751 47.3063 11.0438 47.3063H14.2031H44.6438C48.9563 47.1563 48.9563 40.9406 44.6438 40.7906H42.45V37.4625C42.8719 37.8938 43.5656 37.9688 43.9969 37.5188L45.9188 35.5969C46.2938 35.2125 46.3219 34.6031 45.9844 34.2L44.8594 32.8313C44.9906 32.5688 45.1031 32.2781 45.1969 32.025L46.95 31.8469ZM3.32813 6.14064C0.421885 6.04689 0.421885 1.83751 3.32813 1.74376H31.3594C30.225 2.93439 30.225 4.96876 31.3594 6.14064H3.32813ZM14.2125 46.2563H11.0531C8.57813 46.2563 6.56251 44.2406 6.56251 41.7656V7.20001H33.7688C34.4625 7.20001 34.4625 6.14064 33.7688 6.14064C32.55 6.14064 31.5656 5.13751 31.5656 3.93751C31.5656 2.87814 32.325 1.98751 33.3188 1.78126C33.4969 1.70626 36.6281 1.74376 36.9094 1.73439C39.3844 1.73439 41.4 3.75001 41.4 6.22501V22.2938L41.2313 22.4344C40.9688 22.3031 40.6969 22.2 40.4344 22.1063L40.2563 20.3344C40.1906 19.8094 39.75 19.4156 39.2156 19.4156H36.5063C35.9813 19.4156 35.5219 19.8094 35.4656 20.3438L35.2781 22.1063C35.0156 22.2 34.7438 22.3125 34.4813 22.4344L33.1125 21.3188C32.6906 20.9719 32.0813 21.0094 31.7156 21.3938L29.7844 23.3063C29.4188 23.6719 29.3813 24.2906 29.7094 24.7031L30.825 26.0719C30.7031 26.325 30.5906 26.5969 30.4969 26.8688L28.725 27.0469C28.2 27.1125 27.8063 27.5531 27.8063 28.0875V30.8063C27.8063 31.3219 28.2188 31.7906 28.7438 31.8375L30.5063 32.025C30.5906 32.2688 30.7125 32.5688 30.8438 32.8313L29.7188 34.2188C29.3906 34.6313 29.4281 35.2406 29.7938 35.6063L31.7063 37.5094C32.0719 37.9031 32.6906 37.9406 33.1125 37.5938L34.4813 36.4781C34.7344 36.6 35.0063 36.7125 35.2781 36.8156L35.4656 38.5781C35.5219 39.1125 35.9625 39.5156 36.5063 39.5156H39.2156C39.7406 39.5156 40.1906 39.1219 40.2563 38.5781L40.4344 36.8156C40.7156 36.7125 40.9781 36.6 41.2313 36.4781L41.4 36.6188V40.8094H14.2125C13.9125 40.8094 13.6781 41.0531 13.6875 41.3438C13.6875 41.6344 13.9219 41.8688 14.2125 41.8688C14.7938 41.8688 15.3188 42.1031 15.7125 42.4688C17.1656 43.7438 16.1719 46.2938 14.2125 46.2563ZM44.6438 41.8594C47.55 41.9531 47.55 46.1625 44.6438 46.2563H16.6125C17.7469 45.075 17.7375 43.0125 16.6125 41.8594H44.6438ZM43.8375 33.2438L45.1781 34.8563L43.2844 36.7688L41.625 35.4375C41.4563 35.3063 41.2219 35.2781 41.0438 35.3813C40.6688 35.5875 40.2469 35.7656 39.7781 35.9156C39.5813 35.9813 39.4313 36.1594 39.4125 36.3656L39.2156 38.4469L36.525 38.4656L36.3094 36.3656C36.2906 36.1594 36.1406 35.9813 35.9438 35.9156C35.4938 35.775 35.0625 35.5969 34.6781 35.3813C34.4906 35.2875 34.2563 35.3063 34.0969 35.4375L32.4844 36.7688C32.2219 36.5063 30.7969 35.0906 30.5625 34.875L31.9031 33.2438C32.1844 32.925 31.8938 32.55 31.7625 32.25C31.4813 31.7906 31.575 31.1156 30.9938 31.0125L28.9031 30.8156L28.8844 28.1063L30.9938 27.8906C31.2094 27.8719 31.3875 27.7219 31.4438 27.5156C31.575 27.0656 31.7531 26.6438 31.9594 26.2594C32.0625 26.0719 32.0438 25.8375 31.9031 25.6688L30.5625 24.0469L32.4656 22.1344L34.1063 23.4656C34.275 23.5969 34.5 23.625 34.6875 23.5219C35.1094 23.2969 35.5313 23.1281 35.9438 23.0063C36.15 22.95 36.3 22.7719 36.3281 22.5563L36.5344 20.4656L39.225 20.4469L39.4406 22.5563C39.4594 22.7719 39.6094 22.95 39.825 23.0156C40.2469 23.1375 40.6688 23.3063 41.0719 23.5313C41.5031 23.8031 41.9719 23.175 42.2906 22.9688C42.3 22.95 43.275 22.1625 43.2844 22.1531L45.1969 24.0469L43.8375 25.6875C43.7063 25.8563 43.6781 26.0813 43.7813 26.2781C43.9969 26.6719 44.175 27.0938 44.3063 27.5344C44.3719 27.7406 44.55 27.8813 44.7563 27.9094L46.8469 28.125L46.8563 30.8063L44.7563 31.0219C44.1844 31.1156 44.2406 31.8094 43.9875 32.2313C43.8469 32.5406 43.5563 32.925 43.8375 33.2438ZM9.44063 22.0125H23.1656C23.4563 22.0125 23.6906 21.7781 23.6906 21.4875V17.5688C23.6906 17.2781 23.4563 17.0438 23.1656 17.0438H9.44063C9.15001 17.0438 8.91563 17.2781 8.91563 17.5688V21.4875C8.91563 21.7688 9.15001 22.0125 9.44063 22.0125ZM9.97501 18.0938H22.6406V20.9531H9.97501V18.0938ZM9.44063 25.4156H17.0625C17.7563 25.4156 17.7563 26.475 17.0625 26.475H9.44063C8.74688 26.4656 8.75626 25.4156 9.44063 25.4156ZM23.8688 30.2156H9.45001C8.75626 30.2156 8.76563 29.1563 9.45001 29.1563H23.8688C24.5625 29.1656 24.5531 30.2156 23.8688 30.2156ZM23.8688 32.9063C24.5625 32.9063 24.5531 33.9656 23.8688 33.9656H9.45001C8.75626 33.9656 8.76563 32.9063 9.45001 32.9063H23.8688ZM23.8688 37.7156H9.45001C8.75626 37.7156 8.76563 36.6563 9.45001 36.6563H23.8688C24.5625 36.6563 24.5531 37.7063 23.8688 37.7156ZM18.4219 14.1281H20.9906C21.2813 14.1281 21.5156 13.8938 21.5156 13.6031V9.45001C21.5156 9.15939 21.2813 8.92501 20.9906 8.92501H18.4219C18.1313 8.92501 17.8969 9.15939 17.8969 9.45001V13.6031C17.8875 13.8938 18.1313 14.1281 18.4219 14.1281ZM18.9469 9.97501H20.4563V13.0688H18.9469V9.97501ZM31.3125 13.6031V9.45001C31.3125 9.15939 31.5469 8.92501 31.8375 8.92501H34.4063C35.1 8.92501 35.1 9.98439 34.4063 9.98439H32.3625V13.0781H34.4063C35.1 13.0781 35.1 14.1281 34.4063 14.1375H31.8375C31.5469 14.1281 31.3125 13.8938 31.3125 13.6031ZM22.3688 13.6031V12.6563C22.3688 11.9625 23.4281 11.9625 23.4281 12.6563V13.0781H24.9375V9.45001C24.9375 8.75626 25.9969 8.75626 25.9969 9.45001V13.6031C25.9969 13.8938 25.7625 14.1281 25.4719 14.1281H22.9031C22.6031 14.1281 22.3688 13.8938 22.3688 13.6031ZM26.8406 13.6031V9.45001C26.8406 9.15939 27.075 8.92501 27.3656 8.92501H29.9344C30.6281 8.92501 30.6281 9.98439 29.9344 9.98439H27.8906V11.0063H29.9344C30.225 11.0063 30.4594 11.2406 30.4594 11.5313C30.4594 11.8219 30.225 12.0563 29.9344 12.0563H27.8906V13.0781H29.9344C30.6281 13.0781 30.6281 14.1281 29.9344 14.1375H27.375C27.0844 14.1281 26.8406 13.8938 26.8406 13.6031ZM36.1688 8.91564H38.7375C39.4313 8.91564 39.4313 9.97501 38.7375 9.97501H37.9781V13.6031C37.9781 13.8938 37.7438 14.1281 37.4531 14.1281C37.1625 14.1281 36.9281 13.8938 36.9281 13.6031V9.97501H36.1688C35.475 9.97501 35.475 8.92501 36.1688 8.91564ZM9.75001 13.6031V12.0563H11.7938C12.0844 12.0563 12.3188 11.8219 12.3188 11.5313V9.45001C12.3188 9.15939 12.0844 8.92501 11.7938 8.92501H9.22501C8.93438 8.92501 8.70001 9.15939 8.70001 9.45001V13.6031C8.70001 14.2875 9.75001 14.2969 9.75001 13.6031ZM9.75001 9.97501H11.2594V10.9969H9.75001V9.97501ZM13.9406 14.1281C14.2313 14.1281 14.4656 13.8938 14.4656 13.6031V12.5531L16.1625 14.0063C16.2656 14.0906 16.3875 14.1375 16.5094 14.1375C16.9781 14.1563 17.2313 13.5094 16.8563 13.2094L15.5156 12.0656H16.5094C16.8 12.0656 17.0344 11.8313 17.0344 11.5406V9.45939C17.0344 9.16876 16.8 8.93439 16.5094 8.93439H13.9406C13.65 8.93439 13.4156 9.16876 13.4156 9.45939V13.6125C13.4156 13.8938 13.65 14.1281 13.9406 14.1281ZM14.475 9.97501H15.9844V10.9969H14.475V9.97501Z" fill="url(#paint0_linear_491_121)"/>
</g>
<defs>
<linearGradient id="paint0_linear_491_121" x1="4.71657" y1="43.271" x2="43.2513" y2="4.73626" gradientUnits="userSpaceOnUse">
<stop stop-color="#844BF4"/>
<stop offset="0.6" stop-color="#39A7F4"/>
</linearGradient>
<clipPath id="clip0_491_121">
<rect width="48" height="48" fill="white"/>
</clipPath>
</defs>
</svg>
