<svg width="68" height="68" viewBox="0 0 68 68" fill="none" xmlns="http://www.w3.org/2000/svg">
<path d="M59.8952 44.9166C57.9469 44.9166 56.3039 46.2189 55.824 47.9812H47.5066V42.2832H53.198C60.4079 42.2832 66.2736 36.4176 66.2736 29.2077C66.2736 21.9979 60.4079 16.1322 53.198 16.1322C53.1492 16.1322 53.1002 16.1325 53.0508 16.133C51.0276 11.3047 46.2769 8.11351 40.9894 8.11351C39.1595 8.11351 37.3455 8.49933 35.6831 9.23657C33.4015 5.08113 29.0139 2.45145 24.2178 2.45145C17.008 2.45145 11.1423 8.31711 11.1423 15.527C11.1423 15.8974 11.1582 16.2687 11.1897 16.6381C5.65183 18.2293 1.72682 23.3664 1.72682 29.2079C1.72682 36.4177 7.59249 42.2834 14.8023 42.2834H20.4973V47.9813H12.1762C11.6964 46.219 10.0532 44.9168 8.10501 44.9168C5.78172 44.9168 3.89153 46.7681 3.89153 49.0438C3.89153 51.3195 5.78159 53.1745 8.10501 53.1745C10.0536 53.1745 11.6971 51.8707 12.1765 50.1063H21.5598C22.1466 50.1063 22.6223 49.6306 22.6223 49.0438V42.2834H25.5758V51.2011L20.641 54.0492C20.3122 54.239 20.1097 54.5898 20.1097 54.9695V57.4247C18.299 57.8875 16.9586 59.5041 16.9586 61.4222C16.9586 63.6978 18.8487 65.5491 21.1722 65.5491C23.4956 65.5491 25.3818 63.6978 25.3818 61.4222C25.3818 59.5045 24.043 57.8882 22.2347 57.4249V55.5831L27.1694 52.7349C27.4983 52.5451 27.7008 52.1944 27.7008 51.8147V42.2834H32.9395V57.4245C31.1289 57.8874 29.7885 59.504 29.7885 61.4221C29.7885 63.6977 31.6786 65.5489 34.002 65.5489C36.3254 65.5489 38.2156 63.6977 38.2156 61.4221C38.2156 59.5041 36.8751 57.8874 35.0645 57.4245V42.2834H40.3031V51.8147C40.3031 52.1942 40.5057 52.5451 40.8345 52.7349L45.7694 55.5831V57.4247C43.9588 57.8875 42.6183 59.5041 42.6183 61.4222C42.6183 63.6978 44.5085 65.5491 46.8319 65.5491C49.1554 65.5491 51.0455 63.6978 51.0455 61.4222C51.0455 59.5042 49.7051 57.8875 47.8944 57.4247V54.9695C47.8944 54.5899 47.6919 54.239 47.3631 54.0492L42.4281 51.2011V42.2834H45.3816V49.0438C45.3816 49.6306 45.8574 50.1063 46.4441 50.1063H55.8237C56.3033 51.8706 57.9466 53.1745 59.8952 53.1745C62.2185 53.1745 64.1089 51.3215 64.1089 49.0438C64.1089 46.7661 62.2187 44.9166 59.8952 44.9166ZM8.10474 51.0493C6.95313 51.0493 6.01627 50.1496 6.01627 49.0435C6.01627 47.9375 6.95313 47.0415 8.10474 47.0415C9.25636 47.0415 10.1934 47.9396 10.1934 49.0435C10.1934 50.1475 9.25636 51.0493 8.10474 51.0493ZM23.2567 61.4218C23.2567 62.5257 22.3215 63.4237 21.172 63.4237C20.0225 63.4237 19.0834 62.5256 19.0834 61.4218C19.0834 60.318 20.0204 59.4161 21.172 59.4161C22.3236 59.4161 23.2567 60.3159 23.2567 61.4218ZM48.9204 61.4218C48.9204 62.5257 47.9834 63.4237 46.8318 63.4237C45.6802 63.4237 44.7432 62.5256 44.7432 61.4218C44.7432 60.318 45.6802 59.4161 46.8318 59.4161C47.9834 59.4161 48.9204 60.3159 48.9204 61.4218ZM36.0903 61.4218C36.0903 62.5257 35.1533 63.4237 34.0017 63.4237C32.8501 63.4237 31.9132 62.5256 31.9132 61.4218C31.9132 60.318 32.8501 59.4161 34.0017 59.4161C35.1533 59.4161 36.0903 60.3159 36.0903 61.4218ZM14.8021 40.1581C8.76389 40.1581 3.85156 35.2458 3.85156 29.2076C3.85156 24.0387 7.51984 19.5285 12.574 18.4835C13.1313 18.3682 13.4989 17.8342 13.4075 17.2724C13.3143 16.6993 13.2669 16.112 13.2669 15.5268C13.2669 9.48865 18.1792 4.57631 24.2174 4.57631C28.5453 4.57631 32.4761 7.13309 34.2315 11.09C34.3521 11.362 34.5814 11.571 34.8634 11.666C35.1454 11.7609 35.4544 11.7334 35.715 11.5899C37.3214 10.7057 39.145 10.2384 40.989 10.2384C45.6402 10.2384 49.7957 13.1868 51.3288 17.5751C51.4865 18.026 51.9268 18.3146 52.4016 18.2848C52.6863 18.2661 52.9466 18.2571 53.1978 18.2571C59.236 18.2571 64.1483 23.1694 64.1483 29.2076C64.1483 35.2458 59.236 40.1581 53.1978 40.1581H14.8021ZM59.8951 51.0493C58.7435 51.0493 57.8065 50.1496 57.8065 49.0435C57.8065 47.9375 58.7435 47.0415 59.8951 47.0415C61.0467 47.0415 61.9837 47.9396 61.9837 49.0435C61.9837 50.1475 61.0467 51.0493 59.8951 51.0493ZM45.0617 21.248C45.478 21.6614 45.4804 22.3341 45.067 22.7505C44.8594 22.9597 44.5862 23.0643 44.313 23.0643C44.0423 23.0643 43.7717 22.9615 43.5644 22.7558C41.0044 20.2139 37.6081 18.8141 34.0016 18.8141C30.3951 18.8141 26.9951 20.2139 24.4351 22.7558C24.0186 23.1693 23.3459 23.167 22.9326 22.7505C22.5192 22.3341 22.5215 21.6613 22.9379 21.248C25.8987 18.3082 29.828 16.6892 34.0017 16.6892C38.1755 16.6892 42.1009 18.3082 45.0617 21.248ZM42.0572 24.2518C42.4738 24.6651 42.4765 25.3378 42.0633 25.7543C41.65 26.1711 40.9772 26.1736 40.5608 25.7604C38.8082 24.0219 36.4788 23.0643 34.0017 23.0643C31.5246 23.0643 29.195 24.0221 27.4383 25.7611C27.2311 25.9662 26.9609 26.0686 26.6908 26.0686C26.4171 26.0686 26.1435 25.9634 25.9356 25.7535C25.5228 25.3365 25.5262 24.6638 25.9433 24.251C28.1005 22.1154 30.9623 20.9393 34.0017 20.9393C37.0411 20.9393 39.9039 22.1157 42.0572 24.2517V24.2518ZM39.0495 27.2526C39.4679 27.6639 39.4737 28.3366 39.0624 28.7551C38.8546 28.9667 38.5796 29.0728 38.3047 29.0728C38.0359 29.0728 37.7668 28.9713 37.5599 28.768C36.6064 27.8309 35.3429 27.3147 34.0017 27.3147C32.6606 27.3147 31.397 27.8309 30.4435 28.768C30.025 29.1793 29.3525 29.1736 28.941 28.7551C28.5296 28.3366 28.5354 27.6639 28.9539 27.2526C30.3073 25.9223 32.1 25.1897 34.0019 25.1897C35.9037 25.1897 37.6963 25.9223 39.0498 27.2526H39.0495ZM34.0016 29.44C32.3882 29.44 31.0756 30.729 31.0756 32.3133C31.0756 33.8976 32.3882 35.1904 34.0016 35.1904C35.615 35.1904 36.9276 33.8997 36.9276 32.3133C36.9276 30.7268 35.615 29.44 34.0016 29.44ZM34.0016 33.0654C33.56 33.0654 33.2006 32.7281 33.2006 32.3133C33.2006 31.8985 33.56 31.565 34.0016 31.565C34.4432 31.565 34.8026 31.9006 34.8026 32.3133C34.8026 32.7281 34.4432 33.0654 34.0016 33.0654Z" fill="url(#paint0_linear_325_243)"/>
<defs>
<linearGradient id="paint0_linear_325_243" x1="34" y1="2" x2="34" y2="66" gradientUnits="userSpaceOnUse">
<stop stop-color="#02AAFE"/>
<stop offset="1" stop-color="#2091E1"/>
</linearGradient>
</defs>
</svg>
