<svg width="68" height="69" viewBox="0 0 68 69" fill="none" xmlns="http://www.w3.org/2000/svg">
<path d="M13.8125 40.875H15.9375V43H13.8125V40.875ZM9.5625 43H11.6875V40.875H9.5625V43ZM5.3125 43H7.4375V40.875H5.3125V43ZM57.375 35.5625C59.1324 35.5625 60.5625 36.9926 60.5625 38.75V40.5244C61.9979 41.0142 63.3505 41.7452 64.5448 42.7004C66.0652 43.9169 66.9375 45.7317 66.9375 47.6782V53.1076C66.9375 59.5941 62.8023 65.3316 56.6483 67.3833L56.3125 67.4949L55.9767 67.3833C49.8227 65.3316 45.6875 59.5952 45.6875 53.1076V47.6782C45.6875 45.7306 46.5598 43.9159 48.0802 42.7004C49.2745 41.7452 50.6271 41.0142 52.0625 40.5244V38.75C52.0625 36.9926 53.4926 35.5625 55.25 35.5625C55.25 33.2186 57.1561 31.3125 59.5 31.3125H62.6875C63.8594 31.3125 64.8125 30.3594 64.8125 29.1875C64.8125 28.0156 63.8594 27.0625 62.6875 27.0625H52.0625C49.7186 27.0625 47.8125 25.1564 47.8125 22.8125V12.1875C47.8125 9.84363 49.7186 7.9375 52.0625 7.9375H59.5C60.6719 7.9375 61.625 6.98444 61.625 5.8125C61.625 4.64056 60.6719 3.6875 59.5 3.6875H35.0625C33.8906 3.6875 32.9375 4.64056 32.9375 5.8125V5.91981C35.3589 6.41387 37.1875 8.55906 37.1875 11.125V15.375H40.375C43.3043 15.375 45.6875 17.7582 45.6875 20.6875V41.9375C45.6875 44.8668 43.3043 47.25 40.375 47.25H29.75V51.5H34V53.625H12.75V51.5H17V47.25H6.375C3.44569 47.25 1.0625 44.8668 1.0625 41.9375V20.6875C1.0625 17.7582 3.44569 15.375 6.375 15.375H26.5625V11.125C26.5625 8.56012 28.3911 6.41387 30.8125 5.91981V5.8125C30.8125 3.46862 32.7186 1.5625 35.0625 1.5625H59.5C61.8439 1.5625 63.75 3.46862 63.75 5.8125C63.75 8.15637 61.8439 10.0625 59.5 10.0625H52.0625C50.8906 10.0625 49.9375 11.0156 49.9375 12.1875V22.8125C49.9375 23.9844 50.8906 24.9375 52.0625 24.9375H62.6875C65.0314 24.9375 66.9375 26.8436 66.9375 29.1875C66.9375 31.5314 65.0314 33.4375 62.6875 33.4375H59.5C58.3281 33.4375 57.375 34.3906 57.375 35.5625ZM29.6098 29.1875L31.875 32.5843L34.1403 29.1875H29.6098ZM35.0625 14.3125H32.9375V27.0625H35.0625V14.3125ZM30.8125 14.3125H28.6875V27.0625H30.8125V14.3125ZM43.5625 41.9375V40.875H18.8031L15.6156 38.75H3.1875V41.9375C3.1875 43.6949 4.61762 45.125 6.375 45.125H19.125V51.5H27.625V47.25H21.25V45.125H40.375C42.1324 45.125 43.5625 43.6949 43.5625 41.9375ZM37.1875 17.5V28.4469L31.875 36.4157L26.5625 28.4469V17.5H6.375C4.61762 17.5 3.1875 18.9301 3.1875 20.6875V36.625H16.2594L19.4469 38.75H43.5625V20.6875C43.5625 18.9301 42.1324 17.5 40.375 17.5H37.1875ZM31.875 7.9375C30.1176 7.9375 28.6875 9.36762 28.6875 11.125V12.1875H35.0625V11.125C35.0625 9.36762 33.6324 7.9375 31.875 7.9375ZM47.8125 47.6782V48.3125H53.125C53.125 47.1406 54.0781 46.1875 55.25 46.1875V41.9938C53.125 42.201 51.0818 43.0202 49.4073 44.3589C48.3937 45.1707 47.8125 46.3809 47.8125 47.6782ZM57.375 54.6875H55.25C54.0781 54.6875 53.125 53.7344 53.125 52.5625V50.4375H47.8125V53.1076C47.8125 54.2041 47.9559 55.2729 48.2173 56.3004C48.7571 56.4874 49.2203 56.7009 49.6719 56.9102C50.7928 57.4277 51.7607 57.875 53.8294 57.875C55.8992 57.875 56.8671 57.4277 57.9902 56.9102C59.1674 56.3662 60.5041 55.75 63.0403 55.75C63.5662 55.75 64.0507 55.7829 64.5161 55.8361C64.7062 54.951 64.8125 54.0394 64.8125 53.1076V50.4375H59.5V52.5625C59.5 53.7344 58.5469 54.6875 57.375 54.6875ZM57.3761 52.5625L57.375 48.3125H55.25V52.5625H57.3761ZM63.8871 57.9122C63.6151 57.8931 63.3409 57.875 63.0403 57.875C60.9705 57.875 60.0026 58.3223 58.8795 58.8398C57.7012 59.3838 56.3646 60 53.8294 60C51.6354 60 50.3412 59.5378 49.2692 59.0608C50.7291 61.8743 53.2026 64.1172 56.3125 65.2498C59.8368 63.9674 62.5473 61.2612 63.8871 57.9122ZM63.2177 44.36C61.5432 43.0202 59.5 42.201 57.375 41.9938V46.1875C58.5469 46.1875 59.5 47.1406 59.5 48.3125H64.8125V47.6782C64.8125 46.3809 64.2313 45.1707 63.2177 44.36ZM57.375 37.6875H55.25C54.6646 37.6875 54.1875 38.1646 54.1875 38.75V39.9899C54.8877 39.8752 55.5985 39.8125 56.3125 39.8125C57.0265 39.8125 57.7373 39.8752 58.4375 39.9899V38.75C58.4375 38.1646 57.9604 37.6875 57.375 37.6875ZM22.3125 27.0625C22.3125 28.0921 21.8237 29.0249 21.029 29.6114C21.1756 30.5879 20.8622 31.593 20.1344 32.3208C19.4055 33.0486 18.3972 33.361 17.425 33.2154C16.8374 34.0112 15.9046 34.5 14.875 34.5C13.8454 34.5 12.9126 34.0112 12.3261 33.2165C11.3517 33.3631 10.3445 33.0497 9.61669 32.3219C8.88887 31.5941 8.57544 30.5889 8.72206 29.6125C7.92625 29.0249 7.4375 28.0921 7.4375 27.0625C7.4375 26.0329 7.92625 25.1001 8.721 24.5136C8.57438 23.5371 8.88781 22.5309 9.61563 21.8031C10.3434 21.0753 11.3496 20.7619 12.325 20.9085C12.9126 20.1138 13.8454 19.625 14.875 19.625C15.9046 19.625 16.8374 20.1138 17.4239 20.9085C18.4036 20.7619 19.4066 21.0753 20.1333 21.8031C20.8622 22.5309 21.1746 23.5361 21.0279 24.5136C21.8237 25.1001 22.3125 26.0329 22.3125 27.0625ZM20.1875 27.0625C20.1875 26.6003 19.8857 26.1966 19.4363 26.0574L18.2155 25.6781L18.8116 24.5476C19.0304 24.1311 18.9582 23.6327 18.632 23.3066C18.3047 22.9804 17.8054 22.906 17.3899 23.127L16.2594 23.7209L15.8812 22.5012C15.7409 22.0518 15.3372 21.75 14.875 21.75C14.4128 21.75 14.0091 22.0518 13.8699 22.5001L13.4916 23.7199L12.3611 23.1259C11.9446 22.906 11.4453 22.9793 11.1191 23.3055C10.7929 23.6328 10.7206 24.1311 10.9395 24.5465L11.5356 25.677L10.3148 26.0563C9.86425 26.1966 9.5625 26.6003 9.5625 27.0625C9.5625 27.5247 9.86425 27.9284 10.3126 28.0676L11.5324 28.4459L10.9384 29.5764C10.7196 29.9929 10.7918 30.4912 11.118 30.8184C11.4452 31.1457 11.9446 31.2169 12.359 30.998L13.4895 30.4019L13.8678 31.6227C14.0091 32.0732 14.4128 32.375 14.875 32.375C15.3372 32.375 15.7409 32.0732 15.8801 31.6238L16.2584 30.403L17.3889 30.9991C17.8054 31.2169 18.3037 31.1457 18.6299 30.8195C18.9561 30.4922 19.0283 29.9939 18.8094 29.5774L18.2155 28.4469L19.4352 28.0687C19.8857 27.9284 20.1875 27.5247 20.1875 27.0625ZM18.0625 27.0625C18.0625 28.8199 16.6324 30.25 14.875 30.25C13.1176 30.25 11.6875 28.8199 11.6875 27.0625C11.6875 25.3051 13.1176 23.875 14.875 23.875C16.6324 23.875 18.0625 25.3051 18.0625 27.0625ZM15.9375 27.0625C15.9375 26.4771 15.4604 26 14.875 26C14.2896 26 13.8125 26.4771 13.8125 27.0625C13.8125 27.6479 14.2896 28.125 14.875 28.125C15.4604 28.125 15.9375 27.6479 15.9375 27.0625Z" fill="url(#paint0_linear_549_10)"/>
<defs>
<linearGradient id="paint0_linear_549_10" x1="57" y1="8" x2="56" y2="67.5" gradientUnits="userSpaceOnUse">
<stop stop-color="#01ABFF"/>
<stop offset="1" stop-color="#0176FF"/>
</linearGradient>
</defs>
</svg>
