<svg width="184" height="49" viewBox="0 0 184 49" fill="none" xmlns="http://www.w3.org/2000/svg">
<path d="M52.5879 42.4922C52.5879 42.4922 98.2407 53.6597 153.095 42.012C158.3 41.0739 184.778 33.1673 179.63 22.2343C177.396 18.7724 173.61 11.3907 138.421 6.05261C138.421 6.05261 168.239 8.17443 181.204 19.6658C184.554 22.9044 187.346 30.2526 174.28 36.9531C170.807 38.7399 146.127 51.8059 87.2742 48.344C81.7797 48.1206 57.3676 44.614 52.5879 42.4922Z" fill="#F6921E"/>
<path d="M125.255 27.5611C124.574 24.6575 124.138 23.6748 123.189 23.6748C122.89 23.6877 122.599 23.7791 122.346 23.9399C122.093 24.1006 121.887 24.325 121.748 24.5905L122.05 25.5733L113.205 35.021C113.205 35.021 111.831 36.1377 111.988 36.9306C112.144 37.7235 114.121 37.6789 114.121 37.6789C114.553 36.6468 115.116 35.6747 115.796 34.7865C116.019 34.552 116.6 33.9042 117.326 33.0779H124.373C124.685 34.2839 124.964 35.3113 125.132 35.8474C125.221 36.1943 125.408 36.5085 125.67 36.7527C125.932 36.997 126.258 37.1611 126.611 37.2257C126.963 37.2903 127.327 37.2526 127.658 37.1172C127.99 36.9819 128.276 36.7543 128.482 36.4616C127.142 35.9256 125.936 30.4535 125.255 27.5611ZM118.364 31.9388L122.831 26.9469C122.831 26.9469 123.446 29.5042 124.06 31.9388H118.364Z" fill="#00AABC"/>
<path d="M128.84 0.971176C128.84 1.40671 128.348 1.76407 127.723 1.76407C127.098 1.76407 126.606 1.40671 126.606 0.971176C126.606 0.535643 127.098 0.189453 127.723 0.189453C128.348 0.189453 128.84 0.513308 128.84 0.971176Z" fill="black"/>
<path d="M127.723 1.88656C127.042 1.88656 126.483 1.47337 126.483 0.948496C126.557 0.676197 126.718 0.435754 126.942 0.26432C127.166 0.0928864 127.441 0 127.723 0C128.005 0 128.279 0.0928864 128.503 0.26432C128.727 0.435754 128.889 0.676197 128.962 0.948496C128.996 1.47337 128.438 1.88656 127.723 1.88656ZM127.723 0.311948C127.22 0.311948 126.785 0.602303 126.785 0.948496C126.785 1.29469 127.22 1.58504 127.723 1.58504C128.225 1.58504 128.661 1.29469 128.661 0.948496C128.661 0.602303 128.27 0.311948 127.723 0.311948Z" fill="#F6921E"/>
<path d="M129.242 6.55411C129.242 7.04548 128.65 7.43634 127.913 7.43634C127.176 7.43634 126.573 7.04548 126.573 6.55411C126.573 6.06274 127.164 5.69421 127.913 5.69421C128.661 5.69421 129.242 6.05157 129.242 6.55411Z" fill="black"/>
<path d="M127.913 7.56026C127.075 7.56026 126.427 7.11356 126.427 6.53285C126.427 5.95214 127.075 5.5166 127.913 5.5166C128.75 5.5166 129.398 5.96331 129.398 6.53285C129.398 7.10239 128.739 7.56026 127.913 7.56026ZM127.913 5.81812C127.265 5.81812 126.718 6.14199 126.718 6.53285C126.718 6.92371 127.265 7.25873 127.913 7.25873C128.56 7.25873 129.096 6.93488 129.096 6.53285C129.096 6.13082 128.549 5.81812 127.913 5.81812Z" fill="#F6921E"/>
<path d="M135.205 3.46229C135.205 4.03183 134.502 4.50086 133.608 4.50086C132.715 4.50086 132.011 4.03183 132.011 3.46229C132.011 2.89274 132.726 2.42371 133.608 2.42371C134.49 2.42371 135.205 2.89274 135.205 3.46229Z" fill="black"/>
<path d="M133.608 4.64559C132.637 4.64559 131.866 4.13189 131.866 3.46184C131.866 2.79179 132.637 2.27808 133.608 2.27808C134.58 2.27808 135.35 2.79179 135.35 3.46184C135.35 4.13189 134.591 4.64559 133.608 4.64559ZM133.608 2.56843C132.826 2.56843 132.168 2.98164 132.168 3.46184C132.168 3.94204 132.826 4.35523 133.608 4.35523C134.39 4.35523 135.06 3.95321 135.06 3.46184C135.06 2.97047 134.423 2.56843 133.608 2.56843Z" fill="#F6921E"/>
<path d="M136.032 9.75928C136.032 10.34 135.317 10.7979 134.435 10.7979C133.552 10.7979 132.838 10.34 132.838 9.75928C132.838 9.17857 133.552 8.7207 134.435 8.7207C135.317 8.7207 136.032 9.18974 136.032 9.75928Z" fill="black"/>
<path d="M134.423 10.9549C133.452 10.9549 132.681 10.43 132.681 9.75993C132.681 9.08988 133.452 8.57617 134.423 8.57617C135.395 8.57617 136.166 9.10105 136.166 9.75993C136.166 10.4188 135.417 10.9549 134.423 10.9549ZM134.423 8.8777C133.642 8.8777 132.983 9.27973 132.983 9.75993C132.983 10.2401 133.631 10.6533 134.423 10.6533C135.216 10.6533 135.864 10.2513 135.864 9.75993C135.864 9.26856 135.227 8.8777 134.423 8.8777Z" fill="#F6921E"/>
<path d="M129.655 12.6863C129.655 13.267 128.951 13.7249 128.058 13.7249C127.164 13.7249 126.461 13.267 126.461 12.6863C126.461 12.1056 127.176 11.6477 128.058 11.6477C128.94 11.6477 129.655 12.1391 129.655 12.6863Z" fill="black"/>
<path d="M128.058 13.8797C127.086 13.8797 126.316 13.3548 126.316 12.6847C126.316 12.0147 127.097 11.501 128.058 11.501C129.018 11.501 129.8 12.0258 129.8 12.6847C129.8 13.3436 129.041 13.8797 128.058 13.8797ZM128.058 11.8025C127.276 11.8025 126.617 12.2045 126.617 12.6847C126.617 13.1649 127.265 13.5781 128.058 13.5781C128.851 13.5781 129.51 13.1761 129.51 12.6847C129.51 12.1934 128.84 11.8025 128.058 11.8025Z" fill="#F6921E"/>
<path d="M141.727 6.30804C141.727 6.93342 140.956 7.42479 139.996 7.42479C139.036 7.42479 138.276 6.92225 138.276 6.30804C138.276 5.69382 139.047 5.19128 139.996 5.19128C140.945 5.19128 141.727 5.69382 141.727 6.30804Z" fill="black"/>
<path d="M140.007 7.58233C138.957 7.58233 138.131 7.02395 138.131 6.30923C138.131 5.59451 138.957 5.03613 140.007 5.03613C141.057 5.03613 141.883 5.59451 141.883 6.30923C141.883 7.02395 141.057 7.58233 140.007 7.58233ZM140.007 5.34882C139.147 5.34882 138.433 5.78436 138.433 6.3204C138.433 6.85644 139.147 7.30314 140.007 7.30314C140.867 7.30314 141.593 6.86761 141.593 6.3204C141.593 5.77319 140.867 5.33766 140.007 5.33766V5.34882Z" fill="#F6921E"/>
<path d="M95.2589 15.3104H92.9472V14.6404H98.5868V15.3104H96.2528V20.7602H95.2589V15.3104Z" fill="black"/>
<path d="M103.355 17.8916H100.407V20.1251H103.702V20.784H99.4132V14.6642H103.534V15.3231H100.407V17.255H103.355V17.8916Z" fill="black"/>
<path d="M110.279 20.57C109.633 20.7927 108.952 20.8949 108.269 20.8715C106.125 20.8715 104.528 19.7548 104.528 17.7558C104.528 15.7568 106.136 14.5396 108.504 14.5396C109.114 14.5168 109.724 14.6077 110.302 14.8076L110.056 15.4553C109.566 15.2756 109.047 15.1885 108.526 15.1984C106.75 15.1984 105.567 16.1142 105.567 17.7335C105.567 19.3528 106.683 20.1903 108.481 20.1903C109.028 20.1987 109.572 20.1118 110.089 19.9335L110.279 20.57Z" fill="black"/>
<path d="M112.502 14.6404V17.1977H116.176V14.6404H117.17V20.7602H116.176V17.8901H112.502V20.7602H111.508V14.6404H112.502Z" fill="black"/>
<path d="M118.878 20.7602V14.6404H119.995L122.418 17.7338C122.923 18.3619 123.375 19.0305 123.77 19.7328C123.685 18.898 123.647 18.0591 123.658 17.2201V14.6516H124.585V20.7714H123.591L121.179 17.6668C120.659 17.0221 120.188 16.3389 119.772 15.6231C119.772 16.3937 119.839 17.1307 119.839 18.147V20.7602H118.878Z" fill="black"/>
<path d="M129.297 20.2252C128.797 20.2384 128.303 20.1024 127.88 19.8342C127.457 19.5661 127.123 19.1781 126.921 18.7195C126.719 18.261 126.658 17.7527 126.746 17.2595C126.834 16.7662 127.066 16.3103 127.414 15.9497C127.762 15.5892 128.21 15.3403 128.699 15.2349C129.189 15.1294 129.699 15.1721 130.165 15.3576C130.63 15.5431 131.03 15.8629 131.313 16.2763C131.596 16.6897 131.75 17.178 131.754 17.679C131.778 18.0118 131.731 18.346 131.618 18.6596C131.504 18.9733 131.325 19.2595 131.093 19.4997C130.862 19.7398 130.582 19.9285 130.273 20.0535C129.963 20.1785 129.631 20.237 129.297 20.2252ZM129.297 20.8729C129.747 20.9169 130.201 20.8655 130.63 20.7223C131.058 20.579 131.452 20.3471 131.785 20.0415C132.118 19.736 132.383 19.3637 132.562 18.9489C132.742 18.5341 132.832 18.0862 132.826 17.6343C132.829 17.1983 132.739 16.7666 132.563 16.3677C132.387 15.9687 132.129 15.6115 131.805 15.3194C131.482 15.0273 131.1 14.8069 130.685 14.6728C130.27 14.5386 129.831 14.4937 129.398 14.5409C128.95 14.4989 128.499 14.5509 128.073 14.6934C127.647 14.836 127.255 15.0661 126.922 15.3688C126.59 15.6716 126.325 16.0405 126.144 16.4517C125.962 16.863 125.869 17.3076 125.869 17.7571C125.869 18.1925 125.959 18.623 126.135 19.0213C126.311 19.4196 126.568 19.7768 126.889 20.0701C127.211 20.3634 127.59 20.5863 128.003 20.7246C128.416 20.8628 128.853 20.9133 129.286 20.8729H129.297Z" fill="black"/>
<path d="M134.066 14.6404H135.06V20.1013H138.31V20.7602H134.066V14.6404Z" fill="black"/>
<path d="M141.961 20.2252C141.46 20.2407 140.966 20.1065 140.541 19.8398C140.116 19.573 139.781 19.1858 139.577 18.7276C139.373 18.2693 139.311 17.7607 139.397 17.2668C139.484 16.7728 139.716 16.3158 140.063 15.9542C140.411 15.5925 140.858 15.3425 141.348 15.2361C141.838 15.1297 142.349 15.1717 142.815 15.3568C143.281 15.5419 143.681 15.8616 143.965 16.2752C144.248 16.6888 144.402 17.1775 144.407 17.679C144.431 18.0109 144.384 18.344 144.271 18.6569C144.158 18.9698 143.98 19.2554 143.75 19.4954C143.519 19.7354 143.241 19.9243 142.933 20.05C142.625 20.1757 142.294 20.2354 141.961 20.2252ZM141.961 20.8729C142.411 20.917 142.864 20.8657 143.292 20.7223C143.72 20.579 144.113 20.3469 144.445 20.0411C144.777 19.7354 145.041 19.3629 145.219 18.9481C145.398 18.5334 145.486 18.0857 145.479 17.6343C145.482 17.1983 145.392 16.7666 145.216 16.3677C145.04 15.9687 144.782 15.6115 144.458 15.3194C144.134 15.0273 143.753 14.8069 143.338 14.6728C142.923 14.5386 142.484 14.4937 142.051 14.5409C141.604 14.4988 141.153 14.5508 140.727 14.6934C140.302 14.8361 139.91 15.0663 139.579 15.3693C139.248 15.6723 138.983 16.0412 138.803 16.4525C138.623 16.8637 138.531 17.3082 138.533 17.7571C138.531 18.193 138.62 18.6244 138.795 19.0235C138.971 19.4226 139.227 19.7805 139.55 20.0742C139.872 20.3678 140.252 20.5906 140.665 20.7282C141.079 20.8658 141.517 20.9151 141.95 20.8729H141.961Z" fill="black"/>
<path d="M152.526 20.4921C151.764 20.7139 150.974 20.8267 150.181 20.8271C149.171 20.8878 148.171 20.6044 147.344 20.023C147.011 19.7544 146.742 19.4141 146.559 19.0274C146.375 18.6408 146.281 18.2176 146.283 17.7895C146.283 15.9692 147.847 14.6291 150.404 14.6291C151.048 14.6167 151.69 14.711 152.303 14.9083L152.057 15.556C151.521 15.3605 150.952 15.2695 150.382 15.288C148.528 15.288 147.322 16.2149 147.322 17.756C147.322 19.2972 148.439 20.2241 150.248 20.2241C150.689 20.2464 151.131 20.1935 151.554 20.0677V18.2362H150.058V17.5997H152.559L152.526 20.4921Z" fill="black"/>
<path d="M155.72 20.7602V18.1693L153.296 14.6404H154.413L155.53 16.3267C155.82 16.7957 156.055 17.1642 156.289 17.5886C156.49 17.1866 156.77 16.7957 157.06 16.3267L158.177 14.6404H159.293L156.758 18.1581V20.7602H155.72Z" fill="black"/>
<path d="M0.569537 38.1147L0 37.6569C0.449309 36.6584 0.7575 35.6022 0.915727 34.5188C0.915727 33.4914 2.17766 24.2335 2.17766 24.2335L3.5401 26.9137L5.09238 24.5127L5.48324 26.1767C6.01158 25.2463 6.45631 24.2709 6.81217 23.2619C7.03552 22.2904 7.99593 18.7949 7.99593 18.7949L5.31573 22.6254L6.2203 19.532L5.31573 20.5594L8.23045 11.9381L4.0538 7.9401C3.52329 8.77567 2.87227 9.52829 2.12182 10.1736C1.00507 11.0335 0.804055 10.799 0.848725 10.3411C1.01624 8.63249 3.99797 5.99696 4.96954 4.96955C5.50449 4.53081 6.14829 4.24514 6.83255 4.14289C7.51682 4.04065 8.21599 4.12563 8.85583 4.38883C9.60406 4.8467 13.4233 8.96752 13.4233 8.96752C13.4233 8.96752 14.5401 8.06295 14.7411 8.34214C14.9421 8.62132 14.6183 10.1066 14.6183 10.1066L27.3046 28.0528C28.3053 23.0866 30.312 18.3778 33.201 14.2163C33.3015 13.9929 33.7594 13.0213 34.2173 12.2284C34.6751 11.4355 34.9096 10.2853 35.2 10.1736C35.3789 10.1323 35.5448 10.0475 35.6831 9.9267C35.8214 9.80593 35.9278 9.65293 35.9929 9.48123C36.1469 9.07855 36.4051 8.72399 36.7411 8.45381C37.0203 8.23046 37.534 8.2863 38.0477 8.21929C38.5614 8.15229 38.1594 8.21929 38.3939 8.10762C38.8949 7.82668 39.4323 7.61624 39.9909 7.48224C40.6721 7.3594 40.4487 6.84569 41.2416 6.45483C42.0345 6.06397 42.1574 7.02437 42.1015 7.88427C41.8175 9.10855 41.4442 10.3104 40.9848 11.4802C40.8731 11.8711 40.9289 14.5066 40.9289 15.199C40.9289 15.8914 39.4995 16.0031 38.6954 15.936C37.8914 15.869 36.864 15.4223 36.0599 15.936C32.2964 22.6366 30.8 32.3411 30.8 32.3411L31.7827 30.6213L31.2132 34.6863L30.7553 34.5076V35.8254L31.5482 36.5178C29.9251 37.6208 28.2273 38.6097 26.467 39.4772C25.9645 39.064 25.9533 35.8254 25.9533 35.8254L24.8365 35.4792C24.8369 35.2288 24.8555 34.9787 24.8924 34.731C24.4507 33.8077 23.9156 32.932 23.2954 32.1178L22.3797 31.4812L22.3239 30.9117C22.3239 30.9117 20.9056 29.2477 20.4365 28.5665C19.7719 27.4111 19.0449 26.2927 18.2589 25.2163C17.6893 24.5909 12.2173 16.9858 12.2173 16.9858L11.6477 19.2193C11.3934 19.3378 11.1597 19.4961 10.9553 19.6883C10.665 19.9675 9.24669 23.8538 8.95634 24.3787C8.66598 24.9036 6.801 30.8894 6.04161 32.7655C5.28222 34.6416 5.65075 34.9432 5.88527 35.2893C6.11979 35.6355 4.62335 36.5401 4.62335 36.5401C4.54034 36.9077 4.54034 37.2892 4.62335 37.6569C4.75195 38.0909 4.71206 38.5575 4.51167 38.9635C4.39999 39.2985 3.31675 39.198 3.31675 39.198C3.31675 39.198 3.42842 38.6731 2.7472 38.6731C2.06598 38.6731 1.83146 38.7959 1.63045 39.1421C1.42943 39.4883 0.0893422 39.8792 0.0893422 39.8792L0.569537 38.1147ZM28.4883 29.3036L29.0244 29.3706C29.9736 23.1279 34.7086 14.2609 34.7533 14.1716L34.2731 13.9147C34.2731 14.0041 29.4487 22.9492 28.533 29.3036H28.4883ZM26.802 38.2376L27.3269 38.1259V35.2893L26.802 35.2V38.2376Z" fill="#EC1C24"/>
<path d="M16.3117 25.6526L15.8583 25.959L20.1353 32.2879L20.5887 31.9815L16.3117 25.6526Z" fill="black"/>
<path d="M11.4355 19.408L14.596 24.076L15.0427 23.7856L11.8822 19.1064L11.4355 19.408Z" fill="black"/>
<path d="M174.492 29.2709C173.45 29.2386 172.415 29.4609 171.477 29.9186C168.777 31.5064 165.883 32.7376 162.867 33.5815C162.544 34.0623 162.131 34.4758 161.65 34.7988L161.974 33.8272C160.958 33.8049 159.944 33.9405 158.97 34.2292C157.183 34.7206 156.133 34.0617 157.015 32.2749C158.076 31.2252 159.059 31.6272 161.739 30.6556C164.419 29.6841 175.218 24.5582 175.218 24.5582C175.218 24.5582 160.6 28.0536 159.383 28.4668C158.166 28.88 158.266 28.2993 159.785 26.5125C163.206 22.499 167.818 19.6821 172.951 18.4719C172.46 17.0871 173.018 16.5175 169.21 17.3551C169.815 16.999 170.437 16.6747 171.075 16.3835L170.584 16.0485L170.506 15.6465C170.506 15.6465 159.059 19.2983 153.754 30.0191C153.754 30.0191 153.029 29.617 154.402 27.5846C153.035 29.1318 152.245 31.1049 152.169 33.1683L151.521 34.1511L152.827 33.8272C152.827 33.8272 155.753 36.6637 161.27 36.0607C164.352 35.5693 171.835 33.3023 175.788 29.9632C173.666 30.5775 172.538 30.812 174.492 29.2709Z" fill="#EC1C24"/>
<path d="M39.1198 25.5411C42.0903 25.6081 46.2 25.6081 46.2 25.6081C46.6408 25.1872 46.9111 24.6187 46.9594 24.0111C46.9594 23.5532 45.9766 23.8659 45.9766 23.8659L36.3837 24.2345C36.3837 24.2345 37.0761 26.468 32.8771 37.4121C40.1919 37.87 42.6934 38.0263 42.8497 37.0324C43.0061 36.0385 42.9167 36.0497 41.4761 36.1167C40.0355 36.1837 35.8924 36.1949 35.8924 36.1949L37.3441 31.3147C37.3441 31.3147 42.6599 31.2477 43.1959 31.0913C43.732 30.935 44.3127 30.9573 44.5025 29.8071C42.7381 29.8852 37.7127 29.8852 37.7127 29.8852C38.0829 28.407 38.5531 26.9556 39.1198 25.5411Z" fill="#00AABC"/>
<path d="M55.2681 29.3812C54.5087 28.3203 52.5209 24.5791 52.1412 24.0543C51.7615 23.5294 51.2143 23.8979 50.533 24.0543C49.8518 24.2106 49.2488 25.4279 49.2488 25.4279C49.2488 25.4279 50.6224 25.7294 53.5148 30.9111C51.1472 32.3517 45.6975 36.0035 45.2843 37.3771L48.1097 37.835C48.1097 37.835 47.1158 36.2939 54.2742 31.8827C56.7087 35.7802 57.401 37.2878 58.0153 37.5335C58.4891 37.6641 58.9948 37.6113 59.4315 37.3857C59.8683 37.1601 60.2039 36.7782 60.3716 36.3162C58.8195 34.4287 57.3943 32.4402 56.1056 30.3639C56.1056 30.3639 61.9574 27.2482 63.7889 24.1324C61.7341 24.0543 60.8965 23.9761 60.8965 23.9761C60.8965 23.9761 61.8346 25.3385 55.2681 29.3812Z" fill="#00AABC"/>
<path d="M74.2975 23.7411C70.266 23.6741 67.2955 23.8974 67.2955 23.8974C67.1537 26.2367 66.7796 28.556 66.1787 30.8213C65.33 33.2669 63.9452 35.7126 64.269 36.6954C64.5929 37.6781 66.5025 37.9015 70.0538 37.5329C73.6051 37.1644 81.2213 35.8578 82.0142 28.7106C81.9919 26.2649 78.4741 23.8192 74.2975 23.7411ZM77.8041 32.8761C73.6944 37.4324 66.8376 35.8466 66.8376 35.8466L70.1878 25.3492C72.1468 25.1853 74.119 25.2867 76.0508 25.6507C79.9371 27.1807 80.1604 29.604 77.8041 32.8761Z" fill="#00AABC"/>
<path d="M96.2864 25.5407C96.723 25.1168 96.9925 24.5499 97.0458 23.9437C97.0458 23.4859 96.063 23.7986 96.063 23.7986L86.4589 24.1671C86.4589 24.1671 87.1514 26.4006 82.9635 37.3448C90.2671 37.8026 92.7798 37.959 92.9249 36.965C93.0701 35.9711 93.0031 35.9823 91.5625 36.0493C90.1219 36.1163 85.9229 36.1275 85.9229 36.1275L87.3747 31.2473C87.3747 31.2473 92.7016 31.1803 93.2376 31.0239C93.7737 30.8676 94.3544 30.8899 94.5331 29.7397C92.7798 29.8178 87.7544 29.8178 87.7544 29.8178C88.134 28.337 88.6192 26.8852 89.2062 25.4737C92.1656 25.5407 96.2864 25.5407 96.2864 25.5407Z" fill="#00AABC"/>
<path d="M112.825 23.5197C112.825 23.5197 103.769 22.403 98.3076 28.3999C97.4031 29.6172 94.3543 35.1005 101.278 37.0771C105.164 38.138 109.877 37.602 110.212 36.4629C110.547 35.3238 109.821 35.2456 108.537 35.7035C107.253 36.1614 100.161 37.0771 99.4021 31.9735C99.4802 29.1593 102.518 25.273 108.917 25.273C111.508 25.4294 112.647 25.6416 113.384 24.9604C114.121 24.2791 113.373 23.5197 112.825 23.5197Z" fill="#00AABC"/>
<path d="M141.559 23.7411C137.528 23.6741 134.557 23.8974 134.557 23.8974C134.416 26.2367 134.042 28.556 133.441 30.8213C132.592 33.2669 131.207 35.7126 131.531 36.6954C131.855 37.6781 133.764 37.9015 137.316 37.5329C140.867 37.1644 148.483 35.8578 149.276 28.7106C149.254 26.2649 145.747 23.8192 141.559 23.7411ZM145.055 32.8761C140.945 37.4324 134.1 35.8466 134.1 35.8466L137.45 25.3492C139.409 25.1853 141.381 25.2867 143.313 25.6507C147.21 27.1807 147.422 29.604 145.055 32.8761Z" fill="#00AABC"/>
</svg>
